<svg version="1.1" id="Layer_1" xmlns="http://www.w3.org/2000/svg" xmlns:xlink="http://www.w3.org/1999/xlink" x="0px" y="0px"
	 width="580px" 	height="320px" viewBox="0 0 630.8 344.7" style="enable-background:new 0 0 630.8 344.7;" xml:space="preserve">
<style type="text/css">
    .st2{
        fill:#96D4E4;
        fill-opacity:0;
        -moz-animation:s2 2s ease-in-out 4s forwards;
        -webkit-animation:s2 2s ease-in-out 4s forwards;
        animation:s2 2s ease-in-out 4s forwards;
    }
    .st0{
        fill:#e7e7e7;
        fill-opacity:0;
        -moz-animation:s2 2s ease-in-out 4s forwards;
        -webkit-animation:s2 2s ease-in-out 4s forwards;
        animation:s2 2s ease-in-out 4s forwards;
    }
        
    .st01{
        fill:#e7e7e7;
        fill-opacity:0;
        -moz-animation:s2 2s ease-in-out 4s forwards;
        -webkit-animation:s2 2s ease-in-out 4s forwards;
        animation:s2 2s ease-in-out 4s forwards;
    }
    .st3{
        fill:#1cafb6;
        fill-opacity:0;
        -moz-animation:s2 2s ease-in-out 5s forwards;
        -webkit-animation:s2 2s ease-in-out 5s forwards;
        animation:s2 2s ease-in-out 5s forwards;
    }
        
    .st33{
        fill:#1cafb6;
        fill-opacity:0;
        -moz-animation:s2 2s ease-in-out 6s forwards;
        -webkit-animation:s2 2s ease-in-out 6s forwards;
        animation:s2 2s ease-in-out 6s forwards;
    }
    
    @-webkit-keyframes s2{
        0%  {fill-opacity:0;}
        100%{fill-opacity:1;}
    }
    
    @-moz-keyframes s2{
        0%  {fill-opacity:0;}
        100%{fill-opacity:1;}
    }
</style>
<g>
	<g>
		<path class="st0" d="M470.6,173.2c1.2-13.9,5.8-34.1,16.2-55.5c3.2-6.6-20.9-1-22.1,6.3c-0.2,1.5-6.5,42.5-8.2,52.3
			c-2.9,12.4-10.5,23.6-17.2,23.6c-13,0-23.8-10.2-0.7-64.6c3.7-8.6-4.2-17.8-13.1-13.1l-34.2,11.4c-3.1-9.2-8.3-14.5-15.6-19.2
			c-10.8-7-30.5-2.3-33.5,11.5c-3.9,17.6,9.5,24.6,25.7,24.1c5-0.1,10.1-1.3,15.2-2.8c0.8,14.6-8.2,30.2-19.4,38.7
			c-8.6,6.5-20.6,9.6-29.7,1.8c-1.3-1.1-2.4-2.6-3.4-4.2c-1.7-2.9-2.4-6.3-2.4-9.7c0-14.4,5.4-16.7,8.1-22.6l0,0v0
			c0.5-1.1,0.9-2.3,1.2-3.7c0.9-4.6-4-9.4-8.4-6.4c-11.1,6.5-18.7,5-18.7,5c0,0,0,0,0,0c-0.6-8.7-3.8-14.4-9-20.2
			c-7.6-8.4-25.5-8.8-31.2,2.3c-7.2,14.1,2.6,23.1,16.5,26.4c4.3,1,8.9,1.2,13.6,1.1c-12.5,46-81.1,40.5-82.4-5.7
			c8.4-0.1,15.6-4.8,23.3-11.2c14.3-11.9,28.8-57,30.7-90.7c0.6-10.4-0.8-26.1-10.7-32.7c-10.9-7.2-23.6,1.5-29.6,10.1
			c-20.6,29.6-30.2,75.5-27.7,110.3c-7.5,0.7-23.2,2.1-23.2,2.1c1.6-28.8,4.9-76,17.4-98.3c0.3-0.3,32-38.1-28-27.4
			c-17.8,5.1-28.7,20.5-34.6,32c-2.7,4-4.5,9.3-5.6,13.6l0,0c-1.1,4.2-1.5,7.5-1.5,7.5c-3.3,12.9-4.7,26-5.3,39.7
			c-0.4,9.1-0.5,18.3-0.8,27.5c-8.9-1.8-17.8-4-26.5-6.2c-34.3-8.9-73.1-8.6-88.8,29.2c-8,19.1-6.5,40.4,3.6,56.4
			c0.2,0.3,1.5,2.1,4.2,4.9C32.4,234.5,59,240,82.3,231c20.3-7.9,38.5-23.8,47.5-40.6c6.2-11.7,9.2-24.1,10.7-37
			c8.8,1.1,17.7,1.8,26.6,2c-0.3,6.8-0.5,13.6-0.7,20.5c-0.3,12.3-1.4,35.4,12.8,49.5c17.4,17.4,54,8.4,63.4-2.3
			c3.6-4.1-10.3-19.6-16-17.9c-6.7,2-19.1,19.8-35,10.7c-10.1-5.8-11.6-26.5-11.7-34.6c-0.1-8.6,0-17.3,0.3-25.9
			c1.6,0,17.7-2,25.9-2.9c9.7,67.3,92,63.5,103.9,2.9c0,0,0,0,0,0c2.7,0.8,5.4,1.1,8,1.1c-1.8,5.9-2,12.5-1,18.9
			c0.5,4.6,4.7,14.6,4.7,14.6c7.6,13.8,24.1,15.6,38.2,10.5c22-7.8,35.7-35.3,33.6-57.8l0-0.1c3.2-0.5,9.7-3.2,24.6-4.8l-3.4,9.4
			c-1.1,4.2-1.9,8.4-2.6,12.6c-1.2,6.5-2.1,12.8-2.1,17.7c-0.5,28.7,18.2,33.9,29.8,32.1c8-1.2,12.9-7.3,17.4-18.1
			c0.9-2.2,3.4-1.7,4.8,0.2c9.2,13.2,19.6,17.1,25.2,18.8c16.2,2.9,29.4-11.3,37.4-18.9c30.6,34.1,74,19.9,86.3,3.5
			c9.4-12.6,9.5-25.5-2.1-38.9c-8-9.3-18.9-13.2-30.5-8.9c-1.4,0.5-2.6,1.4-2.7,3.9c-0.2,3.3,1.8,6.3,4.8,7.6
			c4.1,1.8,7.8,5,9.7,10.4c4.1,11.2,0.8,22.3-14.8,27c-1.6,0.5-6.2,1.9-7.7,2.2c-10-0.2-18.9-5.8-25.9-10.1l0,0
			c-1.4,0.1,0.1-0.5-1.1-0.7c-5.4-3.4-8.9-6.3-8.9-6.3c21.9-44.9,26.8-77.7,29.3-99.3c11.6,1.4,23.1,1.4,34.5-0.9
			c15.8-3.2,32.8-12.5,35.3-30.8c0.4-3.2-5-12.3-15.4-6.5c-9.6,5.4-14.8,12.4-26.6,16.6c-8.9,3.2-17.6,4.8-25.8,5.5
			c2.5-15.2,5.1-64.4-23.6-57.5c-16.9,4-25,29.8-28.1,50.3c-11.6-2.8-23.4-5.5-35.6-7.2c-11.1-1.4-11.4,7.1,0.5,9
			c15,1.8,22.6,4.6,34,8.5c-0.3,3.4-0.4,6.4-0.3,8.9c0.2,15.8-3.3,49.1,7.8,101.5c-9.5,10.4-18.1,24.1-29.9,19.3
			C487.8,198.9,468.1,189.4,470.6,173.2z M369,140.4c-4.8,0.6-9.8-2.1-11.1-6.8c-2-6.8,5-11.7,9-10.9c2.5,0.5,6.3,2.4,11.4,8.8
			c1.1,1.9,1.9,3.9,2.7,5.9C377.1,138.8,373.1,139.8,369,140.4z M57.5,217.4c-17.8,2.2-28-4.9-30.2-5.9
			C4.6,196,7.8,159.2,24.5,146.4c23.4-17.8,57.4-11.6,96.7,3.9C116.3,191.9,82.9,213.4,57.5,217.4z M178.7,41.8
			c-5.2,31.8-8.8,64-10.7,96.2c-8.8-0.2-17.5-1-26.2-2.2c1.1-28.1-1-57,10.8-82.7c0,0,18.2-25.2,26.7-22.2
			C181.6,31.7,178.8,35.9,178.7,41.8z M253.7,27.4c13.9-6.3,3.4,41.5,2.2,47.3c-3.7,17.6-8.2,37.7-19.5,50.6
			c-9.4,10.8-19.8,8.8-19.8,8.8C213.4,101.8,231.1,37.6,253.7,27.4z M288.8,146.3c-2.9-0.4-5.3-2.4-6.2-5.1
			c-3-8.4,5.8-12.2,9.6-10.4c2.1,1,4.9,3.5,7.7,10.1c0.5,1.9,0.8,3.7,0.9,5.6C296.7,147,292.8,147,288.8,146.3z M537.6,136.3
			c-1.4,3.9-7.7,17.7-11.7,24.2c-0.1-0.9-1.4-20.4-1.5-21.2c-1.4-13,0.6-42,3.5-64.4c6.8,2,13.6,3.8,20.4,5.2
			C545.7,101.9,541.9,124.8,537.6,136.3z M549.9,66.2c-7.4-0.4-14.2-1.5-20.2-2.9c0.8-4.7,1.6-8.8,2.4-11.9
			c1.9-7.2,4.5-14.1,8.1-20.6c5-9.1,11.6-3.6,11.7,3.6C551.9,41.4,551.2,53,549.9,66.2z"/>
		<path class="st01" d="M480.5,291.7c-1.9,4.9-2.8,9.4-3.9,14c-5.6,23.6-18.8,26.8-24.2,26.5c-9.8-0.6-11.9-4.2-18.8-11.4
			c9.9-8.5,48-44.5,29-65.8c-8.5-9.5-21.6-8.1-31-1.5c-14.2,10-21.4,31.5-21.4,43.4c0,5.4,0,12.5,1.7,16c1.1,3.9,2.7,7.4,4.6,10.5
			c-1.1,0.7-2.2,1.4-3.3,2.1c-14.6,8.5-38.9,6.3-33.9-31.8c6.7-51-0.2-59.2-13.7-59c-10.4,0.2-16.9,7.7-22,19.6
			c-0.9,2.1-4.1,1.6-4.3-0.7c-1-13-1.7-27.2-12.9-29.7c-10.5-2.3-20.3,3.1-26.3,18.7c-0.5,1.2-2.2,1-2.4-0.3
			c-0.8-6.4-2.4-16.4-5.3-20.5c-3.6-4.9-21.3-6-17.4,11c3.1,13.6,11.1,47.6,8.6,88.7l-0.3,9.4c-0.1,3.3-0.2,6.6-0.4,9.8
			c-0.2,3.6,7.9,6.3,8.1-4.4c1.5-57.3,18.1-103.4,30.9-103.7c13.8-0.4,10.4,39.1-3.3,104.9c-0.6,3.1,2.3,5.7,6.8,5.2
			c4.6-0.3,8.9-6.6,9.2-9.4c4.5-42,16.5-89.5,25.4-91.6c12.4-2.9,9.2,24.7,2.8,57.4c-6.9,35.2,8.7,44.3,20.4,45.4
			c5.7,0.6,22.5-3.9,33.4-11c1.7-1.1,3.4-2.2,5.1-3.4c0,0,0,0,0,0c7,7.4,15.6,9.9,23.9,10.5c4.2,0.8,8.4,0.8,13.1,0.2
			c18.5-2.1,33.9-15.6,38-27.9c2.6-7.8,3.1-17.2-2-25.4C493.1,285.1,484.3,281.9,480.5,291.7z M428.1,310.1
			c-7.8-28.8,13.8-51.6,23.5-42.9c2.3,2.1,3.2,7.1,0,15.9c-3.2,8.8-11.1,23.5-21.3,31.6C430.2,314.7,428.3,310.9,428.1,310.1z"/>
	</g>
	<g>
		<path class="st1"
              fill="#27bcca" 
                stroke="black"
                fill-opacity="0"
                stroke-width="2"		
                stroke-dasharray="3400"
              d="M468.6,165.3c1.2-13.9,5.8-34.1,16.2-55.5c3.2-6.6-20.9-1-22.1,6.3c-0.2,1.5-6.5,42.5-8.2,52.3
			c-2.9,12.4-7.8,26.8-14.5,26.8c-13,0-26.6-13.4-3.5-67.7c3.7-8.6-4.2-17.8-13.1-13.1l-34.2,11.4c-3.1-9.2-8.3-14.5-15.6-19.2
			c-10.8-7-30.5-2.3-33.5,11.5c-3.9,17.6,9.5,24.6,25.7,24.1c5-0.1,10.1-1.3,15.2-2.8c0.8,14.6-8.2,30.2-19.4,38.7
			c-8.6,6.5-20.6,9.6-29.7,1.8c-1.3-1.1-2.4-2.6-3.4-4.2c-1.7-2.9-2.4-6.3-2.4-9.7c0-14.4,5.4-16.7,8.1-22.6l0,0v0
			c0.5-1.1,0.9-2.3,1.2-3.7c0.9-4.6-4-9.4-8.4-6.4c-11.1,6.5-18.7,5-18.7,5c0,0,0,0,0,0c-0.6-8.7-3.8-14.4-9-20.2
			c-7.6-8.4-25.5-8.8-31.2,2.3c-7.2,14.1,2.6,23.1,16.5,26.4c4.3,1,8.9,1.2,13.6,1.1c-12.5,46-81.1,40.5-82.4-5.7
			c8.4-0.1,15.6-4.8,23.3-11.2c14.3-11.9,28.8-57,30.7-90.7c0.6-10.4-0.8-26.1-10.7-32.7c-10.9-7.2-23.6,1.5-29.6,10.1
			C209.1,47,199.5,93,202.1,127.8c-7.5,0.7-23.2,2.1-23.2,2.1c1.6-28.8,4.9-76,17.4-98.3c0.3-0.3,32-38.1-28-27.4
			c-17.8,5.1-28.7,20.5-34.6,32c-2.7,4-4.5,9.3-5.6,13.6l0,0c-1.1,4.2-1.5,7.5-1.5,7.5c-3.3,12.9-4.7,26-5.3,39.7
			c-0.4,9.1-0.5,18.3-0.8,27.5c-8.9-1.8-17.8-4-26.5-6.2c-34.3-8.9-73.1-8.6-88.8,29.2c-8,19.1-6.5,40.4,3.6,56.4
			c0.2,0.3,1.5,2.1,4.2,4.9c17.5,17.9,44.1,23.4,67.3,14.3c20.3-7.9,38.5-23.8,47.5-40.6c6.2-11.7,9.2-24.1,10.7-37
			c8.8,1.1,17.7,1.8,26.6,2c-0.3,6.8-0.5,13.6-0.7,20.5c-0.3,12.3-1.4,35.4,12.8,49.5c17.4,17.4,54,8.4,63.4-2.3
			c3.6-4.1-10.3-19.6-16-17.9c-6.7,2-19.1,19.8-35,10.7c-10.1-5.8-11.6-26.5-11.7-34.6c-0.1-8.6,0-17.3,0.3-25.9
			c1.6,0,17.7-2,25.9-2.9c9.7,67.3,92,63.5,103.9,2.9c0,0,0,0,0,0c2.7,0.8,5.4,1.1,8,1.1c-1.8,5.9-2,12.5-1,18.9
			c0.5,4.6,4.7,14.6,4.7,14.6c7.6,13.8,24.1,15.6,38.2,10.5c22-7.8,35.7-35.3,33.6-57.8l0-0.1c3.2-0.5,9.7-3.2,24.6-4.8l-3.4,9.4
			c-1.1,4.2-1.9,8.4-2.6,12.6c-1.2,6.5-2.1,12.8-2.1,17.7c-0.5,28.7,18.2,33.9,29.8,32.1c8-1.2,12.9-7.3,17.4-18.1
			c0.9-2.2,3.4-1.7,4.8,0.2c9.2,13.2,19.6,17.1,25.2,18.8c16.2,2.9,29.4-11.3,37.4-18.9c30.6,34.1,74,19.9,86.3,3.5
			c9.4-12.6,9.5-25.5-2.1-38.9c-8-9.3-18.9-13.2-30.5-8.9c-1.4,0.5-2.6,1.4-2.7,3.9c-0.2,3.3,1.8,6.3,4.8,7.6
			c4.1,1.8,7.8,5,9.7,10.4c4.1,11.2,0.8,22.3-14.8,27c-1.6,0.5-6.2,1.9-7.7,2.2c-10-0.2-18.9-5.8-25.9-10.1l0,0
			c-1.4,0.1,0.1-0.5-1.1-0.7c-5.4-3.4-8.9-6.3-8.9-6.3c21.9-44.9,26.8-77.7,29.3-99.3c11.6,1.4,23.1,1.4,34.5-0.9
			c15.8-3.2,32.8-12.5,35.3-30.8c0.4-3.2-5-12.3-15.4-6.5c-9.6,5.4-14.8,12.4-26.6,16.6c-8.9,3.2-17.6,4.8-25.8,5.5
			c2.5-15.2,5.1-64.4-23.6-57.5c-16.9,4-25,29.8-28.1,50.3c-11.6-2.8-23.4-5.5-35.6-7.2c-11.1-1.4-11.4,7.1,0.5,9
			c15,1.8,22.6,4.6,34,8.5c-0.3,3.4-0.4,6.4-0.3,8.9c0.2,15.8-3.3,49.1,7.8,101.5c-9.5,10.4-18.1,24.1-29.9,19.3
			C485.8,191,466.1,181.5,468.6,165.3z M367,132.5c-4.8,0.6-9.8-2.1-11.1-6.8c-2-6.8,5-11.7,9-10.9c2.5,0.5,6.3,2.4,11.4,8.8
			c1.1,1.9,1.9,3.9,2.7,5.9C375.1,130.9,371.1,131.9,367,132.5z M55.5,209.5c-17.8,2.2-28-4.9-30.2-5.9
			c-22.7-15.5-19.5-52.3-2.8-65.1c23.4-17.8,57.4-11.6,96.7,3.9C114.3,184.1,80.9,205.5,55.5,209.5z M176.7,33.9
			c-5.2,31.8-8.8,64-10.7,96.2c-8.8-0.2-17.5-1-26.2-2.2c1.1-28.1-1-57,10.8-82.7c0,0,18.2-25.2,26.7-22.2
			C179.6,23.8,176.8,28,176.7,33.9z M251.7,19.5c13.9-6.3,3.4,41.5,2.2,47.3c-3.7,17.6-8.2,37.7-19.5,50.6
			c-9.4,10.8-19.8,8.8-19.8,8.8C211.4,93.9,229.1,29.7,251.7,19.5z M286.8,138.5c-2.9-0.4-5.3-2.4-6.2-5.1c-3-8.4,5.8-12.2,9.6-10.4
			c2.1,1,4.9,3.5,7.7,10.1c0.5,1.9,0.8,3.7,0.9,5.6C294.7,139.1,290.8,139.1,286.8,138.5z M535.6,128.4c-1.4,3.9-7.7,17.7-11.7,24.2
			c-0.1-0.9-1.4-20.4-1.5-21.2c-1.4-13,0.6-42,3.5-64.4c6.8,2,13.6,3.8,20.4,5.2C543.7,94,539.9,116.9,535.6,128.4z M547.9,58.3
			c-7.4-0.4-14.2-1.5-20.2-2.9c0.8-4.7,1.6-8.8,2.4-11.9c1.9-7.2,4.5-14.1,8.1-20.6c5-9.1,11.6-3.6,11.7,3.6
                 C549.9,33.5,549.2,45.1,547.9,58.3z">
            <animate 
                   attributeName="fill-opacity" 
                   from="0" 
                   to="1" 
                   dur="2s" 
                   begin="4s"
                   fill="freeze" />
                
             <animate 
                   attributeName="stroke" 
                   from="black" 
                   to="#27bcca" 
                   dur="2s" 
                   begin="1s"
                   fill="freeze" />
                <animate 
                   attributeName="stroke-dashoffset"
                   from="3400" 
                   to="0" 
                   dur="5s" 
                   fill="freeze" />
        </path>
		<path class="st1"
              fill="#27bcca" 
                stroke="black"
                fill-opacity="0"
                stroke-width="1"		
                stroke-dasharray="4000"
          stroke-dashoffset="4000"
              d="M478.5,283.9c-1.9,4.9-2.8,9.4-3.9,14c-5.6,23.6-18.8,26.8-24.2,26.5c-9.8-0.6-11.9-4.2-18.8-11.4
			c9.9-8.5,48-44.5,29-65.8c-8.5-9.5-21.6-8.1-31-1.5c-14.2,10-21.4,31.5-21.4,43.4c0,5.4,0,12.5,1.7,16c1.1,3.9,2.7,7.4,4.6,10.5
			c-1.1,0.7-2.2,1.4-3.3,2.1c-14.6,8.5-38.9,6.3-33.9-31.8c6.7-51-0.2-59.2-13.7-59c-10.4,0.2-16.9,7.7-22,19.6
			c-0.9,2.1-4.1,1.6-4.3-0.7c-1-13-1.7-27.2-12.9-29.7c-10.5-2.3-20.3,3.1-26.3,18.7c-0.5,1.2-2.2,1-2.4-0.3
			c-0.8-6.4-2.4-16.4-5.3-20.5c-3.6-4.9-21.3-6-17.4,11c3.1,13.6,11.1,47.6,8.6,88.7l-0.3,9.4c-0.1,3.3-0.2,6.6-0.4,9.8
			c-0.2,3.6,7.9,6.3,8.1-4.4c1.5-57.3,18.1-103.4,30.9-103.7c13.8-0.4,10.4,39.1-3.3,104.9c-0.6,3.1,2.3,5.7,6.8,5.2
			c4.6-0.3,8.9-6.6,9.2-9.4c4.5-42,16.5-89.5,25.4-91.6c12.4-2.9,9.2,24.7,2.8,57.4c-6.9,35.2,8.7,44.3,20.4,45.4
			c5.7,0.6,22.5-3.9,33.4-11c1.7-1.1,3.4-2.2,5.1-3.4c0,0,0,0,0,0c7,7.4,15.6,9.9,23.9,10.5c4.2,0.8,8.4,0.8,13.1,0.2
			c18.5-2.1,33.9-15.6,38-27.9c2.6-7.8,3.1-17.2-2-25.4C491.1,277.2,482.3,274,478.5,283.9z M426.1,302.2
                 c-7.8-28.8,13.8-51.6,23.5-42.9c2.3,2.1,3.2,7.1,0,15.9c-3.2,8.8-11.1,23.5-21.3,31.6C428.2,306.9,426.3,303.1,426.1,302.2z">
        <animate 
                   attributeName="fill-opacity" 
                   from="0" 
                   to="1" 
                   dur="2s" 
                   begin="4s"
                   fill="freeze" />
                
             <animate 
                   attributeName="stroke" 
                   from="black" 
                   to="#27bcca" 
                   dur="2s" 
                   begin="2s"
                   fill="freeze" />
                <animate 
                   attributeName="stroke-dashoffset"
                   from="4000" 
                   to="0" 
                    begin="2s"
                   dur="5s" 
                   fill="freeze" /> 
        </path>
	</g>
	<g>
		<path class="st2" d="M130.4,59.7c-3.9,9.2-4.9,19.7-5.5,29.6c-0.3,5-0.4,10.1-0.3,15.1c0,4.9-0.5,10.4,0.9,15.2
			c0.1,0.4,0.8,0.5,0.9,0c0.9-4.3,0.2-8.9,0.1-13.3c-0.1-5,0-10.1,0.2-15.1c0.4-10.7,2.5-20.8,4.4-31.3
			C131.2,59.5,130.6,59.3,130.4,59.7L130.4,59.7z"/>
		<path class="st2" d="M165.8,135c10.3-0.1,20.5-0.8,30.5-2.8c1-0.2,0.6-1.7-0.4-1.5c-9.9,2.1-20,2.9-30.1,3
			C165,133.7,165,135,165.8,135L165.8,135z"/>
		<path class="st2" d="M75.8,120.3c16.3,2.6,32,7.1,48.1,10.8c11.8,2.7,24.2,3.5,36.3,3.9c0.9,0,0.9-1.4,0-1.4
			c-12.7-0.2-25.5-1.2-37.9-3.8C106.9,126.4,91.6,121.7,75.8,120.3C75.8,120.3,75.8,120.3,75.8,120.3L75.8,120.3z"/>
		<path class="st2" d="M40.5,119.7c-5.1,0.8-10.5,3.1-14.4,6.5c-0.2,0.2,0.1,0.5,0.3,0.3c4.7-2.4,9.3-4.6,14.2-6.6
			C40.7,119.9,40.6,119.7,40.5,119.7L40.5,119.7z"/>
		<path class="st2" d="M20.7,130.1c-8.9,6.5-14.9,19.2-16,30c0,0.3,0.4,0.3,0.5,0.1c1.4-5.6,3-10.9,5.6-16.1
			c2.7-5.2,6.6-9.2,10.1-13.7C20.9,130.2,20.8,130,20.7,130.1L20.7,130.1z"/>
		<path class="st2" d="M196.5,9c-3.7,1-9.4,2.1-12.4,4.7c-3,2.5-2.4,8.9-2.9,12.5c-1.6,11.5-4.1,23.4-4.1,35c0,0.5,0.8,0.6,0.9,0.1
			c2.6-9.3,3.3-19.2,4.7-28.7c0.6-4.5,1.3-9,1.9-13.5c0.7-5.4,8.1-6.9,12.3-9.5C197.1,9.5,196.9,8.9,196.5,9L196.5,9z"/>
		<path class="st2" d="M174,79.3c-1.4,14.9-3.1,30.4-3.5,45.6c0,1,0.5,1.3,0.6,0.3c1.8-14.7,2.3-30.6,3-45.8
			C174.3,79,174.1,78.9,174,79.3L174,79.3z"/>
		<path class="st2" d="M168.3,158.1c-0.9,6.2-1.1,12.5-1.5,18.8c-0.4,5.9-0.4,11.8,2,17.3c0.1,0.3,0.5,0.1,0.4-0.2
			c-2.6-12.1-0.3-23.7-0.6-35.9C168.7,158,168.3,157.9,168.3,158.1L168.3,158.1z"/>
		<path class="st2" d="M119.2,160.9c-2.5,5.8-5.2,11.5-8.8,16.7c-3.9,5.7-8.8,10.3-13.7,15c-0.2,0.2,0.1,0.6,0.3,0.4
			c10.7-7.1,19.1-19.8,22.4-32.1C119.4,160.9,119.2,160.8,119.2,160.9L119.2,160.9z"/>
		<path class="st2" d="M170.4,10.7c-11-3.6-25.4,8.8-28.6,17.1c-0.4,1,1.1,1.2,2,0.4c3.3-2.8,5.6-6.1,8.6-9.1c4.6-4.4,11-7,17.4-7.4
			C170.7,11.7,171.1,10.9,170.4,10.7L170.4,10.7z"/>
		<path class="st2" d="M569.1,195.4c20.1,3.1,31.1-23.2,28-39.6c-0.1-0.6-1-0.5-1,0.1c-0.8,8-1.3,15.6-4.5,23.1
			c-4.3,10-12.2,14.1-22.4,15.8C568.7,194.9,568.7,195.4,569.1,195.4L569.1,195.4z"/>
		<path class="st2" d="M246.9,191c-5.7-3.1-11.4-6-16.7-9.7c-7.4-5-12.7-11.6-18.1-18.6c-0.3-0.4-0.9,0-0.6,0.4
			c7,13.8,21.4,22.5,35.3,28.2C247,191.5,247.2,191.1,246.9,191L246.9,191z"/>
		<path class="st2" d="M276.9,185.3c-0.6,0.1-1.2,0.4-1.8,0.6c-0.6,0.2-1.2,0.3-1.7,0.7c-0.2,0.2-0.1,0.5,0.2,0.6
			c0.6,0.2,1.3,0,1.8-0.2c0.7-0.2,1.3-0.5,1.9-1C277.6,185.7,277.3,185.2,276.9,185.3L276.9,185.3z"/>
		<path class="st2" d="M252.3,8c-6.8-2.5-16.8,2.5-19.4,9.2c-0.2,0.5,0.5,0.8,0.8,0.5c5-4.8,10.8-10.4,18.5-9.1
			C252.5,8.7,252.7,8.2,252.3,8L252.3,8z"/>
		<path class="st2" d="M230.1,21.8c-6.3,6.9-10,16.6-13.3,25.2c-3.8,9.8-7.1,20.4-8.2,30.9c-0.1,0.6,0.9,0.7,1.1,0.1
			c3.1-9.5,5.1-19.4,8.5-28.8c3.3-9.5,8.4-17.9,12.4-27C230.8,21.9,230.4,21.5,230.1,21.8L230.1,21.8z"/>
		<path class="st2" d="M207.2,85.2c-1.2,7-2.5,14.2-2.7,21.3c0,0.3,0.5,0.4,0.6,0.1c1.6-6.9,2.2-14.3,2.7-21.3
			C207.9,84.9,207.3,84.8,207.2,85.2L207.2,85.2z"/>
		<path class="st2" d="M541.6,3.2c-7.2-1-15.9,6.1-17,13.3c-0.1,0.5,0.6,0.6,0.9,0.3c3.9-5.8,8.3-12.5,16-12.9
			C542,3.8,542,3.3,541.6,3.2L541.6,3.2z"/>
		<path class="st2" d="M513.9,69.3c-3.6,8.6-3.8,19-4,28.2c-0.3,10.5,0.1,21.6,2.6,31.8c0.1,0.6,1.1,0.4,1.1-0.2
			c-0.3-10-1.6-20-1.7-30c0-10,2-19.7,2.7-29.6C514.6,69.2,514.1,69,513.9,69.3L513.9,69.3z"/>
		<path class="st2" d="M515.2,145.2c1,7,2,14.3,3.9,21.1c0.1,0.3,0.6,0.2,0.6-0.1c-0.6-7.1-2.3-14.2-3.9-21.1
			C515.7,144.8,515.1,144.9,515.2,145.2L515.2,145.2z"/>
		<path class="st2" d="M267.7,26.4c0.8,19.4-4.5,38.4-8.5,57.2c-0.1,0.3,0.5,0.5,0.6,0.2c3.6-9.5,5-20,6.5-29.9
			c1.3-9,2.3-18.3,1.6-27.4C267.8,26.3,267.7,26.3,267.7,26.4L267.7,26.4z"/>
		<path class="st2" d="M555.7,79.5c-0.8,19.4-7.5,38-13.1,56.3c-0.1,0.3,0.4,0.6,0.6,0.2c4.3-9.1,6.6-19.5,8.8-29.3
			c2-8.9,3.7-18.1,3.8-27.2C555.8,79.4,555.7,79.4,555.7,79.5L555.7,79.5z"/>
		<path class="st2" d="M253.7,98.5c-11.4,21.8-19.3,40.3-46.2,40.7c-0.4,0-0.3,0.8,0.1,0.7c16.4-2.4,17.4-0.6,28.9-11.1
			c9.4-8.5,12.1-18.9,17.6-30.1C254.1,98.5,253.8,98.3,253.7,98.5L253.7,98.5z"/>
		<path class="st2" d="M319.5,156.7c-0.5,0-2.6,0.8-2.1,1.6c0.5,0.8,2.1-0.5,2.5-1C320,157.1,319.8,156.7,319.5,156.7L319.5,156.7z"
			/>
		<path class="st2" d="M371.5,108.5c-7.2-4.8-21.2-3.5-25.9,4.4c-0.3,0.5,0.3,1.1,0.8,0.8c3.8-2.3,6.6-4.8,11.1-5.6
			c4.8-0.9,9.2,0.4,13.9,0.7C371.6,108.7,371.6,108.5,371.5,108.5L371.5,108.5z"/>
		<path class="st2" d="M343.9,116.4c-3.1,1.6-3.3,8.4-1.1,10.7c0.3,0.3,0.7,0.1,0.7-0.3c0-1.7-0.6-3.2-0.6-4.9
			c0-1.9,1.2-3.5,1.2-5.3C344.2,116.4,344,116.3,343.9,116.4L343.9,116.4z"/>
		<path class="st2" d="M344.6,131.5c0.1,0.8,0.5,1.5,1,2.1c0.5,0.6,1.2,1.1,2,1.1c0.6,0,0.8-0.6,0.4-1c-0.4-0.5-0.9-0.7-1.4-1.1
			c-0.4-0.4-0.7-0.9-1.1-1.4C345.3,130.6,344.6,131,344.6,131.5L344.6,131.5z"/>
		<path class="st2" d="M299.1,120.3c-5.8-6.4-19.7-8.6-26.2-2.1c-0.4,0.4,0,1.1,0.6,1c4.2-1.3,7.6-3,12.2-2.7
			c4.9,0.3,8.8,2.6,13.3,4.1C299.1,120.6,299.2,120.4,299.1,120.3L299.1,120.3z"/>
		<path class="st2" d="M270.6,122c-3.1,1.6-3.3,8.4-1.1,10.7c0.3,0.3,0.7,0.1,0.7-0.3c0-1.7-0.6-3.2-0.6-4.9c0-1.9,1.2-3.5,1.2-5.3
			C270.9,122,270.7,122,270.6,122L270.6,122z"/>
		<path class="st2" d="M271.3,137.1c0.1,0.8,0.5,1.5,1,2.1c0.5,0.6,1.2,1.1,2,1.1c0.6,0,0.8-0.6,0.4-1c-0.4-0.5-0.9-0.7-1.4-1.1
			c-0.4-0.4-0.7-0.9-1.1-1.4C272,136.3,271.2,136.6,271.3,137.1L271.3,137.1z"/>
		<path class="st2" d="M395.8,131.2c1.5,0.2,3-0.4,4.4-0.8c1.3-0.4,2.8-0.5,3.8-1.4c0.2-0.2,0.2-0.7-0.2-0.7c-1.3-0.2-2.7,0.5-4,0.9
			c-1.4,0.4-3.1,0.8-4.2,1.7C395.5,130.9,395.6,131.2,395.8,131.2L395.8,131.2z"/>
		<path class="st2" d="M557.6,70.5c5.8,0.2,11.6,0.8,17.4,0.6c6.1-0.2,12-1.6,18-1.8c0.8,0,0.9,1.1,0.2,1.4
			c-5.7,1.8-12.2,1.8-18.2,1.9c-5.7,0.1-11.9,0-17.4-1.7C557.4,70.9,557.4,70.5,557.6,70.5L557.6,70.5z"/>
		<path class="st2" d="M597.7,68.5c5.5-2.7,11-4.2,15.9-8.2c4.1-3.3,11.6-11.1,9.3-17c-0.3-0.9,1-1.3,1.5-0.6
			c3.4,5.2-3.4,12.7-6.7,16.3c-4.9,5.3-12.6,9.6-19.9,10.1C597.5,69.2,597.4,68.7,597.7,68.5L597.7,68.5z"/>
		<path class="st2" d="M378,170.6c-3.2,6-7.4,11-12.9,14.9c-5.8,4.1-12,4.9-18.7,6.4c-0.3,0.1-0.2,0.5,0.1,0.5
			c13.4,0.9,26.6-9.9,31.8-21.6C378.3,170.5,378.1,170.4,378,170.6L378,170.6z"/>
		<path class="st2" d="M292.7,171.5c-1.8,2.4-3.5,4.8-5.4,7.1c-2,2.4-4.5,3.7-7,5.4c-0.2,0.2-0.1,0.6,0.2,0.5
			C286.3,183.1,290.3,176.4,292.7,171.5C292.8,171.5,292.7,171.5,292.7,171.5L292.7,171.5z"/>
		<g>
			<path class="st2" d="M286.5,216.5c-1.6-2.4-4.9-2.7-7.2-0.9c-2.2,1.7-4.1,6.6-2,9c0.2,0.3,0.7,0.2,0.9-0.1
				c0.3-0.8,0.3-1.5,0.3-2.4c0-1.4,0.3-2.7,1-4c1.2-2.1,4.6-2.9,6.4-1.2C286.3,217.1,286.7,216.8,286.5,216.5L286.5,216.5z"/>
			<path class="st2" d="M278.7,229.7c0.4,5.8,1.2,11.6,1.8,17.4c0.6,5.7,0.4,12.1,2.2,17.5c0.1,0.3,0.7,0.4,0.7,0
				c0.9-5.7-0.5-11.9-1.1-17.5c-0.7-5.9-1.2-11.8-2.4-17.6C279.8,228.9,278.7,229,278.7,229.7L278.7,229.7z"/>
			<path class="st2" d="M282.9,269.1c0.1,6.4,0,13.8,1.5,20.1c0.1,0.5,0.8,0.4,0.9-0.1c0.6-6.4-0.6-13.6-1.4-20
				C283.9,268.5,282.9,268.4,282.9,269.1L282.9,269.1z"/>
			<path class="st2" d="M284.5,294.7c-0.1,0.3-0.3,0.7-0.3,1c0,0.4,0,0.8,0,1.3c0,0.7-0.1,1.5,0.3,2.1c0.2,0.3,0.5,0.3,0.7,0
				c0.5-0.6,0.3-1.4,0.3-2.1c0-0.4,0-0.8,0-1.3c0-0.3-0.2-0.7-0.3-1C285.1,294.4,284.6,294.4,284.5,294.7L284.5,294.7z"/>
			<path class="st2" d="M322.3,218.2c-6.7-1.9-17.2,4.8-17.2,12.1c0,0.5,0.6,0.6,0.9,0.2c2.3-3,3.7-6.1,6.8-8.3
				c2.9-2.1,6.2-2.5,9.5-3.3C322.6,218.8,322.6,218.3,322.3,218.2L322.3,218.2z"/>
			<path class="st2" d="M331.9,242.4c-0.9,6.5-1.2,13-1.9,19.5c-0.8,7.6-3,15.6-2.5,23.1c0,0.5,0.7,0.6,0.8,0.1
				c2.2-5.9,2.3-13.1,3.1-19.4c0.9-7.7,1.9-15.5,1.9-23.2C333.3,241.8,332,241.6,331.9,242.4L331.9,242.4z"/>
			<path class="st2" d="M327.4,289.1c-0.7,2.7-1.2,5.3-1.7,8c-0.4,2.4-1.4,4.9-1,7.3c0.1,0.4,0.5,0.3,0.7,0.1
				c1.4-1.9,1.4-4.6,1.8-6.9c0.4-2.8,0.5-5.6,0.5-8.4C327.8,288.9,327.5,288.9,327.4,289.1L327.4,289.1z"/>
			<path class="st2" d="M323.6,308.2c-0.3,0.7-0.4,1.5-0.5,2.2c-0.1,0.6-0.4,1.4,0.1,1.8c0.1,0.1,0.2,0.1,0.4,0.1
				c0.7-0.3,0.7-0.9,0.8-1.6c0.1-0.8,0.4-1.6,0.4-2.4C324.7,307.7,323.8,307.7,323.6,308.2L323.6,308.2z"/>
			<path class="st2" d="M352.8,234.2c3.4-2.8,12.6-6.1,16-1.8c0.6,0.8,2-0.2,1.4-1.1c-3.1-4.7-16.5-2.8-17.8,2.7
				C352.3,234.2,352.6,234.3,352.8,234.2L352.8,234.2z"/>
			<path class="st2" d="M369.1,245.8c-0.7,7.1-0.8,14.3-1.5,21.4c-0.7,7.5-3.3,15.6-2.8,23.2c0,0.3,0.5,0.5,0.6,0.2
				c2.7-5.8,2.7-13.2,3.4-19.5c0.9-8.3,1.7-17,1.1-25.3C369.9,245.3,369.2,245.3,369.1,245.8L369.1,245.8z"/>
			<path class="st2" d="M363.8,296.9c-1.1,2.5-1.3,5.3-1.5,8c-0.3,3.4-0.6,7.4,0.6,10.6c0.1,0.3,0.6,0.4,0.6,0c0.4-2.6-0.1-5.3,0-8
				c0-3.5,1-7,0.9-10.4C364.3,296.8,363.9,296.6,363.8,296.9L363.8,296.9z"/>
			<path class="st2" d="M363.9,320.2c0.2,1,0.8,1.9,1.3,2.7c0.4,0.8,0.7,2,1.7,2.3c0.2,0.1,0.5-0.1,0.5-0.3c0.2-0.9-0.5-1.6-0.9-2.3
				c-0.5-0.9-1-2.1-1.8-2.8C364.3,319.4,363.8,319.7,363.9,320.2L363.9,320.2z"/>
			<path class="st2" d="M458.7,249c-6.9-5.7-16.4-5-24.1-1.5c-7.4,3.3-16.8,12.6-17.8,21c0,0.4,0.5,0.6,0.7,0.3
				c2.2-2.2,3.5-5.1,5.2-7.7c2.4-3.6,5.5-6.8,9.1-9.3c7.9-5.7,17.7-6,26.3-2C458.6,249.9,459.1,249.3,458.7,249L458.7,249z"/>
			<path class="st2" d="M415.2,273.8c-2.4,2.6-3.2,6.2-3.8,9.6c-0.6,3.3-1.3,7.3-0.5,10.6c0.1,0.3,0.5,0.3,0.6,0
				c1.1-3.2,0.7-6.9,1.2-10.2c0.5-3.4,1.9-6.4,2.9-9.7C415.8,273.8,415.4,273.6,415.2,273.8L415.2,273.8z"/>
			<path class="st2" d="M411.1,299.6c-0.2,1,0,2.1,0.1,3.1c0.1,1,0.3,2,1,2.8c0.2,0.2,0.5,0.1,0.5-0.1c0.2-0.9-0.1-1.7-0.2-2.6
				c-0.2-1-0.2-2.2-0.5-3.2C411.9,299.2,411.2,299.2,411.1,299.6L411.1,299.6z"/>
			<path class="st2" d="M454.9,264.3c-1.2,3.5-1.6,7.2-2.8,10.7c-1.2,3.5-3.4,6.6-4.5,10.1c-0.2,0.6,0.6,0.9,0.9,0.6
				c4.7-4.6,7.8-15,6.9-21.4C455.4,264,454.9,264.1,454.9,264.3L454.9,264.3z"/>
			<path class="st2" d="M445.9,288.8c-0.8,0.7-1.5,1.7-2.1,2.5c-0.7,0.9-1.4,1.7-1.7,2.8c0,0.2,0.2,0.3,0.3,0.2
				c0.9-0.6,1.4-1.3,2-2.2c0.7-0.9,1.5-1.9,2-3C446.6,288.8,446.2,288.5,445.9,288.8L445.9,288.8z"/>
		</g>
		<path class="st2" d="M417.4,121.2c4.2-2,10.5-7.3,14.7-2.7c0.5,0.5,1.3,0,1.1-0.7c-0.5-2.5-3.6-3-5.8-2.7c-4,0.6-7.6,2.9-10.3,5.8
			C417,121.1,417.2,121.3,417.4,121.2L417.4,121.2z"/>
		<path class="st2" d="M415.4,139.1c-4.1,9-6,21.1-4.5,30.9c0.1,0.4,0.7,0.4,0.8,0c0.6-4.3,0.8-8.6,1.3-12.9
			c0.6-6,2.2-11.8,3.1-17.8C416.1,139,415.6,138.7,415.4,139.1L415.4,139.1z"/>
		<path class="st2" d="M411.1,175.2c0,0.6,0,1.3,0.1,1.9c0.1,0.5,0.2,1.1,0.6,1.5c0.2,0.2,0.5,0.2,0.7-0.1c0.3-0.5,0.3-1.1,0.2-1.7
			c-0.1-0.6-0.1-1.3-0.3-1.9C412.2,174.3,411.2,174.4,411.1,175.2L411.1,175.2z"/>
		<path class="st2" d="M478.1,109.6c-3.4,0.9-7.3,2-10.2,4.3c-3.6,2.8-3.8,6.4-4.5,10.8c-1.6,10.6-4.2,21.6-4.2,32.3
			c0,0.7,1,0.8,1.2,0.2c2.3-7.9,2.9-16.5,3.9-24.7c0.6-4.7,1-9.6,2-14.3c0.9-4.1,8.4-6.7,11.8-8
			C478.6,109.9,478.5,109.5,478.1,109.6L478.1,109.6z"/>
		<path class="st2" d="M459,161.5c-0.4,0.9-0.6,1.8-0.8,2.7c-0.2,0.9-0.5,1.7-0.3,2.5c0.1,0.3,0.4,0.3,0.6,0.1
			c0.5-0.7,0.6-1.5,0.7-2.3c0.2-0.9,0.5-1.9,0.5-2.8C459.6,161.4,459.1,161.2,459,161.5L459,161.5z"/>
		<path class="st2" d="M457.3,169.4c-0.2,0.4-0.5,0.9-0.2,1.4c0.1,0.1,0.2,0.2,0.4,0.1c0.4-0.2,0.5-0.8,0.6-1.3
			C458.1,169.3,457.5,169.1,457.3,169.4L457.3,169.4z"/>
		<path class="st2" d="M491.6,281c-2.3-2.3-6-1.6-8.4,0.3c-2.7,2.2-4.8,6.4-4,10c0.1,0.4,0.6,0.5,0.9,0.2c1.7-1.5,1.3-4.6,2.4-6.6
			c1.6-2.9,5.5-4.9,8.7-3.3C491.5,281.9,492,281.4,491.6,281L491.6,281z"/>
		<path class="st2" d="M478.8,294.3c-0.9,2.6-1.5,5.2-2.4,7.8c-0.8,2.3-2.3,4.3-2.5,6.7c0,0.3,0.4,0.6,0.7,0.4
			c1.8-1.4,2.6-3.6,3.4-5.6c1.2-2.9,2-6,1.9-9.1C479.8,293.8,479,293.7,478.8,294.3L478.8,294.3z"/>
		<path class="st2" d="M472.4,312.3c-0.5,0.4-1,1.1-1.4,1.6c-0.5,0.6-0.9,1.1-1,1.8c0,0.2,0.1,0.4,0.3,0.3c0.7-0.3,1.1-0.7,1.6-1.3
			c0.5-0.6,1-1.1,1.4-1.8C473.5,312.4,472.9,312,472.4,312.3L472.4,312.3z"/>
	</g>
</g>
<g>
	<path class="st3" d="M119.2,142.4c0,0,9.4,3.5,19.2,3.1l-0.8,6c-12.1,0-19.3-3.3-19.3-3.3L119.2,142.4z"/>
	<path class="st3" d="M165,147.5c0,0,6.3,0.7,13.1,0l-0.2,7c0,0-6.8,1.1-13.2,0L165,147.5z"/>
	<path class="st3" d="M204,144.6c0,0,5.1-1.5,12-2.7c0,0,0.2,4.6,0.8,6.9c0,0-5,2.1-11.5,2.4C205.3,151.3,204.4,147.6,204,144.6z"/>
	<path class="st3" d="M298.4,147.7c0,0,6.5-0.9,9.5-0.2c0,0-0.5,2.9-1.5,6c0,0-5.5-0.4-10,0L298.4,147.7z"/>
	<path class="st3" d="M316,148.6c0,0,8.7,0.5,19.2-7.3c0,0-0.6,3.1-5.2,9c0,0-9.9,4.4-15.3,4.4C314.7,154.8,314.9,152.4,316,148.6z"
		/>
	<path class="st3" d="M381.2,139.3c0,0,7.9-4,10.2-4.6c0,0,0.5,3.7,0.1,7.8c0,0-6.3,3.2-10.7,3.9
		C380.8,146.4,381.4,144.6,381.2,139.3z"/>
	<path class="st3" d="M457,182.3c0,0,11-15.6,12.4-23.8c0,0-1.7,10.1,0,15.4c0,0-3.6,6.7-8,12.2L457,182.3z"/>
	<path class="st3" d="M515.6,171.7c0,0,3.2,8.5,6.8,12.2l-4.9,4.7c0,0-5.2-4.1-7-11.1L515.6,171.7z"/>
	<path class="st3" d="M529.7,173.6c0,0-5-10.4-5.8-20.9l2.1-3.7c0,0,1.8,11.5,5.8,20.3L529.7,173.6z"/>
	<polygon class="st3" points="509.3,51 527.7,55.5 528.5,51 510,46.8 	"/>
	<path class="st3" d="M508.1,61.3c0,0,16.2,5.3,17.8,5.8l-0.5,4l-17.5-5.9"/>
	<path class="st3" d="M548.3,58.3c0,0,7.9,0.4,12.9-0.2l0.5-2.7c0,0-9.4,0.9-13.4,0.3V58.3z"/>
	<path class="st3" d="M546.3,72.2c0,0,6.4,1.5,12.7,2.1l-0.6,5.1l-12.7-2.2L546.3,72.2z"/>
	<path class="st33" d="M414.4,315.5c0,0,1.7,3.7,5.2,6.9l-1.9,1.3c0,0-4.3-5.2-4.8-7.2L414.4,315.5z"/>
	<path class="st33" d="M428.2,306.9c0,0,1.3,4,3.3,6.1l1.5-1.4l-3.4-5.9L428.2,306.9z"/>
</g>
</svg>
