<svg version="1.1" id="Layer_1" xmlns="http://www.w3.org/2000/svg" xmlns:xlink="http://www.w3.org/1999/xlink" x="0px" y="0px"
	 width="580px" 	height="320px" viewBox="0 0 999.4 294.4" style="enable-background:new 0 0 999.4 294.4;" xml:space="preserve">
<style type="text/css">
	.st2{
        fill:#96D4E4;
        fill-opacity:0;
        -moz-animation:s2 2s ease-in-out 4s forwards;
        -webkit-animation:s2 2s ease-in-out 4s forwards;
        animation:s2 2s ease-in-out 4s forwards;
    }
    .st0{
        fill:#e7e7e7;
        fill-opacity:0;
        -moz-animation:s2 2s ease-in-out 4s forwards;
        -webkit-animation:s2 2s ease-in-out 4s forwards;
        animation:s2 2s ease-in-out 4s forwards;
    }
        
    .st01{
        fill:#e7e7e7;
        fill-opacity:0;
        -moz-animation:s2 2s ease-in-out 4s forwards;
        -webkit-animation:s2 2s ease-in-out 4s forwards;
        animation:s2 2s ease-in-out 4s forwards;
    }
    .st3{
        fill:#1cafb6;
        fill-opacity:0;
        -moz-animation:s2 2s ease-in-out 5s forwards;
        -webkit-animation:s2 2s ease-in-out 5s forwards;
        animation:s2 2s ease-in-out 5s forwards;
    }
        
    .st33{
        fill:#1cafb6;
        fill-opacity:0;
        -moz-animation:s2 2s ease-in-out 6s forwards;
        -webkit-animation:s2 2s ease-in-out 6s forwards;
        animation:s2 2s ease-in-out 6s forwards;
    }
    
    @-webkit-keyframes s2{
        0%  {fill-opacity:0;}
        100%{fill-opacity:1;}
    }
    
    @-moz-keyframes s2{
        0%  {fill-opacity:0;}
        100%{fill-opacity:1;}
</style>
<path class="st0" d="M984,94.1c-9.6,5.4-14.8,12.4-26.6,16.6c-8.9,3.2-17.6,4.8-25.8,5.5c2.5-15.2,5.1-64.4-23.6-57.5
	c-16.9,4-25,29.8-28.1,50.3c-11.6-2.8-23.4-5.5-35.6-7.2c-11.1-1.4-11.4,7.1,0.5,9c15,1.8,22.6,4.6,34,8.5c-0.3,3.4-0.4,6.4-0.3,8.9
	c0.2,15-3,46,6.4,94.2l0,0c-31.7,39.5-79.1,37.8-79.1,37.8c-19.3,2.4-33.6-9.5-36-10.6c-21-18-18-58.4-0.5-72.7
	c4.8-3.7,7-5.2,11.8-7.2c33.9-14.3,50.8-5,50.8-5c12.6,3,19.2-11.2,11.9-14.5c-40.7-18.2-80,15.2-80,15.2
	c-12.9,11.8-15.4,21.3-15.4,21.3c-6.2,15.7-6.7,32.5-1.7,47.3c-1.9,4.8-5.5,12.1-10.1,14.7c-13.9,7.6-32.8,3.2-29.8-22.2
	c1.3-15.5,6.5-38.1,18.2-62.2c0.3-0.7,0.4-1.3,0.2-1.8c3.2-25.9-31.7-16.3-47.6-9.8c-13.4,5.5-21.3,16.6-21.3,16.6
	c-4.9,3.2-10.3,19.2-12.3,28.2c0,0-2.1,9.4-2.9,14.2c-1.3,7.2-2.3,14.3-2.4,19.9c0,1.4,0,2.8,0.1,4.1c0,0,0,0,0,0
	c-31.3,37-46.9-6.9-46.9-6.9c26.1-44.7,26.8-74.7,29.3-96.3c11.6,1.4,23.1,1.4,34.5-0.9c15.8-3.2,32.8-12.5,35.3-30.8
	c0.4-3.2-5-12.3-15.4-6.5c-9.6,5.4-14.8,12.4-26.6,16.6c-8.9,3.2-17.6,4.8-25.8,5.5c2.5-15.2,5.1-64.4-23.6-57.5
	c-16.9,4-25,29.8-28.1,50.3c-11.6-2.8-23.4-5.5-35.6-7.2c-11.1-1.4-11.4,7.1,0.5,9c15,1.8,22.6,4.6,34,8.5c-0.3,3.4-0.4,6.4-0.3,8.9
	c0.2,14.8-2.9,45.1,6,92.2c-4.7,4.4-14.2,12.8-22.8,17.7c-17.3,9.9-32.6,15.1-28.9-3.1c1.1-5.5,1.5-9.3,1.4-11.8
	c4.4-39.1,1.7-43.2,1.7-43.2c-1.1-14.4-1.9-30.2-14.3-32.9c-11.5-2.5-22.2,3.3-28.9,20.1c-0.6,1.5-2.8,1.2-3-0.4
	c-0.9-7.1-2.6-17.7-5.8-22c-3.8-5.2-22.2-6.5-19.6,10.3c-6.3,11.2-21.6,17.5-21.6,17.5c-4.2-12.7-11.1-19.8-21.1-26.2
	c-14.5-9.4-40.9-3.1-45,15.4c-5.2,23.6,12.8,33,34.5,32.4c6.7-0.2,13.6-1.7,20.4-3.7c1,19.6-11,40.6-26.1,52
	c-11.5,8.7-27.6,13-39.9,2.4c-1.8-1.5-3.3-3.5-4.5-5.7c-2.2-3.9-3.2-8.4-3.2-13c0-22.9,10.1-23,12.5-35.4c1.2-6.2-5.4-12.6-11.3-8.7
	c-9.6,6.6-14.7,16.2-16.5,26.8c-51.4,43.9-115.1,42.9-115.1,42.9c-41.1,5.1-69.4-18.1-74.6-20.5C99.6,193,105.9,107,143.2,76.5
	c10.3-7.9,14.9-11.1,25.1-15.4c72.2-30.5,108.2-10.7,108.2-10.7c26.8,6.4,40.8-23.9,25.3-30.8c-86.6-38.7-170.2,32.3-170.2,32.3
	c-27.4,25.1-32.8,45.4-32.8,45.4c-3.4,8.4-5.9,17.1-7.7,25.7c-6.4,24.1-12.4,74.2-17.1,88.5c-5.1,15.2-14.9,34.7-34.3,50
	c-9.8,7.7-18.5,8.4-28.2,13.6c-10.5,5.7-5.7,15.2-2.7,16.5c16.8,7.7,33.8-1.8,44.9-13.5c18.9-19.8,27.5-46.7,34.3-75
	c1.5-6.3,2.6-11.4,4-16.5c3.3,13.6,8.7,26.6,16.1,38.3c0.4,0.6,3.5,4.9,9.7,11.2c40.3,41.2,94.9,38.3,147.5,27.9
	c8.5-1.7,42.8-14.3,68.7-37.1c0.1,0.4,0.1,0.7,0.2,1.1c0.8,8.8,4.9,15.6,4.9,15.6c10.2,18.5,33.7,24.9,52.7,18.2
	c29.5-10.5,47.9-47.4,45.2-77.6c7.4-3.2,16-7.6,22-14.8c2.4,12.3,5,29.3,6.1,49.9l0.5,20.9c0,0,0,0,0,0c0,6.7-0.2,13.6-0.6,20.8
	c-0.2,3.9,7.7,6.9,9-4.8c3.9-36.1,23.6-102.5,34.2-98.5c11.8,4.5,7.4,34.5-1.7,81.9c-0.1,0.5-0.1,0.9,0,1.4
	c-0.1,7.3,1.7,39.6,42.6,17.3c14.5-7.9,25.9-16.5,31.8-21.4c7,14.7,26.5,44,62.4,16.7c6.8,12.6,19.7,15,28.8,13.6
	c9-1.4,14.4-8.2,19.5-20.3c1-2.5,4.6-2.3,5.4,0.2c5.3,16.4,37.8,27.7,56.1-0.3c0.6,0.8,2,2.5,4.2,4.9c18.9,19.4,47.6,19,72.3,14.1
	c4.5-0.9,40.3-9.2,60-28.6c7.5,15.6,28.7,46.6,68,11.6c3.4-3-2.7-21.3-10.3-13.5c-31.3,37-46.9-6.9-46.9-6.9
	c26.1-44.7,26.8-74.7,29.3-96.3c11.6,1.4,23.1,1.4,34.5-0.9c15.8-3.2,32.8-12.5,35.3-30.8C999.8,97.3,994.4,88.2,984,94.1z
	 M404.1,181.2c-6.5,0.9-13.1-2.9-14.9-9.2c-2.6-9.1,6.7-15.8,12.1-14.7c3.4,0.7,8.5,3.2,15.3,11.9c1.5,2.5,2.6,5.2,3.6,7.9
	C414.9,179.1,409.6,180.4,404.1,181.2z M592.2,101.6c1.9-7.2,4.5-14.1,8.1-20.6c5-9.1,11.6-3.6,11.7,3.6c0,6.8-0.7,18.5-2,31.7
	c-7.4-0.4-14.2-1.5-20.2-2.9C590.6,108.8,591.4,104.7,592.2,101.6z M584.6,189.4c-1.4-13,0.6-42,3.5-64.4c6.8,2,13.6,3.8,20.4,5.2
	c-2.6,21.8-6.5,44.7-10.7,56.2c-1.4,3.9-6.7,19.7-10.7,26.2C586.9,211.7,584.6,190.2,584.6,189.4z M688.9,227.7
	c-3.2,13.9-6.2,23.7-15.9,25.6c-14.3,2.8-28.1-8.6-2.2-69.5c0.1-0.2,0.2-0.4,0.2-0.6c15.1-13.8,23.7-13.3,28.5-9.1
	C698,184.8,690.5,218.2,688.9,227.7z M906.2,186.4c-1.4,3.9-6.7,19.7-10.7,26.2c-0.1-0.9-2.4-22.4-2.5-23.2c-1.4-13,0.6-42,3.5-64.4
	c6.8,2,13.6,3.8,20.4,5.2C914.3,152,910.5,174.9,906.2,186.4z M918.5,116.3c-7.4-0.4-14.2-1.5-20.2-2.9c0.8-4.7,1.6-8.8,2.4-11.9
	c1.9-7.2,4.5-14.1,8.1-20.6c5-9.1,11.6-3.6,11.7,3.6C920.5,91.5,919.8,103.1,918.5,116.3z"/>
<path class="st1"
      fill="#27bcca" 
      stroke="black"
      fill-opacity="0"
      stroke-width="2"		
      stroke-dasharray="5000"
      d="M979,86.1c-9.6,5.4-14.8,12.4-26.6,16.6c-8.9,3.2-17.6,4.8-25.8,5.5c2.5-15.2,5.1-64.4-23.6-57.5
	c-16.9,4-25,29.8-28.1,50.3c-11.6-2.8-23.4-5.5-35.6-7.2c-11.1-1.4-11.4,7.1,0.5,9c15,1.8,22.6,4.6,34,8.5c-0.3,3.4-0.4,6.4-0.3,8.9
	c0.2,15-3,46,6.4,94.2l0,0c-31.7,39.5-79.1,37.8-79.1,37.8c-19.3,2.4-33.6-9.5-36-10.6c-21-18-18-58.4-0.5-72.7
	c4.8-3.7,7-5.2,11.8-7.2c33.9-14.3,50.8-5,50.8-5c12.6,3,19.2-11.2,11.9-14.5c-40.7-18.2-80,15.2-80,15.2
	c-12.9,11.8-15.4,21.3-15.4,21.3c-6.2,15.7-6.7,32.5-1.7,47.3c-1.9,4.8-5.5,12.1-10.1,14.7c-13.9,7.6-32.8,3.2-29.8-22.2
	c1.3-15.5,6.5-38.1,18.2-62.2c0.3-0.7,0.4-1.3,0.2-1.8c3.2-25.9-31.7-16.3-47.6-9.8c-13.4,5.5-21.3,16.6-21.3,16.6
	c-4.9,3.2-10.3,19.2-12.3,28.2c0,0-2.1,9.4-2.9,14.2c-1.3,7.2-2.3,14.3-2.4,19.9c0,1.4,0,2.8,0.1,4.1c0,0,0,0,0,0
	c-31.3,37-46.9-6.9-46.9-6.9c26.1-44.7,26.8-74.7,29.3-96.3c11.6,1.4,23.1,1.4,34.5-0.9c15.8-3.2,32.8-12.5,35.3-30.8
	c0.4-3.2-5-12.3-15.4-6.5c-9.6,5.4-14.8,12.4-26.6,16.6c-8.9,3.2-17.6,4.8-25.8,5.5c2.5-15.2,5.1-64.4-23.6-57.5
	c-16.9,4-25,29.8-28.1,50.3c-11.6-2.8-23.4-5.5-35.6-7.2c-11.1-1.4-11.4,7.1,0.5,9c15,1.8,22.6,4.6,34,8.5c-0.3,3.4-0.4,6.4-0.3,8.9
	c0.2,14.8-2.9,45.1,6,92.2c-4.7,4.4-14.2,12.8-22.8,17.7c-17.3,9.9-32.6,15.1-28.9-3.1c1.1-5.5,1.5-9.3,1.4-11.8
	c4.4-39.1,1.7-43.2,1.7-43.2c-1.1-14.4-1.9-30.2-14.3-32.9c-11.5-2.5-22.2,3.3-28.9,20.1c-0.6,1.5-2.8,1.2-3-0.4
	c-0.9-7.1-2.6-17.7-5.8-22c-3.8-5.2-22.2-6.5-19.6,10.3c-6.3,11.2-21.6,17.5-21.6,17.5c-4.2-12.7-11.1-19.8-21.1-26.2
	c-14.5-9.4-40.9-3.1-45,15.4c-5.2,23.6,12.8,33,34.5,32.4c6.7-0.2,13.6-1.7,20.4-3.7c1,19.6-11,40.6-26.1,52
	c-11.5,8.7-27.6,13-39.9,2.4c-1.8-1.5-3.3-3.5-4.5-5.7c-2.2-3.9-3.2-8.4-3.2-13c0-22.9,10.1-23,12.5-35.4c1.2-6.2-5.4-12.6-11.3-8.7
	c-9.6,6.6-14.7,16.2-16.5,26.8c-51.4,43.9-115.1,42.9-115.1,42.9c-41.1,5.1-69.4-18.1-74.6-20.5C94.6,185,100.9,99,138.2,68.5
	c10.3-7.9,14.9-11.1,25.1-15.4c72.2-30.5,108.2-10.7,108.2-10.7c26.8,6.4,40.8-23.9,25.3-30.8c-86.6-38.7-170.2,32.3-170.2,32.3
	C99.2,68.9,93.8,89.3,93.8,89.3c-3.4,8.4-5.9,17.1-7.7,25.7c-6.4,24.1-12.4,74.2-17.1,88.5c-5.1,15.2-14.9,34.7-34.3,50
	c-9.8,7.7-18.5,8.4-28.2,13.6c-10.5,5.7-5.7,15.2-2.7,16.5c16.8,7.7,33.8-1.8,44.9-13.5c18.9-19.8,27.5-46.7,34.3-75
	c1.5-6.3,2.6-11.4,4-16.5c3.3,13.6,8.7,26.6,16.1,38.3c0.4,0.6,3.5,4.9,9.7,11.2c40.3,41.2,94.9,38.3,147.5,27.9
	c8.5-1.7,42.8-14.3,68.7-37.1c0.1,0.4,0.1,0.7,0.2,1.1c0.8,8.8,4.9,15.6,4.9,15.6c10.2,18.5,33.7,24.9,52.7,18.2
	c29.5-10.5,47.9-47.4,45.2-77.6c7.4-3.2,16-7.6,22-14.8c2.4,12.3,5,29.3,6.1,49.9l0.5,20.9c0,0,0,0,0,0c0,6.7-0.2,13.6-0.6,20.8
	c-0.2,3.9,7.7,6.9,9-4.8c3.9-36.1,23.6-102.5,34.2-98.5c11.8,4.5,7.4,34.5-1.7,81.9c-0.1,0.5-0.1,0.9,0,1.4
	c-0.1,7.3,1.7,39.6,42.6,17.3c14.5-7.9,25.9-16.5,31.8-21.4c7,14.7,26.5,44,62.4,16.7c6.8,12.6,19.7,15,28.8,13.6
	c9-1.4,14.4-8.2,19.5-20.3c1-2.5,4.6-2.3,5.4,0.2c5.3,16.4,37.8,27.7,56.1-0.3c0.6,0.8,2,2.5,4.2,4.9c18.9,19.4,47.6,19,72.3,14.1
	c4.5-0.9,40.3-9.2,60-28.6c7.5,15.6,28.7,46.6,68,11.6c3.4-3-2.7-21.3-10.3-13.5c-31.3,37-46.9-6.9-46.9-6.9
	c26.1-44.7,26.8-74.7,29.3-96.3c11.6,1.4,23.1,1.4,34.5-0.9c15.8-3.2,32.8-12.5,35.3-30.8C994.8,89.3,989.4,80.2,979,86.1z
	 M399.1,173.2c-6.5,0.9-13.1-2.9-14.9-9.2c-2.6-9.1,6.7-15.8,12.1-14.7c3.4,0.7,8.5,3.2,15.3,11.9c1.5,2.5,2.6,5.2,3.6,7.9
	C409.9,171.1,404.6,172.4,399.1,173.2z M587.2,93.6c1.9-7.2,4.5-14.1,8.1-20.6c5-9.1,11.6-3.6,11.7,3.6c0,6.8-0.7,18.5-2,31.7
	c-7.4-0.4-14.2-1.5-20.2-2.9C585.6,100.8,586.4,96.7,587.2,93.6z M579.6,181.4c-1.4-13,0.6-42,3.5-64.4c6.8,2,13.6,3.8,20.4,5.2
	c-2.6,21.8-6.5,44.7-10.7,56.2c-1.4,3.9-6.7,19.7-10.7,26.2C581.9,203.7,579.6,182.2,579.6,181.4z M685.9,221.7
	c-3.2,13.9-8.7,30-16.2,30c-14.6,0-29.7-15-3.9-75.9c0.1-0.2,0.2-0.4,0.2-0.6c15.1-13.8,23.7-13.3,28.5-9.1
	C693,176.8,687.5,212.2,685.9,221.7z M901.2,178.4c-1.4,3.9-6.7,19.7-10.7,26.2c-0.1-0.9-2.4-22.4-2.5-23.2c-1.4-13,0.6-42,3.5-64.4
	c6.8,2,13.6,3.8,20.4,5.2C909.3,144,905.5,166.9,901.2,178.4z M913.5,108.3c-7.4-0.4-14.2-1.5-20.2-2.9c0.8-4.7,1.6-8.8,2.4-11.9
         c1.9-7.2,4.5-14.1,8.1-20.6c5-9.1,11.6-3.6,11.7,3.6C915.5,83.5,914.8,95.1,913.5,108.3z">
    <animate 
                   attributeName="fill-opacity" 
                   from="0" 
                   to="1" 
                   dur="2s" 
                   begin="4s"
                   fill="freeze" />
             <animate 
                   attributeName="stroke" 
                   from="black" 
                   to="#27bcca" 
                   dur="2s" 
                   begin="1s"
                   fill="freeze" />
                <animate 
                   attributeName="stroke-dashoffset"
                   from="5000" 
                   to="0" 
                   dur="4s" 
                   fill="freeze"/>
    </path>
<path class="st2" d="M137.7,45.1c1.2-0.6,2.3-1.5,3.5-2.3c1.2-0.7,2.8-0.7,3.6-1.9c0.2-0.2,0.1-0.7-0.2-0.9
	c-1.3-0.9-3.1,0.1-4.3,0.7c-1.5,0.8-2.9,2.1-3.3,3.9C137,45.1,137.4,45.3,137.7,45.1L137.7,45.1z"/>
<path class="st2" d="M159.4,32.5c13.6-4.3,26.6-9.8,40.5-13.4c14.3-3.7,29.2-4.3,43.5-8c1.9-0.5,1.3-3.3-0.6-3.3
	c-14.7-0.3-29.9,4.2-44,8c-13.5,3.6-28,8.2-39.8,15.8C158.6,31.9,158.9,32.6,159.4,32.5L159.4,32.5z"/>
<path class="st2" d="M99.4,103.6c-9.8,16.5-10.8,40.8-5.3,58.8c0.1,0.4,0.9,0.2,0.8-0.2c-1.6-9.9-2.7-19.5-1.9-29.5
	c0.7-10.1,4.2-19.2,6.9-28.8C99.9,103.6,99.6,103.3,99.4,103.6L99.4,103.6z"/>
<path class="st3" d="M90.8,97.4c0,0-12.5,26.3-3.9,81.3l-3.4,13.8c0,0-4.6-21-5.1-38.2C78.3,154.3,85.6,111.5,90.8,97.4z"/>
<path class="st2" d="M67.9,223.6c-0.2,0.6-0.3,1.3-0.5,2c-0.2,0.6-0.8,1.2-0.6,1.9c0,0.1,0.2,0.3,0.3,0.2c0.8-0.1,1.1-1.1,1.3-1.7
	c0.3-0.8,0.3-1.7-0.1-2.5C68.2,223.4,68,223.5,67.9,223.6L67.9,223.6z"/>
<path class="st2" d="M65.1,231.8c-2.6,5.2-4.7,10.6-7.6,15.7c-3,5.3-7,9.8-10,15c-0.4,0.7,0.6,1.3,1.1,0.8c4.2-4.2,7.3-10,10.2-15.2
	c2.8-5,5.6-10.5,6.7-16.2C65.5,231.8,65.2,231.7,65.1,231.8L65.1,231.8z"/>
<path class="st2" d="M44.5,266.3c-4.9,3.6-8.9,7.8-14.7,10.2c-4.8,2-15.2,5.1-19.4,0.3c-0.6-0.7-1.6,0.3-1.2,1
	c3,5.4,12.8,3,17.5,1.7c7-1.8,14.4-6.6,18.3-12.8C45.2,266.5,44.8,266.1,44.5,266.3L44.5,266.3z"/>
<path class="st3" d="M329,219.1c0,0-1.2-12.7,0.1-18.2l-6.9,5.6v18.3L329,219.1z"/>
<path class="st2" d="M350.6,177.6c-2.5-2.2-6.3,1.5-8,3.2c-2.6,2.5-5.1,6.7-4.8,10.5c0,0.4,0.7,0.7,0.9,0.2c1.1-2.4,1.7-4.9,3.2-7.2
	c1.5-2.3,5.4-6.7,8.5-6.2C350.6,178.2,350.9,177.8,350.6,177.6L350.6,177.6z"/>
<path class="st2" d="M404.5,141.6c-9.3-6.2-27.3-4.5-33.4,5.7c-0.4,0.6,0.4,1.4,1,1c4.9-2.9,8.5-6.1,14.3-7.2
	c6.2-1.2,11.8,0.5,17.9,0.9C404.6,142,404.6,141.7,404.5,141.6L404.5,141.6z"/>
<path class="st2" d="M369,151.8c-4,2-4.3,10.8-1.4,13.8c0.3,0.3,1,0.1,0.9-0.4c0-2.1-0.8-4.2-0.7-6.3c0.1-2.4,1.5-4.5,1.6-6.9
	C369.4,151.8,369.2,151.7,369,151.8L369,151.8z"/>
<path class="st2" d="M369.9,171.2c0.1,1,0.7,1.9,1.3,2.6c0.7,0.7,1.6,1.4,2.6,1.4c0.7,0,1-0.8,0.6-1.3c-0.5-0.6-1.2-0.9-1.8-1.4
	c-0.5-0.5-0.9-1.2-1.4-1.8C370.8,170.1,369.8,170.6,369.9,171.2L369.9,171.2z"/>
<path class="st2" d="M404.4,176.1c12.6-2.1,27.6-5.8,38.3-13.2c0.4-0.3,0.2-1-0.3-0.8c-6.3,2.2-12.3,5.5-18.6,7.9
	c-6.3,2.4-12.8,4.2-19.4,6C404.2,175.9,404.3,176.1,404.4,176.1L404.4,176.1z"/>
<path class="st2" d="M411.6,224.5c-4.1,7.7-9.5,14.1-16.6,19.1c-7.4,5.2-15.4,6.4-24,8.2c-0.4,0.1-0.3,0.7,0.1,0.7
	c17.3,1.1,34.2-12.8,40.9-27.8C412.1,224.5,411.7,224.3,411.6,224.5L411.6,224.5z"/>
<path class="st2" d="M466.5,138.8c-3.5-2.1-7.9-2-10.9,0.9c-1.8,1.7-3.5,7.2,0,8.1c0.3,0.1,0.6-0.1,0.7-0.4c0.1-0.9,0-1.6-0.1-2.5
	c-0.1-1.2,0.5-2.5,1.2-3.5c2-2.5,6.2-2.1,9-1.8C466.7,139.6,466.9,139,466.5,138.8L466.5,138.8z"/>
<path class="st2" d="M456.8,154.3c1.5,7.8,2.6,15.7,4.5,23.4c0.1,0.5,0.8,0.4,0.9-0.1c0.4-7.8-1.5-16.3-4-23.7
	C457.9,153,456.6,153.3,456.8,154.3L456.8,154.3z"/>
<path class="st2" d="M461.8,182.7c-0.2,1,0,1.9,0.1,2.9c0.1,0.8,0.1,1.7,0.8,2.2c0.2,0.2,0.6,0.1,0.7-0.1c0.5-0.6,0.4-1.3,0.4-2.1
	c-0.1-1-0.1-2-0.5-2.9C463,182.1,461.9,181.9,461.8,182.7L461.8,182.7z"/>
<path class="st2" d="M510.4,143.2c-6.1-5.6-18.7-1.3-20.7,6.5c-0.1,0.6,0.6,1,1,0.6c2.7-2.7,4.9-5.2,8.5-6.6c3.7-1.4,7.2-0.2,11,0.1
	C510.5,143.8,510.6,143.3,510.4,143.2L510.4,143.2z"/>
<path class="st2" d="M487.6,152.4c-1.1,0.4-2.3,2.1-1.6,3.2c0.1,0.2,0.3,0.2,0.5,0.1c0.5-0.2,0.7-0.6,1-1.1c0.3-0.6,0.6-1,0.8-1.6
	C488.4,152.7,488,152.2,487.6,152.4L487.6,152.4z"/>
<path class="st2" d="M515.6,170.3c-0.8,7.9-1,15.9-1.9,23.8c-0.9,8.6-3.1,17.3-3.4,26c0,0.7,1,0.8,1.2,0.2c2.5-7.4,3-16,3.8-23.8
	c0.9-8.6,1.7-17.5,1.3-26.2C516.5,169.6,515.6,169.6,515.6,170.3L515.6,170.3z"/>
<path class="st3" d="M450.8,147l3,14.5l-5,5l-4.6-11.5C444.2,154.9,447.4,152,450.8,147z"/>
<path class="st2" d="M587.8,230.2c1.5,17.6,26,21.6,39.2,15.5c0.5-0.2,0.2-0.9-0.3-0.9c-6.9,1-13.5,2.1-20.5,0.9
	c-9.3-1.6-14.5-7.4-18-15.7C588.2,229.8,587.8,229.9,587.8,230.2L587.8,230.2z"/>
<path class="st2" d="M599,53.2c-7.2-1-15.9,6.1-17,13.3c-0.1,0.5,0.6,0.6,0.9,0.3c3.9-5.8,8.3-12.5,16-12.9
	C599.4,53.8,599.4,53.3,599,53.2L599,53.2z"/>
<path class="st2" d="M571.4,115.3c-3.6,8.6-3.8,19-4,28.2c-0.3,10.5,0.1,21.6,2.6,31.8c0.1,0.6,1.1,0.4,1.1-0.2
	c-0.3-10-1.6-20-1.7-30c0-10,2-19.7,2.7-29.6C572,115.2,571.5,115,571.4,115.3L571.4,115.3z"/>
<path class="st2" d="M613.1,129.5c-0.8,19.4-7.5,38-13.1,56.3c-0.1,0.3,0.4,0.6,0.6,0.2c4.3-9.1,6.6-19.5,8.8-29.3
	c2-8.9,3.7-18.1,3.8-27.2C613.3,129.4,613.1,129.4,613.1,129.5L613.1,129.5z"/>
<path class="st2" d="M615.1,120.5c5.8,0.2,11.6,0.8,17.4,0.6c6.1-0.2,12-1.6,18-1.8c0.8,0,0.9,1.1,0.2,1.4
	c-5.7,1.8-12.2,1.8-18.2,1.9c-5.7,0.1-11.9,0-17.4-1.7C614.8,120.8,614.8,120.5,615.1,120.5L615.1,120.5z"/>
<path class="st2" d="M655.2,118.5c5.5-2.7,11-4.2,15.9-8.2c4.1-3.3,11.6-11.1,9.3-17c-0.3-0.9,1-1.3,1.5-0.6
	c3.4,5.2-3.4,12.7-6.7,16.3c-4.9,5.3-12.6,9.6-19.9,10.1C655,119.2,654.9,118.7,655.2,118.5L655.2,118.5z"/>
<path class="st2" d="M907.3,53.2c-7.2-1-15.9,6.1-17,13.3c-0.1,0.5,0.6,0.6,0.9,0.3c3.9-5.8,8.3-12.5,16-12.9
	C907.7,53.8,907.7,53.3,907.3,53.2L907.3,53.2z"/>
<path class="st2" d="M879.6,115.3c-3.6,8.6-3.8,19-4,28.2c-0.3,10.5,0.1,21.6,2.6,31.8c0.1,0.6,1.1,0.4,1.1-0.2
	c-0.3-10-1.6-20-1.7-30c0-10,2-19.7,2.7-29.6C880.3,115.2,879.8,115,879.6,115.3L879.6,115.3z"/>
<path class="st2" d="M921.4,129.5c-0.8,19.4-7.5,38-13.1,56.3c-0.1,0.3,0.4,0.6,0.6,0.2c4.3-9.1,6.6-19.5,8.8-29.3
	c2-8.9,3.7-18.1,3.8-27.2C921.5,129.4,921.4,129.4,921.4,129.5L921.4,129.5z"/>
<path class="st2" d="M923.3,120.5c5.8,0.2,11.6,0.8,17.4,0.6c6.1-0.2,12-1.6,18-1.8c0.8,0,0.9,1.1,0.2,1.4
	c-5.7,1.8-12.2,1.8-18.2,1.9c-5.7,0.1-11.9,0-17.4-1.7C923.1,120.8,923.1,120.5,923.3,120.5L923.3,120.5z"/>
<path class="st2" d="M963.4,118.5c5.5-2.7,11-4.2,15.9-8.2c4.1-3.3,11.6-11.1,9.3-17c-0.3-0.9,1-1.3,1.5-0.6
	c3.4,5.2-3.4,12.7-6.7,16.3c-4.9,5.3-12.6,9.6-19.9,10.1C963.3,119.2,963.1,118.7,963.4,118.5L963.4,118.5z"/>
<polygon class="st3" points="570.9,212.3 582,204.6 581.5,199.6 569.7,206 "/>
<path class="st3" d="M575.8,229c0,0,5.6-3.5,11-8.4l1.8,4.2l-10.4,8.9L575.8,229z"/>
<path class="st3" d="M566.4,101c0,0,13.9,3.6,18.4,4.5l0.8-3.3l-18.4-4.6L566.4,101z"/>
<polygon class="st3" points="565.3,111.3 565,115.1 582.6,121 583.1,117 "/>
<path class="st3" d="M605,108.3c0,0,8.5,0.3,13.1-0.2l0.4-2.7l-13.3,0.3L605,108.3z"/>
<polygon class="st3" points="603.4,122.2 603,125.9 615.6,129.4 616.1,124.3 "/>
<polygon class="st3" points="879.8,214.3 890.5,204.6 889.9,199.6 878.2,206 "/>
<path class="st3" d="M884.2,229c0,0,5.6-3.5,11-8.4l1.8,4.2l-10.4,8.9L884.2,229z"/>
<path class="st3" d="M874.9,101c0,0,13.9,3.6,18.4,4.5l0.8-3.3l-18.4-4.6L874.9,101z"/>
<polygon class="st3" points="873.7,111.3 873.4,115.1 891,121 891.5,117 "/>
<path class="st3" d="M913.4,108.3c0,0,8.5,0.3,13.1-0.2l0.4-2.7l-13.3,0.3L913.4,108.3z"/>
<polygon class="st3" points="911.9,122.2 911.4,125.9 924,129.4 924.5,124.3 "/>
<path class="st3" d="M638.1,245.7c0,0-4.5-11.5-4.5-18.3l-4,4.4c0,0,0.9,7.8,4.8,16.5L638.1,245.7z"/>
<path class="st3" d="M741.6,225.7c0,0,4.4,10.8,6.4,13.2l-3.2,4.3l-6.5-10.5L741.6,225.7z"/>
<path class="st2" d="M654.4,164.6c3.7-3.8,8.3-12.1,14.6-8.9c0.7,0.4,1.4-0.6,0.9-1.2c-1.6-2.5-5.1-1.8-7.3-0.6
	c-4.1,2.3-7,6.2-8.6,10.5C654,164.6,654.2,164.8,654.4,164.6L654.4,164.6z"/>
<path class="st2" d="M647.9,179.9c-5.7,9.8-9.2,23.4-8.7,34.8c0,0.4,0.8,0.5,0.9,0.1c1.2-4.8,2-9.7,2.9-14.5
	c1.4-6.8,3.9-13.2,5.6-19.9C648.8,179.9,648.2,179.5,647.9,179.9L647.9,179.9z"/>
<path class="st2" d="M638.8,220.6c-0.1,0.7-0.1,1.5-0.1,2.2c0,0.6,0.1,1.3,0.5,1.8c0.2,0.3,0.6,0.2,0.8,0c0.4-0.5,0.4-1.3,0.4-1.9
	c0-0.7,0-1.5-0.1-2.2C640.2,219.7,639,219.8,638.8,220.6L638.8,220.6z"/>
<path class="st2" d="M715.7,148.6c-4,0.9-8.5,2-11.8,4.5c-4.2,3.1-4.7,7.2-5.6,12.1c-2.3,12.1-5.7,24.6-6.2,36.9
	c0,0.8,1.1,1,1.4,0.2c2.9-9,4-18.8,5.5-28.2c0.9-5.4,1.5-11,2.9-16.3c1.2-4.7,9.9-7.4,13.9-8.7C716.2,149.1,716.1,148.5,715.7,148.6
	L715.7,148.6z"/>
<path class="st2" d="M690.6,214.4c-0.5,1-0.7,2.1-1,3.1c-0.3,1-0.6,1.9-0.5,2.9c0,0.3,0.5,0.3,0.7,0.1c0.6-0.8,0.7-1.7,1-2.6
	c0.3-1.1,0.6-2.1,0.6-3.2C691.4,214.2,690.8,214,690.6,214.4L690.6,214.4z"/>
<path class="st2" d="M688.4,223.4c-0.3,0.5-0.6,1-0.3,1.6c0.1,0.2,0.3,0.2,0.4,0.1c0.5-0.3,0.6-0.9,0.7-1.4
	C689.2,223.2,688.6,223,688.4,223.4L688.4,223.4z"/>
<path class="st2" d="M768.2,154.9c0.8-0.3,1.4-0.8,2.2-1.2c0.7-0.4,1.7-0.3,2.2-1c0.1-0.1,0.1-0.4-0.1-0.5c-0.7-0.6-1.8-0.1-2.6,0.2
	c-0.9,0.4-1.8,1.1-2.1,2.1C767.8,154.9,768,155,768.2,154.9L768.2,154.9z"/>
<path class="st2" d="M782.4,147.3c7-1.2,13.7-2.9,20.8-3.7c7.3-0.8,14.7-0.1,21.9-0.9c1-0.1,0.9-1.5,0-1.7c-7.2-1.2-15,0-22.1,0.8
	c-6.9,0.8-14.3,2.1-20.7,5C782.1,147,782.2,147.3,782.4,147.3L782.4,147.3z"/>
<path class="st2" d="M747.2,182.9c-5.7,9.7-6.3,23.9-3.1,34.5c0.1,0.3,0.5,0.1,0.5-0.1c-0.9-5.8-1.6-11.4-1.1-17.3
	c0.4-5.9,2.5-11.3,4-16.9C747.5,182.9,747.3,182.7,747.2,182.9L747.2,182.9z"/>
<path class="st2" d="M912.1,246.1c11,9.4,27.6-2.5,31.8-13.6c0.2-0.4-0.4-0.7-0.6-0.3c-3.5,4.6-6.6,9-11.4,12.4
	c-6.3,4.4-12.7,4-19.5,1.2C912,245.6,911.9,245.9,912.1,246.1L912.1,246.1z"/>
</svg>
