<svg version="1.1" id="Layer_1" xmlns="http://www.w3.org/2000/svg" xmlns:xlink="http://www.w3.org/1999/xlink" x="0px" y="0px"
	 width="580px" 	height="320px" viewBox="0 0 617.3 517.8" style="enable-background:new 0 0 617.3 517.8;" xml:space="preserve">
<defs>
    
    <style type="text/css">
	.st3{
        fill:#96D4E4;
        fill-opacity:0;
        -moz-animation:s2 2s ease-in-out 5s forwards;
        -webkit-animation:s2 2s ease-in-out 5s forwards;
        animation:s2 2s ease-in-out 5s forwards;
    }
    .st0{
        fill:#e7e7e7;
        fill-opacity:0;
        -moz-animation:s2 2s ease-in-out 4s forwards;
        -webkit-animation:s2 2s ease-in-out 4s forwards;
        animation:s2 2s ease-in-out 4s forwards;
    }
        
    .st01{
        fill:#e7e7e7;
        fill-opacity:0;
        -moz-animation:s2 2s ease-in-out 6s forwards;
        -webkit-animation:s2 2s ease-in-out 6s forwards;
        animation:s2 2s ease-in-out 6s forwards;
    }
    .st2{
        fill:#1cafb6;
        fill-opacity:0;
        -moz-animation:s2 2s ease-in-out 4s forwards;
        -webkit-animation:s2 2s ease-in-out 4s forwards;
        animation:s2 2s ease-in-out 4s forwards;
    }
        
    .st22{
        fill:#1cafb6;
        fill-opacity:0;
        -moz-animation:s2 2s ease-in-out 6s forwards;
        -webkit-animation:s2 2s ease-in-out 6s forwards;
        animation:s2 2s ease-in-out 6s forwards;
    }
    
    @-webkit-keyframes s2{
        0%  {fill-opacity:0;}
        100%{fill-opacity:1;}
    }
    
    @-moz-keyframes s2{
        0%  {fill-opacity:0;}
        100%{fill-opacity:1;}
    }
    </style>
</defs>
<g id="full_x5F_quote">
	<g> 
        <g>
            
			<path class="st0"
                d="M617,149.5c-7.3-17-26.2-21.3-42.3-20.1c-27.3,2.1-51.7,16.2-75.7,32.6c-11.8,8.1-18.2,13.1-33.5,19.5
                c-3.1-9.4-8.3-14.7-15.7-19.5c-10.8-7-30.5-2.3-33.5,11.5c-3.9,17.6,9.5,24.6,25.7,24.1c5-0.1,10.1-1.3,15.2-2.8
                c0.8,14.6-8.2,30.2-19.4,38.7c-8.6,6.5-20.6,9.6-29.7,1.8c-1.3-1.1-2.4-2.6-3.4-4.2c-1.7-2.9-2.4-6.3-2.4-9.7
                c0-17.1,7.6-17.2,9.3-26.4c0.9-4.6-4-9.4-8.4-6.4c-11.4,7.8-14.3,21.4-12.2,34.3c-3.1,6.2-7.1,11.6-12.6,15
                c-9.7,5.9-17.5-5.1-21.9-13.6c7.9-9.2,14.9-16.3,19.5-23.5c18-28.7,28.8-60,30.7-93.7c0.6-10.4-0.8-26.1-10.7-32.7
                c-10.9-7.2-23.6,1.5-29.6,10.1c-26.3,37.7-34,100-22.1,134c-6.6,6.7-17.1,12.8-24.3,13.5c-5.8,0.5-9.9-2.4-13-6.9
                c14.8-20.4,24.1-47.4,27.3-66.9c2.5-15.2,7.1-64.4-21.6-57.5c-23.1,5.5-28.8,51.5-28.6,69.5c0.2,15.8,3.6,37.1,9.2,53.4
                c-9.5,10.4-27.1,17.6-41.3,15.4c-15-2.3-25.2-14-28.7-25.9c28.2-8.3,61-36.7,39-62.4c-9.4-11-24.5-9.2-35.1-1.7
                c-16.1,11.3-22.7,29.7-24.3,49.2c0,0.2,0,0.4,0,0.6c-0.5,0-1,0.1-1.5,0.1c-0.2,0-0.5,0-0.7,0c-0.5-0.6-0.8-0.8-1.4-1.4
                c1.7-30.7,5.3-80.8,19.9-100.9c4.3-6-20.9-1-22.1,6.3c-5.2,31.8-8.8,64-10.7,96.2c-8.8-0.2-17.5-1-26.2-2.2
                c1.1-28.1-1-57,10.8-82.7c3.9-8.5-4.2-17.8-13.1-13.1c-29.9,16-117.3,21.3-132.2-30.2c-0.4-1.7-0.6-3.5-0.8-5.4
                c-2.1-17.9,6.9-28.3,20.2-29c6.3-0.3,11.2,2,14.9,5.4c2.7,2.5,6.6,3.2,9.9,1.6c2.5-1.2,2.9-2.8,2.8-4.5
                c-0.7-13.7-9.3-25.6-22.3-29.7c-18.7-6-35,1.1-43.7,16.2C-4.9,45.5,0.4,136.4,146.8,126.3c-3.3,12.9-4.7,26-5.3,39.7
                c-0.4,9.1-0.5,18.3-0.8,27.5c-8.9-1.8-17.8-4-26.5-6.2c-34.3-8.9-73.1-8.6-88.8,29.2c-8,19.1-6.5,40.4,3.6,56.4
                c0.2,0.3,1.5,2.1,4.2,4.9c17.5,17.9,44.1,23.4,67.3,14.3c20.3-7.9,38.5-23.8,47.5-40.6c6.2-11.7,9.2-24.1,10.7-37
                c8.8,1.1,17.7,1.8,26.6,2c-0.3,6.8-0.5,13.6-0.7,20.5c-0.3,12.3-1.4,35.4,12.8,49.5c17.4,17.4,54,8.4,63.4-2.3
                c3.6-4.1-10.3-19.6-16-17.9c-6.7,2-19.1,19.8-35,10.7c-10.1-5.8-11.6-26.5-11.7-34.6c-0.1-8.6,0-17.3,0.3-25.9
                c2.1-0.1,4.2-0.2,6.3-0.3c7.7,25.9,36.1,42.9,63.4,37.4c10.2-2.1,23.9-10.1,31.8-17.7c14.3,12.9,36.1,6.8,47.6-3.7
                c0.8,1.4,17.7,29.3,42.8,11.1c2.1-1.5,3.6-3.7,5.2-5.8c7.6,13.8,24.1,15.6,38.2,10.5c22-7.8,35.7-35.3,33.6-57.8
                c16.8-7.4,32.3-16.6,47.5-25.2c13.9-7.9,34.3-15.8,58.9-14.1c12.5,0.9,19.4,6.2,30.1,8.8C615.5,162.7,618.3,152.4,617,149.5z
                 M443,188c-4.8,0.6-9.8-2.1-11.1-6.8c-2-6.8,5-11.7,9-10.9c2.5,0.5,6.3,2.4,11.4,8.8c1.1,1.9,1.9,3.9,2.7,5.9
                C451.1,186.4,447.1,187.4,443,188z M75.8,278.6c-17.8,2.2-28-4.9-30.2-5.9c-22.7-15.5-19.5-52.3-2.8-65.1
                c23.4-17.8,57.4-11.6,96.7,3.9C134.6,253.1,101.2,274.5,75.8,278.6z M249.8,164.6c5.8,5.3-2,17.1-7.9,20.8
                c-6.6,4.2-20.2,9.3-20.2,9.3C221.3,177.2,238.8,154.7,249.8,164.6z M299.4,199.6c-2-18.6,1.1-37.9,5.9-55.9
                c1.9-7.2,4.5-14.1,8.1-20.6c5-9.1,10.9-3.5,11.7,3.6c2.3,21.5-3.1,46.3-11.9,65.7c-1.7,3.8-7.7,13.7-11.7,20.2
                C301.3,211.8,299.5,200.5,299.4,199.6z M352,214.6c-10.2-30.3,13.6-117.7,36.2-127.9c13.9-6.3,3.4,41.5,2.2,47.3
                c-3.7,17.6-10.1,37.9-18.5,53.6C364,202.3,352,214.6,352,214.6z">
                
            </path>
		</g>
		<g>
			<path
                fill="#27bcca" 
                stroke="black"
                fill-opacity="0"
                stroke-width="1"		
                stroke-dasharray="4000"
                d="M614.3,142.2c-7.3-17-26.2-21.3-42.3-20.1c-27.3,2.1-51.7,16.2-75.7,32.6c-11.8,8.1-18.2,13.1-33.5,19.5
				c-3.1-9.4-8.3-14.7-15.7-19.5c-10.8-7-30.5-2.3-33.5,11.5c-3.9,17.6,9.5,24.6,25.7,24.1c5-0.1,10.1-1.3,15.2-2.8
				c0.8,14.6-8.2,30.2-19.4,38.7c-8.6,6.5-20.6,9.6-29.7,1.8c-1.3-1.1-2.4-2.6-3.4-4.2c-1.7-2.9-2.4-6.3-2.4-9.7
				c0-17.1,7.6-17.2,9.3-26.4c0.9-4.6-4-9.4-8.4-6.4c-11.4,7.8-14.3,21.4-12.2,34.3c-3.1,6.2-7.1,11.6-12.6,15
				c-9.7,5.9-17.5-5.1-21.9-13.6c7.9-9.2,14.9-16.3,19.5-23.5c18-28.7,28.8-60,30.7-93.7c0.6-10.4-0.8-26.1-10.7-32.7
				c-10.9-7.2-23.6,1.5-29.6,10.1c-26.3,37.7-33.7,101-21.8,135c-6.6,6.7-17.5,11.9-24.7,12.5c-5.8,0.5-9.6-2-12.6-6.5
				c14.8-20.4,23.8-47.9,27-67.3c2.5-15.2,7.1-64.4-21.6-57.5c-23.1,5.5-28.8,51.5-28.6,69.5c0.2,15.8,3.6,37.1,9.2,53.4
				c-9.5,10.4-27.1,17.6-41.3,15.4c-15-2.3-25.2-14-28.7-25.9c28.2-8.3,61-36.7,39-62.4c-9.4-11-24.5-9.2-35.1-1.7
				c-16.1,11.3-22.7,29.7-24.3,49.2c0,0.2,0,0.4,0,0.6c-0.8,0.1-3.7,0.2-3.7,0.2c1.7-30.7,5.4-82.2,20-102.3c4.3-6-20.9-1-22.1,6.3
				c-5.2,31.8-8.8,64-10.7,96.2c-8.8-0.2-17.5-1-26.2-2.2c1.1-28.1-1-57,10.8-82.7c3.9-8.5-4.2-17.8-13.1-13.1
				c-29.9,16-117.3,21.3-132.2-30.2c-0.4-1.7-0.6-3.5-0.8-5.4c-2.1-17.9,6.9-28.3,20.2-29c6.3-0.3,11.2,2,14.9,5.4
				c2.7,2.5,6.6,3.2,9.9,1.6c2.5-1.2,2.9-2.8,2.8-4.5C69.2,18.2,60.6,6.3,47.6,2.1c-18.7-6-35,1.1-43.7,16.2
				C-7.6,38.2-2.3,129.1,144.1,119c-3.3,12.9-4.7,26-5.3,39.7c-0.4,9.1-0.5,18.3-0.8,27.5c-8.9-1.8-17.8-4-26.5-6.2
				c-34.3-8.9-73.1-8.6-88.8,29.2c-8,19.1-6.5,40.4,3.6,56.4c0.2,0.3,1.5,2.1,4.2,4.9c17.5,17.9,44.1,23.4,67.3,14.3
				c20.3-7.9,38.5-23.8,47.5-40.6c6.2-11.7,9.2-24.1,10.7-37c8.8,1.1,17.7,1.8,26.6,2c-0.3,6.8-0.5,13.6-0.7,20.5
				c-0.3,12.3-1.4,35.4,12.8,49.5c17.4,17.4,54,8.4,63.4-2.3c3.6-4.1-10.3-19.6-16-17.9c-6.7,2-19.1,19.8-35,10.7
				c-10.1-5.8-11.6-26.5-11.7-34.6c-0.1-8.6,0-17.3,0.3-25.9c2.1-0.1,4.2-0.2,6.3-0.3c7.7,25.9,36.1,42.9,63.4,37.4
				c10.2-2.1,23.9-10.1,31.8-17.7c14.3,12.9,36.1,6.8,47.6-3.7c0.8,1.4,17.7,29.3,42.8,11.1c2.1-1.5,3.6-3.7,5.2-5.8
				c7.6,13.8,24.1,15.6,38.2,10.5c22-7.8,35.7-35.3,33.6-57.8c16.8-7.4,32.3-16.6,47.5-25.2c13.9-7.9,34.3-15.8,58.9-14.1
				c12.5,0.9,19.4,6.2,30.1,8.8C612.9,155.4,615.6,145.1,614.3,142.2z M440.3,180.7c-4.8,0.6-9.8-2.1-11.1-6.8c-2-6.8,5-11.7,9-10.9
				c2.5,0.5,6.3,2.4,11.4,8.8c1.1,1.9,1.9,3.9,2.7,5.9C448.4,179.1,444.4,180.1,440.3,180.7z M73.1,271.3c-17.8,2.2-28-4.9-30.2-5.9
				c-22.7-15.5-19.5-52.3-2.8-65.1c23.4-17.8,57.4-11.6,96.7,3.9C131.9,245.8,98.5,267.2,73.1,271.3z M247.1,157.3
				c5.8,5.3-2,17.1-7.9,20.8c-6.6,4.2-20.2,9.3-20.2,9.3C218.6,169.9,236.1,147.4,247.1,157.3z M296.7,192.3
				c-2-18.6,1.1-37.9,5.9-55.9c1.9-7.2,4.5-14.1,8.1-20.6c5-9.1,10.9-3.5,11.7,3.6c2.3,21.5-3.1,46.3-11.9,65.7
				c-1.7,3.8-7.7,13.7-11.7,20.2C298.6,204.5,296.8,193.2,296.7,192.3z M349,206.3C338.8,176,362.9,89.5,385.6,79.4
				c13.9-6.3,3.4,41.5,2.2,47.3c-3.7,17.6-10.1,37.9-18.5,53.6C361.3,195,349,206.3,349,206.3z">
                <animate 
                   attributeName="fill-opacity" 
                   from="0" 
                   to="1" 
                   dur="2s" 
                   begin="4s"
                   fill="freeze" />
                
             <animate 
                   attributeName="stroke" 
                   from="black" 
                   to="#27bcca" 
                   dur="2s" 
                   begin="1s"
                   fill="freeze" />
                <animate 
                   attributeName="stroke-dashoffset"
                   from="4300" 
                   to="0" 
                   dur="5s" 
                   fill="freeze" /> 
            </path>
            
		</g>
		<g>
			<path class="st2" d="M136.8,204.1c0,0,6.4,1.8,19.2,3.1c0,0-0.2,2.6-0.7,5.3c0,0-9.4,0.7-19.3-3.2
                                    C136.1,209.3,136.5,206.3,136.8,204.1z"></path>
			<path class="st2" d="M182.6,209.3c3.1,0,6.8,0.3,13.1,0l-0.1,5c0,0-6.6,0.8-13.2,0L182.6,209.3z"></path>
			<path class="st2" d="M202.1,209c0,0,10.2-0.1,18.5-3.1c0,0,1.1,3.5,2.2,5.7c0,0-10.1,3.1-18.6,3.1
                                    C204.2,214.7,202.4,210.7,202.1,209z"></path>
			<path class="st2" d="M298.7,205.4c0,0-2.5,5.1-8.3,11l-1-2.9c0,0,5.5-3.9,8.8-11L298.7,205.4z"></path>
			<path class="st2" d="M349,206.3c0,0-2,2.3-7.2,6.1l-1.3-3.9c0,0,3.8-0.3,7.8-4.4L349,206.3z"></path>
			<path class="st2" d="M304.5,218.4c0,0,1.4,2.2,2.8,3.3c0,0-1.5,6.3-7,9.4c0,0-2.1-1.5-3.1-2.4C297.3,228.7,301,224.8,304.5,218.4
                                    z"></path>
			<path class="st2" d="M353.8,217.1c0,0,1.2,2.5,2.5,4.4c0,0-3.1,4.3-8.5,7.4c0,0-1.6-1.9-2.8-4C344.9,225,349,221.9,353.8,217.1z"
                  ></path>
			<path class="st2" d="M454.5,187.5c0,0,3.3-1.3,10.3-4.5c0,0,0.3,3.9,0.2,6.7c0,0-6.1,3.3-10.7,4
                                    C454.3,193.7,454.7,190.6,454.5,187.5z"></path>
		</g>
		<g>
			<path class="st3" d="M146.6,120.7c-3.9,9.2-4.9,19.7-5.5,29.6c-0.3,5-0.4,10.1-0.3,15.1c0,4.9-0.5,10.4,0.9,15.2
				c0.1,0.4,0.8,0.5,0.9,0c0.9-4.3,0.2-8.9,0.1-13.3c-0.1-5,0-10.1,0.2-15.1c0.4-10.7,2.5-20.8,4.4-31.3
				C147.4,120.4,146.8,120.3,146.6,120.7L146.6,120.7z"/>
			<path class="st3" d="M250.1,169.3c0.7-1.5,1.1-3.1,1.5-4.7c0.2-0.7-0.9-1-1.1-0.3c-0.5,1.4-1.1,2.8-1.7,4.2
				C248.3,169.4,249.7,170.2,250.1,169.3L250.1,169.3z"/>
			<path class="st3" d="M230.9,187.4c5.9-2.9,11.3-6.6,15.4-11.8c0.6-0.8-0.5-1.9-1.1-1.1c-4,5.1-9.2,8.8-15,11.6
				C229.3,186.5,230,187.8,230.9,187.4L230.9,187.4z"/>
			<path class="st3" d="M183.1,195.9c10.3-0.1,20.5-0.8,30.5-2.8c1-0.2,0.6-1.7-0.4-1.5c-9.9,2.1-20,2.9-30.1,3
				C182.2,194.6,182.2,195.9,183.1,195.9L183.1,195.9z"/>
			<path class="st3" d="M93.1,181.3c16.3,2.6,32,7.1,48.1,10.8c11.8,2.7,24.2,3.5,36.3,3.9c0.9,0,0.9-1.4,0-1.4
				c-12.7-0.2-25.5-1.2-37.9-3.8C124.1,187.3,108.9,182.6,93.1,181.3C93,181.2,93,181.2,93.1,181.3L93.1,181.3z"/>
			<path class="st3" d="M57.7,180.6c-5.1,0.8-10.5,3.1-14.4,6.5c-0.2,0.2,0.1,0.5,0.3,0.3c4.7-2.4,9.3-4.6,14.2-6.6
				C57.9,180.8,57.9,180.6,57.7,180.6L57.7,180.6z"/>
			<path class="st3" d="M37.9,191c-8.9,6.5-14.9,19.2-16,30c0,0.3,0.4,0.3,0.5,0.1c1.4-5.6,3-10.9,5.6-16.1
				c2.7-5.2,6.6-9.2,10.1-13.7C38.2,191.1,38,190.9,37.9,191L37.9,191z"/>
			<path class="st3" d="M53.3,12.8c-7.6-9.2-23.1-8.8-32.5-3c-0.6,0.4-0.2,1.2,0.5,1.1c5.5-1,10.7-2.5,16.3-2.5
				c5.6,0,10.6,2.2,15.2,5C53.2,13.8,53.6,13.2,53.3,12.8L53.3,12.8z"/>
			<path class="st3" d="M13.1,14.4C9,17.2,5.4,22.6,5.8,27.7c0,0.5,0.6,0.5,0.8,0.1c0.9-2.1,1.6-4.3,2.6-6.4
				c1.2-2.3,2.9-4.3,4.6-6.2C14.2,14.8,13.6,14.1,13.1,14.4L13.1,14.4z"/>
			<path class="st3" d="M5.4,36.2c-0.2,0.9-0.4,2.6,0.4,3.3c0.2,0.2,0.4,0.1,0.5-0.1c0.2-0.4,0.1-0.8,0-1.3
				c-0.1-0.6-0.1-1.2-0.1-1.8C6.3,35.8,5.5,35.7,5.4,36.2L5.4,36.2z"/>
			<path class="st3" d="M211.2,90.4c-3.7,1-9.4,2.1-12.4,4.7c-3,2.5-2.4,8.9-2.9,12.5c-1.6,11.5-4.1,23.4-4.1,35
				c0,0.5,0.8,0.6,0.9,0.1c2.6-9.3,3.3-19.2,4.7-28.7c0.6-4.5,1.3-9,1.9-13.5c0.7-5.4,8.1-6.9,12.3-9.5
				C211.8,90.8,211.6,90.3,211.2,90.4L211.2,90.4z"/>
			<path class="st3" d="M190.7,151.8c-1,5.4-2.4,11-2.5,16.5c0,0.4,0.6,0.5,0.7,0.1c1.4-5.3,1.6-11.1,2-16.5
				C191,151.7,190.8,151.6,190.7,151.8L190.7,151.8z"/>
			<path class="st3" d="M185.5,219c-0.9,6.2-1.1,12.5-1.5,18.8c-0.4,5.9-0.4,11.8,2,17.3c0.1,0.3,0.5,0.1,0.4-0.2
				c-2.6-12.1-0.3-23.7-0.6-35.9C185.9,218.9,185.5,218.8,185.5,219L185.5,219z"/>
			<path class="st3" d="M136.4,221.9c-2.5,5.8-5.2,11.5-8.8,16.7c-3.9,5.7-8.8,10.3-13.7,15c-0.2,0.2,0.1,0.6,0.3,0.4
				c10.7-7.1,19.1-19.8,22.4-32.1C136.7,221.8,136.5,221.7,136.4,221.9L136.4,221.9z"/>
			<path class="st3" d="M163.9,99.9c-4.2-5.1-12.5-0.8-15.3,3.7c-0.3,0.5,0.3,1,0.8,0.8c1.9-0.9,3.5-2.5,5.3-3.6
				c2.7-1.6,6-1.7,8.8-0.3C163.9,100.7,164.2,100.2,163.9,99.9L163.9,99.9z"/>
			<path class="st3" d="M253.2,143.7c-16.7-11.7-38.2,7.1-42.6,23.2c-0.2,0.6,0.6,0.9,0.9,0.4c4.2-6.9,8-13.5,14.3-18.8
				c8.3-7,17.2-7.3,27.1-4.3C253.3,144.3,253.4,143.9,253.2,143.7L253.2,143.7z"/>
			<path class="st3" d="M317.3,96.9c-6.7-2.6-15.5,2.8-18,9.2c-0.2,0.5,0.5,0.8,0.8,0.5c4.8-4.6,9.5-10.3,17-9.1
				C317.6,97.6,317.7,97.1,317.3,96.9L317.3,96.9z"/>
			<path class="st3" d="M296.5,110.8c-5.1,8.1-7.4,18.2-9.5,27.4c-2.1,9.3-3.5,19.4-2.6,28.9c0.1,0.7,1,0.7,1.1,0
				c1.1-9.5,1.5-19,3.4-28.4c1.9-9.5,5.7-18.3,8.1-27.7C297.2,110.7,296.7,110.5,296.5,110.8L296.5,110.8z"/>
			<path class="st3" d="M284.7,175.6c0.2,6.6,0.5,13.4,1.5,19.8c0.1,0.3,0.6,0.2,0.6-0.1c0.1-6.5-0.7-13.3-1.5-19.8
				C285.3,175.2,284.7,175.2,284.7,175.6L284.7,175.6z"/>
			<path class="st3" d="M325.7,126.7c-0.5,13.4-4.3,26-6.3,39.2c-0.1,0.4,0.5,0.6,0.6,0.2c3.9-12.5,6-26.3,5.9-39.4
				C325.9,126.6,325.7,126.6,325.7,126.7L325.7,126.7z"/>
			<path class="st3" d="M308.1,192.9c-3.2,5.6-6.2,11.3-9.9,16.5c-5.2,7.3-11.8,12.5-18.9,17.8c-0.4,0.3-0.1,0.9,0.4,0.6
				c13.9-6.8,22.9-21,28.8-34.8C308.6,192.9,308.3,192.7,308.1,192.9L308.1,192.9z"/>
			<path class="st3" d="M275.8,230.3c-0.6,0.1-1.2,0.4-1.8,0.6c-0.6,0.2-1.2,0.3-1.7,0.7c-0.2,0.2-0.1,0.5,0.2,0.6
				c0.6,0.2,1.3,0,1.8-0.2c0.7-0.2,1.3-0.5,1.9-1C276.5,230.7,276.2,230.2,275.8,230.3L275.8,230.3z"/>
			<path class="st3" d="M386.3,69.1c-6.8-2.5-16.8,2.5-19.4,9.2c-0.2,0.5,0.5,0.8,0.8,0.5c5-4.8,10.8-10.4,18.5-9.1
				C386.6,69.8,386.7,69.3,386.3,69.1L386.3,69.1z"/>
			<path class="st3" d="M364.2,83c-6.3,6.9-10,16.6-13.3,25.2c-3.8,9.8-7.1,20.4-8.2,30.9c-0.1,0.6,0.9,0.7,1.1,0.1
				c3.1-9.5,5.1-19.4,8.5-28.8c3.3-9.5,8.4-17.9,12.4-27C364.8,83,364.5,82.7,364.2,83L364.2,83z"/>
			<path class="st3" d="M341.3,146.3c-1.2,7-2.5,14.2-2.7,21.3c0,0.3,0.5,0.4,0.6,0.1c1.6-6.9,2.2-14.3,2.7-21.3
				C342,146,341.4,145.9,341.3,146.3L341.3,146.3z"/>
			<path class="st3" d="M394.7,98.9c-0.6,19.4-7.2,38-12.6,56.4c-0.1,0.3,0.4,0.6,0.6,0.2c4.2-9.2,6.4-19.6,8.6-29.4
				c1.9-8.9,3.6-18.1,3.6-27.3C394.9,98.8,394.7,98.8,394.7,98.9L394.7,98.9z"/>
			<path class="st3" d="M377.1,167c-9.1,19.5-19.7,39.1-39,50.1c-0.4,0.2-0.1,0.8,0.3,0.7c8.3-3.2,14.9-9.9,20.4-16.7
				c8.1-10,14.2-21.8,18.7-33.9C377.6,166.9,377.2,166.8,377.1,167L377.1,167z"/>
			<path class="st3" d="M336.8,217.6c-0.5,0-2.6,0.8-2.1,1.6c0.5,0.8,2.1-0.5,2.5-1C337.3,218,337,217.6,336.8,217.6L336.8,217.6z"
				/>
			<path class="st3" d="M404.4,183.3c-1.9-1.7-4.9,1.2-6.3,2.5c-2,2-4,5.2-3.8,8.2c0,0.3,0.5,0.6,0.7,0.2c0.8-1.9,1.4-3.8,2.5-5.6
				c1.2-1.8,4.2-5.2,6.6-4.8C404.4,183.7,404.6,183.4,404.4,183.3L404.4,183.3z"/>
			<path class="st3" d="M444.7,156c-7.2-4.8-21.2-3.5-25.9,4.4c-0.3,0.5,0.3,1.1,0.8,0.8c3.8-2.3,6.6-4.8,11.1-5.6
				c4.8-0.9,9.2,0.4,13.9,0.7C444.8,156.3,444.8,156.1,444.7,156L444.7,156z"/>
			<path class="st3" d="M417.1,164c-3.1,1.6-3.3,8.4-1.1,10.7c0.3,0.3,0.7,0.1,0.7-0.3c0-1.7-0.6-3.2-0.6-4.9c0-1.9,1.2-3.5,1.2-5.3
				C417.4,164,417.3,163.9,417.1,164L417.1,164z"/>
			<path class="st3" d="M417.8,179.1c0.1,0.8,0.5,1.5,1,2.1c0.5,0.6,1.2,1.1,2,1.1c0.6,0,0.8-0.6,0.4-1c-0.4-0.5-0.9-0.7-1.4-1.1
				c-0.4-0.4-0.7-0.9-1.1-1.4C418.6,178.2,417.8,178.5,417.8,179.1L417.8,179.1z"/>
			<path class="st3" d="M445.4,181.3c9.8-1.6,21.4-4.5,29.8-10.2c0.3-0.2,0.1-0.8-0.3-0.6c-4.9,1.7-9.6,4.3-14.5,6.1
				c-4.9,1.9-10,3.3-15.1,4.6C445.3,181.2,445.3,181.3,445.4,181.3L445.4,181.3z"/>
			<path class="st3" d="M481.8,167.1c1.5-0.2,2.8-1.3,4-2c1.1-0.7,2.6-1.3,3.3-2.4c0.2-0.3,0-0.7-0.4-0.7c-1.4,0.2-2.5,1.2-3.6,1.9
				c-1.2,0.8-2.7,1.6-3.6,2.8C481.4,167,481.6,167.2,481.8,167.1L481.8,167.1z"/>
			<path class="st3" d="M531.1,137.4c0.6-0.3,1.2-0.7,1.8-1c0.6-0.3,1.4-0.3,1.8-0.8c0.1-0.1,0.1-0.3-0.1-0.4
				c-0.6-0.5-1.5-0.1-2.1,0.2c-0.8,0.3-1.5,0.9-1.7,1.8C530.8,137.4,531,137.5,531.1,137.4L531.1,137.4z"/>
			<path class="st3" d="M539.1,134c5.6-1.6,11-3.6,16.7-4.9c5.9-1.3,12-1.4,17.9-2.7c0.8-0.2,0.6-1.3-0.2-1.4
				c-6-0.3-12.3,1.3-18.1,2.7c-5.6,1.3-11.5,3-16.5,6C538.8,133.7,538.9,134,539.1,134L539.1,134z"/>
			<path class="st3" d="M578.4,126c6,1.2,11.7,1.4,17.4,4c4.8,2.2,14,7.8,13.3,14.2c-0.1,0.9,1.3,1,1.6,0.2
				c2-5.8-6.4-11.5-10.5-14.1c-6.1-4-14.6-6.2-21.8-4.9C578.1,125.4,578.1,125.9,578.4,126L578.4,126z"/>
			<path class="st3" d="M448.7,213.5c-3.2,6-7.4,11-12.9,14.9c-5.8,4.1-12,4.9-18.7,6.4c-0.3,0.1-0.2,0.5,0.1,0.5
				c13.4,0.9,26.6-9.9,31.8-21.6C449.1,213.5,448.8,213.3,448.7,213.5L448.7,213.5z"/>
			<path class="st3" d="M387.2,220.4c-1.8,2.4-3.5,4.8-5.4,7.1c-2,2.4-4.5,3.7-7,5.4c-0.2,0.2-0.1,0.6,0.2,0.5
				C380.8,231.9,384.7,225.2,387.2,220.4C387.3,220.4,387.2,220.3,387.2,220.4L387.2,220.4z"/>
		</g>
	</g>
	<path class="st01" d="M610.7,410.3c-1.5-2.4-10.3-5.6-14.1,4.2c-1.9,4.9-2.8,9.4-3.9,14c-5.6,23.6-19,25.1-24.2,26.5
		c-7.3,1.9-14.4-3-14.6-10.4c-0.3-7.5,23.3-44.8,32-59c6.7-11,5-31.2-21.5-13.6c-10.5,7-16.1,11.6-29.6,17.2c0,0,0,0,0,0
		c-2.8-8.3-7.3-13-13.9-17.3c-9.5-6.2-26.9-2-29.6,10.1c-3.4,15.5,8.4,21.7,22.7,21.3c4.4-0.1,8.9-1.1,13.4-2.5
		c-0.3,37.9-34.3,33.2-56,29.5c6.7-11.1,10-24.4,8.9-36.3l-2-8.8c-3.1-9.4-8.3-14.7-15.7-19.5c-10.8-7-28.4-1.7-33.5,11.5
		c-7.7,19.8,6.6,43.8,13.7,52l8.7,7.1c-8.6,6.5-21.6,10.6-30.7,2.8c-1.3-1.1-2.4-2.6-3.4-4.2c-1.7-2.9-2.4-6.3-2.4-9.7
		c0-17.1,7.6-17.2,9.3-26.4c0.9-4.6-4-9.4-8.4-6.4c-11.4,7.8-14.3,21.4-12.2,34.3c-3.1,6.2-7.1,11.6-12.6,15
		c-9.7,5.9-17.5-5.1-21.9-13.6c7.9-9.2,14.9-16.3,19.5-23.5c18-28.7,28.8-60,30.7-93.7c0.6-10.4-0.8-26.1-10.7-32.7
		c-10.9-7.2-23.6,1.5-29.6,10.1c-26.3,37.7-33.7,101-21.8,135c-6.6,6.7-17.5,11.9-24.7,12.5l-12.2,2.4c2.8-12.5,6.3-31.4,7.8-54.8
		c0.4-5.8-0.9-14.4-3.1-18.1c-1.2-2-4.7-3.5-8.2-3.5l0,0c0,0-5.2-12,2.4-19.4c0.3-0.3,0.5-0.5,0.7-0.7c3.3-3.1,5.4-7.4,5.4-12.3
		c0-9.3-7.5-16.8-16.8-16.8s-16.8,7.5-16.8,16.8c0,8,5.6,14.6,13,16.3c1.4,0.6,9.2,4.4,9.5,16.5c0,0,0,0,0,0
		c-3.7,1-6.6,4.3-5.6,11.5c0.9,6.4,1.5,36.7,2,49.8c-2.8,0.7-13.7,17.1-22,22.5c-10.6,6.8-21.4,9.1-20.1-21.4
		c1.1-12.9,5.1-31.2,14.1-50.9c0.7-1.3,1.5-2.9,2.2-4.6c0.1-0.2,0.2-0.4,0.2-0.6c13.6-35.5-61.5,5.1-61.5,5.1c0,0,0,0,0,0
		c-7.4,4-18.4,7.3-30.9,9.2c0,0,0,0,0,0c-8.1-8.9-20.3-16.8-37.1-24.1c-18.3-7.9-30.2-18.5-33.6-29.7c-2.1-6.9-0.9-13.7,3.4-20.4
		c3.6-5.4,9.6-9.5,17-11.6c8.5-1.8,12.6-1.7,17.2-1.4c6.4,0.7,12.4,2.7,17.7,5.9c9.3,5.8,13.6,13.4,11.6,20.4
		c-2.2,7.5-11,12.6-22.1,12.6c-6,0-12.5-1.4-19.1-4.2c-0.6-0.3-1.3-0.4-1.9-0.4c-2.4,0-4.8,2-5.3,4.6c-0.4,2.2,0.7,4.1,2.8,5
		c7.2,3.3,14.7,5,22.1,5c21,0,35.8-13,39.5-25.9c3.2-10.9-1.2-21.1-12-27.9c-8.3-5.2-19.2-8.1-30.7-8.3c-4.7,0-9.5-0.6-19.2,2.2
		c-14.2,3.6-26.1,11.3-32.8,21.8c-8.1,12.4-10.5,25.3-7.1,37.3c3.9,13.8,15.5,25.6,33.4,34.1c25.8,12,54.1,28.4,47.9,59.1
		c0,0,0,0,0,0c-25.6-25.5-55.8-40-83.8-40c-20.7,0-36.6,8.3-43.7,22.7c-5.4,10.7-5.7,22.8-0.8,34c6.7,15.5,22.2,27.8,42.5,33.6
		c7.4,2.1,15.1,3.2,22.9,3.2c29.7,0,56.3-18.1,69.8-35.1c28.9,30.5,123.6,85.6,216.1,51.9c21.3-7.8,32-21,29.6-34.6
		c-0.5-3.2-6.6-11.6-16.1-4.4c-8.8,6.6-13.1,14.1-24.2,19.9C320,528.5,211.1,466.9,195.9,450c3.2-4.8,5-8.8,6.3-13.5
		c3.9-14.3,4.3-26.6,0.5-37.3c2.9,0,6.1-0.1,10-0.4l0,0c-1.1,4.2-1.9,8.4-2.6,12.6c-1.2,6.5-2.1,12.8-2.1,17.7
		c-0.5,28.7,18.2,33.9,29.8,32.1c8-1.2,12.9-7.3,17.4-18.1c0.9-2.2,4.1-2.1,4.8,0.2c6.6,20.2,22.7,18.4,29.5,15.1
		c4.6-2.3,16.5-15.3,21.6-23.1c0,0-0.5,6-0.5,6c-0.5,5.4-1.1,10.9-2,16.7c-0.4,3.2,5.7,6.1,7.6-3.2c0,0,1.3-3.8,3-10.7
		c13.8,6.9,31.4,1.1,41.4-8c0.8,1.4,17.7,29.3,42.8,11.1c2.1-1.5,3.6-3.7,5.2-5.8c7.6,13.8,24.1,15.6,38.2,10.5
		c7.4-2.6,13.8-7.5,19.1-13.6c17.5,5.3,75.1,12.8,70.6-41.2c0,0,0,0,0,0c8.7-3.9,15.9-7.6,24.8-10.1c5.7-1.6,6.2,3.7,4.5,7.9
		c-1.7,4.2-10.6,27.1-13.8,33.5c-2.9,5.9-6,13.5-4.4,20.2c3.2,13.2,15.3,15.5,27.2,14.1c18.5-2.1,33.9-14.6,38-26.9
		C615.3,427.9,615.8,418.6,610.7,410.3z M513.7,395c-2.9,0.3-5.7-1-7.3-3.3c-5-7.4,2.5-13.3,6.6-12.5c2.2,0.4,5.6,2.1,10.1,7.8
		c1,1.7,1.7,3.4,2.4,5.2C521.6,393.6,517.7,394.6,513.7,395z M126.6,475.3c-5.8,0-11.5-0.8-16.9-2.3c-13.4-3.8-23.9-12.6-28.8-24.2
		c-4.1-9.8-3.7-20.3,1-28.9c5.1-9.2,46.9-31.9,99.2,25.8C170.8,460.7,147.3,475.3,126.6,475.3z M254.7,427.7
		c-2.2,11.8-5.2,19.9-14.9,22.6c-12.5,3.6-26.1-9.3-3-63.6c0-0.1,0-0.1,0.1-0.2c15.8-17.3,24.2-8.6,24.2-8.6s0.5,0.5,1.3,1.1
		C260.7,389.6,256.1,419.5,254.7,427.7z M364.5,417.3c-10.2-30.3,13.9-116.7,36.6-126.9c13.9-6.3,3.4,41.5,2.2,47.3
		c-3.7,17.6-10.1,37.9-18.5,53.6C376.9,406.1,364.5,417.3,364.5,417.3z M448.1,416.9c-6.3-11.9-6.3-11.9-8.3-24.6
		c-1.6-9.9,7-20.2,11-19.4c2.5,0.5,10.3,3.4,15.4,9.8c5.3,29.1,0.5,37.9-4.4,43.6c-0.6,0.7-1.9,1.9-2.9,2.2c-0.4,0-0.8,0-1.1,0
		C454.3,426.5,449.6,419.8,448.1,416.9z"/>
	<path 
          fill="#27bcca" 
                stroke="black"
                fill-opacity="0"
                stroke-width="1"		
                stroke-dasharray="4000"
          stroke-dashoffset="4000"
          d="M607.7,404.3c-1.5-2.4-10.3-5.6-14.1,4.2c-1.9,4.9-2.8,9.4-3.9,14c-5.6,23.6-19,25.1-24.2,26.5
		c-7.3,1.9-14.4-3-14.6-10.4c-0.3-7.5,23.3-44.8,32-59c6.7-11,5-31.2-21.5-13.6c-10.5,7-16.1,11.6-29.6,17.2c0,0,0,0,0,0
		c-2.8-8.3-7.3-13-13.9-17.3c-9.5-6.2-26.9-2-29.6,10.1c-3.4,15.5,8.4,21.7,22.7,21.3c4.4-0.1,8.9-1.1,13.4-2.5
		c-0.3,37.9-34.3,33.2-56,29.5c6.7-11.1,10-24.4,8.9-36.3l-2-8.8c-3.1-9.4-8.3-14.7-15.7-19.5c-10.8-7-28.4-1.7-33.5,11.5
		c-7.7,19.8,6.6,43.8,13.7,52l8.7,7.1c-8.6,6.5-21.6,10.6-30.7,2.8c-1.3-1.1-2.4-2.6-3.4-4.2c-1.7-2.9-2.4-6.3-2.4-9.7
		c0-17.1,7.6-17.2,9.3-26.4c0.9-4.6-4-9.4-8.4-6.4c-11.4,7.8-14.3,21.4-12.2,34.3c-3.1,6.2-7.1,11.6-12.6,15
		c-9.7,5.9-17.5-5.1-21.9-13.6c7.9-9.2,14.9-16.3,19.5-23.5c18-28.7,28.8-60,30.7-93.7c0.6-10.4-0.8-26.1-10.7-32.7
		c-10.9-7.2-23.6,1.5-29.6,10.1c-26.3,37.7-33.7,101-21.8,135c-6.6,6.7-17.5,11.9-24.7,12.5l-12.2,2.4c2.8-12.5,6.3-31.4,7.8-54.8
		c0.4-5.8-0.9-14.4-3.1-18.1c-1.2-2-4.7-3.5-8.2-3.5l0,0c0,0-5.2-12,2.4-19.4c0.3-0.3,0.5-0.5,0.7-0.7c3.3-3.1,5.4-7.4,5.4-12.3
		c0-9.3-7.5-16.8-16.8-16.8s-16.8,7.5-16.8,16.8c0,8,5.6,14.6,13,16.3c1.4,0.6,9.2,4.4,9.5,16.5c0,0,0,0,0,0
		c-3.7,1-6.6,4.3-5.6,11.5c1.3,9.7,3.5,27.5,2.7,50.8c0,0.1-9.1,17-18.7,23.2c-10.6,6.8-25.3,7.4-24-23.1
		c1.1-12.9,5.1-31.2,14.1-50.9c0.7-1.3,1.5-2.9,2.2-4.6c0.1-0.2,0.2-0.4,0.2-0.6c13.6-35.5-61.5,5.1-61.5,5.1c0,0,0,0,0,0
		c-7.4,4-18.4,7.3-30.9,9.2c0,0,0,0,0,0c-8.1-8.9-20.3-16.8-37.1-24.1c-18.3-7.9-30.2-18.5-33.6-29.7c-2.1-6.9-0.9-13.7,3.4-20.4
		c3.6-5.4,9.6-9.5,17-11.6c8.5-1.8,12.6-1.7,17.2-1.4c6.4,0.7,12.4,2.7,17.7,5.9c9.3,5.8,13.6,13.4,11.6,20.4
		c-2.2,7.5-11,12.6-22.1,12.6c-6,0-12.5-1.4-19.1-4.2c-0.6-0.3-1.3-0.4-1.9-0.4c-2.4,0-4.8,2-5.3,4.6c-0.4,2.2,0.7,4.1,2.8,5
		c7.2,3.3,14.7,5,22.1,5c21,0,35.8-13,39.5-25.9c3.2-10.9-1.2-21.1-12-27.9c-8.3-5.2-19.2-8.1-30.7-8.3c-4.7,0-9.5-0.6-19.2,2.2
		c-14.2,3.6-26.1,11.3-32.8,21.8c-8.1,12.4-10.5,25.3-7.1,37.3c3.9,13.8,15.5,25.6,33.4,34.1c25.8,12,54.1,28.4,47.9,59.1
		c0,0,0,0,0,0c-25.6-25.5-55.8-40-83.8-40c-20.7,0-36.6,8.3-43.7,22.7c-5.4,10.7-5.7,22.8-0.8,34c6.7,15.5,22.2,27.8,42.5,33.6
		c7.4,2.1,15.1,3.2,22.9,3.2c29.7,0,56.3-18.1,69.8-35.1c28.9,30.5,123.6,85.6,216.1,51.9c21.3-7.8,32-21,29.6-34.6
		c-0.5-3.2-6.6-11.6-16.1-4.4c-8.8,6.6-13.1,14.1-24.2,19.9C317,522.5,208.1,460.9,192.9,444c3.2-4.8,5-8.8,6.3-13.5
		c3.9-14.3,4.3-26.6,0.5-37.3c2.9,0,6.1-0.1,10-0.4l0,0c-1.1,4.2-1.9,8.4-2.6,12.6c-1.2,6.5-2.1,12.8-2.1,17.7
		c-0.5,28.7,18.2,33.9,29.8,32.1c8-1.2,12.9-7.3,17.4-18.1c0.9-2.2,4.1-2.1,4.8,0.2c6.6,20.2,22.7,18.4,29.5,15.1
		c4.6-2.3,16.5-15.3,21.6-23.1c0,0-0.5,6-0.5,6c-0.5,5.4-1.1,10.9-2,16.7c-0.4,3.2,5.7,6.1,7.6-3.2c0,0,1.3-3.8,3-10.7
		c13.8,6.9,31.4,1.1,41.4-8c0.8,1.4,17.7,29.3,42.8,11.1c2.1-1.5,3.6-3.7,5.2-5.8c7.6,13.8,24.1,15.6,38.2,10.5
		c7.4-2.6,13.8-7.5,19.1-13.6c17.5,5.3,75.1,12.8,70.6-41.2c0,0,0,0,0,0c8.7-3.9,15.9-7.6,24.8-10.1c5.7-1.6,6.2,3.7,4.5,7.9
		c-1.7,4.2-10.6,27.1-13.8,33.5c-2.9,5.9-6,13.5-4.4,20.2c3.2,13.2,15.3,15.5,27.2,14.1c18.5-2.1,33.9-14.6,38-26.9
		C612.3,421.9,612.8,412.6,607.7,404.3z M510.7,389c-2.9,0.3-5.7-1-7.3-3.3c-5-7.4,2.5-13.3,6.6-12.5c2.2,0.4,5.6,2.1,10.1,7.8
		c1,1.7,1.7,3.4,2.4,5.2C518.6,387.6,514.7,388.6,510.7,389z M123.6,469.3c-5.8,0-11.5-0.8-16.9-2.3c-13.4-3.8-23.9-12.6-28.8-24.2
		c-4.1-9.8-3.7-20.3,1-28.9c5.1-9.2,46.9-31.9,99.2,25.8C167.8,454.7,144.3,469.3,123.6,469.3z M251.7,421.7
		c-2.9,12.4-7.8,26.8-14.5,26.8c-13,0-26.6-13.4-3.5-67.7c0-0.1,0-0.1,0.1-0.2c15.8-17.3,24.2-8.6,24.2-8.6s0.5,0.5,1.3,1.1
		C257.7,383.6,253.1,413.5,251.7,421.7z M361.5,411.3c-10.2-30.3,13.9-116.7,36.6-126.9c13.9-6.3,3.4,41.5,2.2,47.3
		c-3.7,17.6-10.1,37.9-18.5,53.6C373.9,400.1,361.5,411.3,361.5,411.3z M445.1,410.9c-6.3-11.9-6.3-11.9-8.3-24.6
		c-1.6-9.9,7-20.2,11-19.4c2.5,0.5,10.3,3.4,15.4,9.8c5.3,29.1,0.5,37.9-4.4,43.6c-0.6,0.7-1.9,1.9-2.9,2.2c-0.4,0-0.8,0-1.1,0
             C451.3,420.5,446.6,413.8,445.1,410.9z">
    <animate 
                   attributeName="fill-opacity" 
                   from="0" 
                   to="1" 
                   dur="2s" 
                   begin="6s"
                   fill="freeze" />
                
             <animate 
                   attributeName="stroke" 
                   from="black" 
                   to="#27bcca" 
                   dur="2s" 
                   begin="3s"
                   fill="freeze" />
                <animate 
                   attributeName="stroke-dashoffset"
                   from="4000" 
                   to="0" 
                    begin="2s"
                   dur="5s" 
                   fill="freeze" /> 
    </path>
	<g>
		<g>
			<path class="st3" d="M144.4,328.3c10.7,4.6,26.6,8.4,36.7,0.3c0.3-0.2,0-0.7-0.3-0.6c-6.1,2.5-11.2,4.3-17.9,4.2
				c-6.3-0.1-12.5-2-18.4-4.2C144.3,327.9,144.2,328.2,144.4,328.3L144.4,328.3z"/>
			<path class="st3" d="M149.6,375.2c0.7,0.4,1.4,0.9,2.1,1.3c0.9,0.6,1.7-0.7,1-1.4c-0.6-0.6-1.1-1.1-1.8-1.7
				c-0.5-0.4-1.1-0.5-1.5,0C148.9,374,149,374.8,149.6,375.2L149.6,375.2z"/>
			<path class="st3" d="M115.3,351.7c6.8,8.1,16,12.8,25,18c1.3,0.8,2.6-1.3,1.2-2.1c-8.9-5-18-9.5-24.7-17.4
				C115.9,349.1,114.4,350.6,115.3,351.7L115.3,351.7z"/>
			<path class="st3" d="M135.6,283.8c-10,3.1-18.6,9.6-24.4,18.2c-7.3,10.7-8.1,23.4-4,35.5c0.5,1.3,2.6,0.7,2.1-0.6
				c-7.8-22.5,5.2-44,26.5-52.5C136.1,284.2,135.9,283.7,135.6,283.8L135.6,283.8z"/>
			<path class="st3" d="M139.7,404.6c1.5,0.7,2.9,1.4,4.5,1.8c0.5,0.1,1.1-0.6,0.6-1c-1.3-1-2.7-1.7-4.2-2.3
				C139.6,402.6,138.7,404.1,139.7,404.6L139.7,404.6z"/>
			<path class="st3" d="M117.7,397.1c5.8,1.3,11.4,3.1,16.9,5.3c1.1,0.4,1.5-1.3,0.5-1.7c-5.5-2.2-11.1-4-16.9-5.3
				C117.1,395.2,116.7,396.9,117.7,397.1L117.7,397.1z"/>
			<path class="st3" d="M55.2,436.4c0.8-2.3,0.4-4.8,0.6-7.2c0.2-2.9,1.1-5.7,2-8.4c1.8-4.9,5-9.1,8.7-12.6
				c6.6-6.4,14.9-9.8,23.9-11.3c2.1-0.3,1.2-3.6-0.9-3.2c-10,1.8-18.6,5.9-25.8,13.2c-3.7,3.8-6.5,8.3-8.3,13.2
				c-1.7,4.5-3.4,12-0.9,16.3C54.7,436.8,55.1,436.7,55.2,436.4L55.2,436.4z"/>
		</g>
		<path class="st3" d="M263.8,354.7c4.5-0.9,12-4.5,14.9,1c0.3,0.6,1.2,0.3,1.3-0.4c0.1-2.6-2.7-3.8-4.9-4.1
			c-4-0.4-8.1,0.9-11.4,3.1C263.5,354.5,263.6,354.7,263.8,354.7L263.8,354.7z"/>
		<path class="st3" d="M298.7,313.5c4.5-0.9,12-4.5,14.9,1c0.3,0.6,1.2,0.3,1.3-0.4c0.1-2.6-2.7-3.8-4.9-4.1
			c-4-0.4-8.1,0.9-11.4,3.1C298.4,313.3,298.5,313.5,298.7,313.5L298.7,313.5z"/>
		<path class="st3" d="M213.7,393.9c-4.1,9-6,21.1-4.5,30.9c0.1,0.4,0.7,0.4,0.8,0c0.6-4.3,0.8-8.6,1.3-12.9
			c0.6-6,2.2-11.8,3.1-17.8C214.5,393.8,213.9,393.4,213.7,393.9L213.7,393.9z"/>
		<path class="st3" d="M209.4,430c0,0.6,0,1.3,0.1,1.9c0.1,0.5,0.2,1.1,0.6,1.5c0.2,0.2,0.5,0.2,0.7-0.1c0.3-0.5,0.3-1.1,0.2-1.7
			c-0.1-0.6-0.1-1.3-0.3-1.9C210.5,429,209.5,429.2,209.4,430L209.4,430z"/>
		<path class="st3" d="M276,369.5c-3.4,0.9-7.3,2-10.2,4.3c-3.6,2.8-3.8,6.4-4.5,10.8c-1.6,10.6-4.2,21.6-4.2,32.3
			c0,0.7,1,0.8,1.2,0.2c2.3-7.9,2.9-16.5,3.9-24.7c0.6-4.7,1-9.6,2-14.3c0.9-4.1,8.4-6.7,11.8-8C276.5,369.9,276.4,369.4,276,369.5
			L276,369.5z"/>
		<path class="st3" d="M256.9,421.5c-0.4,0.9-0.6,1.8-0.8,2.7c-0.2,0.9-0.5,1.7-0.3,2.5c0.1,0.3,0.4,0.3,0.6,0.1
			c0.5-0.7,0.6-1.5,0.7-2.3c0.2-0.9,0.5-1.9,0.5-2.8C257.5,421.3,257,421.1,256.9,421.5L256.9,421.5z"/>
		<path class="st3" d="M255.2,429.4c-0.2,0.4-0.5,0.9-0.2,1.4c0.1,0.1,0.2,0.2,0.4,0.1c0.4-0.2,0.5-0.8,0.6-1.3
			C255.9,429.2,255.4,429.1,255.2,429.4L255.2,429.4z"/>
		<path class="st3" d="M319.9,360.7c-2.6-1.9-6.1-2.2-8.7,0c-1.5,1.2-3.3,5.4-0.6,6.4c0.2,0.1,0.5,0,0.6-0.3c0.2-0.7,0.1-1.3,0.1-2
			c0-1,0.5-2,1.2-2.7c1.8-1.8,5-1.2,7.2-0.8C320,361.4,320.1,360.9,319.9,360.7L319.9,360.7z"/>
		<path class="st3" d="M311,372.2c0.7,6.2,0.9,12.6,1.9,18.8c0.1,0.4,0.6,0.3,0.7,0c0.8-6.2,0-13-1.5-19
			C312,371.3,311,371.5,311,372.2L311,372.2z"/>
		<path class="st3" d="M313,395.1c-0.2,0.7-0.2,1.5-0.2,2.3c0,0.7,0,1.3,0.5,1.8c0.1,0.1,0.4,0.1,0.6,0c0.5-0.4,0.4-1,0.4-1.6
			c0-0.8,0.1-1.6-0.2-2.3C314,394.7,313.2,394.4,313,395.1L313,395.1z"/>
		<path class="st3" d="M401.4,274.4c-4.8-4.4-14.8-1-16.5,5.2c-0.1,0.4,0.4,0.8,0.8,0.4c2.1-2.1,3.9-4.2,6.8-5.3
			c2.9-1.1,5.8-0.2,8.7,0.1C401.5,274.9,401.6,274.5,401.4,274.4L401.4,274.4z"/>
		<path class="st3" d="M383.3,281.7c-0.9,0.4-1.8,1.6-1.3,2.6c0.1,0.2,0.3,0.2,0.4,0.1c0.4-0.2,0.6-0.5,0.8-0.9
			c0.2-0.4,0.5-0.8,0.6-1.3C383.9,281.9,383.6,281.6,383.3,281.7L383.3,281.7z"/>
		<path class="st3" d="M514.6,366.9c-4.9-2.5-11.5-2.2-16.4,0.2c-4.1,2-8.7,7.6-7.6,12.3c0.1,0.5,0.8,0.6,1.1,0.1
			c2.4-4.3,3.1-7.8,7.6-10.6c4.4-2.7,10.4-1.4,15.2-1.6C514.7,367.3,514.8,367,514.6,366.9L514.6,366.9z"/>
		<path class="st3" d="M491.6,382.3c-0.6,1.8,0.2,3.9,1,5.6c0.7,1.6,2.3,4.3,4.2,4.7c0.4,0.1,0.7-0.3,0.5-0.7
			c-0.3-0.7-0.7-0.9-1.2-1.4c-0.8-0.8-1.5-1.7-2.1-2.7c-1.1-1.8-1-3.7-1.8-5.5C492,382,491.7,382.1,491.6,382.3L491.6,382.3z"/>
		<path class="st3" d="M582.4,364.5c-1-2.9-5.2-2.7-7.7-2.6c-3.9,0.2-8.1,1.7-10.9,4.5c-0.8,0.8,0.2,2,1.1,1.5
			c4.5-2.7,11.9-6.6,17-3C582.2,365.1,582.5,364.8,582.4,364.5L582.4,364.5z"/>
		<path class="st3" d="M560.1,369.8c-3.5,1.7-6.8,4-10.2,5.9c-4.8,2.8-9.8,5-14.6,7.8c-0.6,0.3-0.2,1.3,0.4,1.1
			c8.7-3,17.6-8.6,24.8-14.2C560.9,370.1,560.5,369.6,560.1,369.8L560.1,369.8z"/>
		<path class="st3" d="M532.6,384.8c-1.9,0.6-3.8,1.2-5.7,1.8c-1.9,0.6-4.2,1-5.8,2.1c-0.3,0.2-0.2,0.7,0.2,0.7
			c2,0.1,4.1-0.9,5.9-1.6c1.9-0.7,3.7-1.7,5.5-2.7C533,385.1,532.8,384.7,532.6,384.8L532.6,384.8z"/>
		<path class="st3" d="M565,388.7c-2.3,4.7-4.2,9.6-6.2,14.5c-2.2,5.3-5.1,10.8-6.2,16.4c-0.1,0.4,0.5,0.7,0.7,0.3
			c2.8-4.4,4.2-9.7,6.1-14.5c2.1-5.4,4.4-10.9,6.1-16.4C565.6,388.6,565.2,388.4,565,388.7L565,388.7z"/>
		<path class="st3" d="M550.5,423.6c-0.4,0.2-0.6,0.6-0.8,1c-0.2,0.5-0.4,1-0.4,1.5c0,0.3,0.4,0.4,0.6,0.3c0.4-0.3,0.6-0.7,0.8-1.1
			c0.2-0.5,0.4-0.9,0.3-1.4C551,423.6,550.7,423.5,550.5,423.6L550.5,423.6z"/>
		<path class="st3" d="M605.4,406.8c-2.3-2.3-6-1.6-8.4,0.3c-2.7,2.2-4.8,6.4-4,10c0.1,0.4,0.6,0.5,0.9,0.2c1.7-1.5,1.3-4.6,2.4-6.6
			c1.6-2.9,5.5-4.9,8.7-3.3C605.3,407.6,605.7,407.1,605.4,406.8L605.4,406.8z"/>
		<path class="st3" d="M592.5,420c-0.9,2.6-1.5,5.2-2.4,7.8c-0.8,2.3-2.3,4.3-2.5,6.7c0,0.3,0.4,0.6,0.7,0.4
			c1.8-1.4,2.6-3.6,3.4-5.6c1.2-2.9,2-6,1.9-9.1C593.5,419.5,592.7,419.5,592.5,420L592.5,420z"/>
		<path class="st3" d="M586.1,438.1c-0.5,0.4-1,1.1-1.4,1.6c-0.5,0.6-0.9,1.1-1,1.8c0,0.2,0.1,0.4,0.3,0.3c0.7-0.3,1.1-0.7,1.6-1.3
			c0.5-0.6,1-1.1,1.4-1.8C587.3,438.1,586.6,437.7,586.1,438.1L586.1,438.1z"/>
		<path class="st3" d="M186,414.1c-0.1,10.9-0.7,20.2-6.6,29.8c-5.1,8.4-13,13-21.2,17.7c-0.7,0.4-0.2,1.4,0.5,1.2
			c19.1-4.5,33.9-30.1,28.1-48.8C186.6,413.6,186,413.7,186,414.1L186,414.1z"/>
		<path class="st3" d="M151.9,465.6c-3.3,1-6.4,2.5-9.7,3.5c-3.8,1.2-7.7,1.6-11.6,2.5c-0.7,0.2-0.5,1.2,0.2,1.2
			c6.9,0,15.8-2.5,21.5-6.5C152.6,466.1,152.4,465.4,151.9,465.6L151.9,465.6z"/>
		<path class="st3" d="M124.9,472.7c-0.9-0.1-1.8-0.2-2.6-0.3c-0.7-0.1-1.3-0.5-2-0.2c-0.2,0.1-0.3,0.4-0.2,0.5c0.2,0.9,1.3,1,2,1.1
			c1,0.1,1.9-0.1,2.9-0.4C125.4,473.3,125.3,472.7,124.9,472.7L124.9,472.7z"/>
		<path class="st3" d="M430.5,473.1c2.3-3.4-1.3-8.4-5.1-8.4c-5.5,0-11.3,5.2-13.2,10.2c-0.2,0.5,0.5,0.9,0.9,0.7
			c3-2,4.9-5.4,7.8-7.6c2.2-1.6,5.3-1.9,7.5-0.1c1.6,1.3,1.3,3.5,1.9,5.2C430.3,473.2,430.5,473.2,430.5,473.1L430.5,473.1z"/>
		<path class="st3" d="M404.1,482.2c-11.3,7.6-24.4,11.7-37.7,14.3c-7.6,1.5-15.3,2.3-23.1,2.7c-7.6,0.4-15.1-0.4-22.7-0.4
			c-0.6,0-0.8,1-0.2,1.1c14.7,3.5,31.8,1,46.4-1.7c13.2-2.5,27.3-6.6,37.9-15.1C405.3,482.7,404.6,481.8,404.1,482.2L404.1,482.2z"
			/>
		<path class="st3" d="M307.7,499c-3.9-1.5-8.5-3.3-12.6-3.5c-0.5,0-0.6,0.7-0.2,0.9c3.7,1.8,8.6,2.6,12.7,3.2
			C307.9,499.6,308,499.1,307.7,499L307.7,499z"/>
		<path class="st3" d="M289,494.8c-0.8-0.9-2.5-1.8-3.7-1c-0.3,0.2-0.3,0.7,0.1,0.8c0.5,0.2,1,0.2,1.5,0.3c0.5,0.1,1,0.3,1.5,0.6
			C288.9,495.9,289.4,495.2,289,494.8L289,494.8z"/>
	</g>
	<g>
		<path class="st3" d="M378.6,288.2c-6.3,6.9-10,16.6-13.3,25.2c-3.8,9.8-7.1,20.4-8.2,30.9c-0.1,0.6,0.9,0.7,1.1,0.1
			c3.1-9.5,5.1-19.4,8.5-28.8c3.3-9.5,8.4-17.9,12.4-27C379.3,288.3,378.9,287.9,378.6,288.2L378.6,288.2z"/>
		<path class="st3" d="M355.7,351.5c-1.2,7-2.5,14.2-2.7,21.3c0,0.3,0.5,0.4,0.6,0.1c1.6-6.9,2.2-14.3,2.7-21.3
			C356.4,351.3,355.8,351.2,355.7,351.5L355.7,351.5z"/>
		<path class="st3" d="M417.2,389.7c-1.9-1.7-4.9,1.2-6.3,2.5c-2,2-4,5.2-3.8,8.2c0,0.3,0.5,0.6,0.7,0.2c0.8-1.9,1.4-3.8,2.5-5.6
			c1.2-1.8,4.2-5.2,6.6-4.8C417.2,390.1,417.4,389.9,417.2,389.7L417.2,389.7z"/>
		<path class="st3" d="M458.7,362.5c-7.2-4.8-21.2-3.5-25.9,4.4c-0.3,0.5,0.3,1.1,0.8,0.8c3.8-2.3,6.6-4.8,11.1-5.6
			c4.8-0.9,9.2,0.4,13.9,0.7C458.7,362.8,458.8,362.6,458.7,362.5L458.7,362.5z"/>
		<path class="st3" d="M431.7,370c-3.4,0.6-5.8,7-4.3,9.9c0.2,0.3,0.7,0.3,0.8-0.1c0.5-1.6,0.4-3.3,1-4.9c0.6-1.8,2.2-3,2.8-4.7
			C431.9,370.1,431.8,370,431.7,370L431.7,370z"/>
		<path class="st3" d="M427.5,382.8c-0.3,0.7-0.2,1.6,0.1,2.3c0.2,0.7,0.7,1.5,1.4,1.8c0.5,0.2,1-0.2,0.8-0.8
			c-0.2-0.6-0.6-1-0.8-1.6c-0.2-0.6-0.2-1.2-0.4-1.7C428.5,382.4,427.6,382.4,427.5,382.8L427.5,382.8z"/>
		<path class="st3" d="M474,404.5c-1.1,2.8-2.1,5.6-3.3,8.3c-1.3,2.8-3.3,4.8-5.2,7.1c-0.2,0.2,0.1,0.6,0.3,0.4
			C470.9,417.3,472.9,409.8,474,404.5C474.1,404.4,474,404.4,474,404.5L474,404.5z"/>
	</g>
	<path class="st22" d="M178.1,439.6c0,0,2.4-3.3,3.2-8.6l-4.4-4.2l-3.6,7.7L178.1,439.6z"/>
	<polygon class="st22" points="188.2,449.4 192.9,444 196.5,447.4 191.8,453 	"/>
	<path class="st22" d="M189.8,376.9c0,0,5.6,6,9.9,16.3l7.9-0.2c0,0-1.4-10.7-10.1-17.5L189.8,376.9z"/>
	<path class="st22" d="M209.7,392.8c0,0,9.9-1.2,23.6-11.7l-2.8,9l-22.2,8.9L209.7,392.8z"/>
	<polygon class="st22" points="354.3,417.4 361.5,411.3 360.2,405.9 353.8,413.5 	"/>
	<path class="st22" d="M366.3,422.2c0,0-4.6,4.4-8.8,7.8l3.1,4.4l7.7-8.8L366.3,422.2z"/>
	<path class="st22" d="M448.6,430.3c0,0,7.3,3.2,14.2,1.9c0,0-2.9,3.4-4.8,4.8c0,0-11.5-2.1-12.2-4.8L448.6,430.3z"/>
	<polygon class="st22" points="524.3,394.9 533.4,391 533.2,398.9 524.1,399.7 	"/>
</g>
</svg>
