<svg version="1.1" id="Layer_1" xmlns="http://www.w3.org/2000/svg" xmlns:xlink="http://www.w3.org/1999/xlink" x="0px" y="0px"
	 width="580px" 	height="320px" viewBox="0 0 645.3 290.9" style="enable-background:new 0 0 645.3 290.9;" xml:space="preserve">
<style type="text/css">
	.st2{
        fill:#96D4E4;
        fill-opacity:0;
        -moz-animation:s2 2s ease-in-out 4s forwards;
        -webkit-animation:s2 2s ease-in-out 4s forwards;
        animation:s2 2s ease-in-out 4s forwards;
    }
    .st0{
        fill:#e7e7e7;
        fill-opacity:0;
        -moz-animation:s2 2s ease-in-out 4s forwards;
        -webkit-animation:s2 2s ease-in-out 4s forwards;
        animation:s2 2s ease-in-out 4s forwards;
    }
        
    .st01{
        fill:#e7e7e7;
        fill-opacity:0;
        -moz-animation:s2 2s ease-in-out 4s forwards;
        -webkit-animation:s2 2s ease-in-out 4s forwards;
        animation:s2 2s ease-in-out 4s forwards;
    }
    .st3{
        fill:#1cafb6;
        fill-opacity:0;
        -moz-animation:s2 2s ease-in-out 5s forwards;
        -webkit-animation:s2 2s ease-in-out 5s forwards;
        animation:s2 2s ease-in-out 5s forwards;
    }
        
    .st33{
        fill:#1cafb6;
        fill-opacity:0;
        -moz-animation:s2 2s ease-in-out 6s forwards;
        -webkit-animation:s2 2s ease-in-out 6s forwards;
        animation:s2 2s ease-in-out 6s forwards;
    }
    
    @-webkit-keyframes s2{
        0%  {fill-opacity:0;}
        100%{fill-opacity:1;}
    }
    
    @-moz-keyframes s2{
        0%  {fill-opacity:0;}
        100%{fill-opacity:1;}
</style>
<path class="st0" d="M641.1,282c-14.7-6.9-25.5-14.2-29-18c2.1-3.1,3.3-5.7,4.1-8.8c2.5-9.3,2.8-17.3,0.3-24.3l-6.4-10.6
	c0,0,0,0,0,0c-5.3-5.8-13.2-10.9-24.2-15.7c-11.9-5.2-19.7-12.1-21.9-19.4c-1.3-4.5-0.6-9,2.2-13.3c2.3-3.5,6.3-6.2,11.1-7.6
	c5.6-1.2,8.2-1.1,11.2-0.9c4.1,0.5,8.1,1.8,11.5,3.9c6.1,3.8,8.9,8.8,7.6,13.3c-1.4,4.9-7.2,8.2-14.4,8.2c-3.9,0-8.1-0.9-12.5-2.7
	c-0.4-0.2-0.8-0.3-1.3-0.3c-1.6,0-3.1,1.3-3.4,3c-0.3,1.4,0.5,2.7,1.8,3.3c4.7,2.2,9.5,3.3,14.4,3.3c13.7,0,23.3-8.5,25.7-16.9
	c2.1-7.1-0.8-13.8-7.8-18.2c-5.4-3.4-12.5-5.3-20-5.4c-3.1,0-6.2-0.4-12.5,1.4c-9.3,2.3-17,7.3-21.4,14.2
	c-5.3,8.1-6.9,16.5-4.6,24.3c2.5,9,10.1,16.7,21.8,22.2c16.8,7.8,35.3,18.5,31.2,38.5c0,0,0,0,0,0c-16.7-16.6-36.4-26.1-54.6-26.1
	c-12.1,0-21.7,4.4-26.9,12c0.6-5.2,0.2-9.9-1.3-14.2c-2.2-6.4-5.9-9.8-5.9-9.8c0,0,0,0,0,0c-4.9-5.4-12.2-10.1-22.2-14.4
	c-11-4.8-18.1-11.1-20.1-17.8c-1.2-4.1-0.5-8.2,2-12.2c2.1-3.3,5.8-5.7,10.2-7c5.1-1.1,7.6-1,10.3-0.9c3.8,0.4,7.4,1.6,10.6,3.6
	c5.6,3.5,8.2,8,7,12.2c-1.3,4.5-6.6,7.5-13.2,7.5c-3.6,0-7.5-0.8-11.5-2.5c-0.4-0.2-0.8-0.3-1.2-0.3c-1.5,0-2.9,1.2-3.2,2.7
	c-0.2,1.3,0.4,2.5,1.7,3c4.3,2,8.8,3,13.2,3c12.6,0,21.4-7.8,23.7-15.5c1.9-6.5-0.7-12.6-7.2-16.7c-5-3.1-11.5-4.9-18.4-5
	c-2.8,0-5.7-0.4-11.5,1.3c-8.5,2.1-15.6,6.8-19.7,13.1c-4.8,7.4-6.3,15.2-4.3,22.3c2.3,8.3,9.3,15.3,20,20.4
	c12.7,5.9,26.5,13.6,28.8,26.4c-6.1,36.4-58.7,30-72.8,27.9c-15-2.3-24.2-15-27.7-26.9c28.2-8.3,61-36.7,39-62.4
	c-9.4-11-24.5-9.2-35.1-1.7c-16.1,11.3-22.7,29.7-24.3,49.2c0,0.2,0,0.4,0,0.6l1.9,17.5c0.2,0.6,0.4,1.1,0.6,1.7c0,0,0,0,0,0
	c-7.1,17.9-46.5,26.6-46.5,26.6c-17.8,2.2-28-4.9-30.2-5.9c-22.4-15.3-19.6-51.3-3.4-64.6c4.2-2.4,8.4-4.8,12.6-7.1
	c25.7-14.4,45.2-6.7,45.2-6.7c11.6,2.8,16-9,13.1-10.4c-32.3-15.8-74.2,14-74.2,14c-11.8,8.1-18.2,13.1-33.5,19.5
	c-3.1-9.4-8.3-14.7-15.7-19.5c-10.8-7-30.5-2.3-33.5,11.5c-3.9,17.6,9.5,24.6,25.7,24.1c5-0.1,10.1-1.3,15.2-2.8
	c0.8,14.6-8.2,30.2-19.4,38.7c-8.6,6.5-20.6,9.6-29.7,1.8c-1.3-1.1-2.4-2.6-3.4-4.2c-1.7-2.9-2.4-6.3-2.4-9.7
	c0-17.1,7.6-17.2,9.3-26.4c0.9-4.6-4-9.4-8.4-6.4c-11.4,7.8-14.3,21.4-12.2,34.3c-3.1,6.2-7.1,11.6-12.6,15
	c-9.7,5.9-25.3-2.8-18.9-18.5c7.6-14.3,19.8-33.9,25.6-43.3c6.7-11,5-31.2-21.5-13.6c-10.5,7-16.1,11.6-29.6,17.2c0,0,0,0,0,0
	c-2.8-8.3-7.3-13-13.9-17.3c-9.5-6.2-26.9-2-29.6,10.1c-3.4,15.5,8.4,21.7,22.7,21.3c4.4-0.1,8.9-1.1,13.4-2.5
	c-0.4,46.7-54.3,37.1-71.1,14.5c2-10.3,3.1-20.9,3.6-31.8c0.4-9.1,0.8-20.4,1.1-29.6c0,0,90.3-7.1,117-67.4
	c8.4-18.9,6.5-40.4-3.6-56.4c-0.2-0.3-1.5-2.1-4.2-4.9c-17.5-17.9-44.1-23.4-67.3-14.3c-14.5,5.7-27.9,15.4-37.7,26.6
	c-12.1-2.5-20.8-5.7-36-20.4c-9-8.7-10.8-17.3-17.3-26.2C14,2.6,5.3,8.6,4.3,11.7C-1,29.4,10.6,44.9,23.6,54.4
	c17.7,12.8,24,16.6,40.5,19.1c-6,11.5-8.9,23.7-10.4,36.3l-1.3,17.6c-1.1,28.1-1,103.5-12.8,129.3c-3.9,8.5,4.2,17.8,13.1,13.1
	c0,0,6.2-2,10.3-21.5c20.1,25.9,87.4,27.1,82.7-30c0,0,0,0,0,0c8.7-3.9,15.9-7.6,24.8-10.1c5.7-1.6,6.2,3.7,4.5,7.9
	c-1.7,4.2-10.6,27.1-13.8,33.5c-0.9,1.9-1.6,3.9-2,5.9h0c-4.2,12.5,16.2,36.6,41.3,18.4c2.1-1.5,3.6-3.7,5.2-5.8
	c7.6,13.8,24.1,15.6,38.2,10.5c22-7.8,35.7-35.3,33.6-57.8c6.1-2.7,12-5.6,17.8-8.6c-7.5,18.9-6,39.6,4,55.4
	c0.2,0.3,1.5,2.1,4.2,4.9c17.5,17.9,43.8,22.6,67.3,14.3c4.1-1.4,20.1-10.3,31.4-23.3c0.1-0.1,0.2-0.3,0.3-0.4
	c12.5,13.2,32.7,19.4,52.9,20.3c7,0.3,19.7,1.6,33-4.1c11.3-3.8,20.8-11.3,26.5-18.4l2.8-3.2c0.4-0.5,0.7-1.1,1-1.6
	c0.1,3.4,0.8,6.9,2.2,10.2c4.4,10.1,14.5,18.1,27.7,21.9c4.8,1.4,9.8,2.1,14.9,2.1c19.3,0,36.7-11.8,45.5-22.9
	c5.8,6.1,15.6,13.7,28.2,20.7c0,0,5.2,2.2,7.3-0.3C646.8,285.1,643.4,283.1,641.1,282z M253,218.6c-4.8,0.6-9.8-2.1-11.1-6.8
	c-2-6.8,5-11.7,9-10.9c2.5,0.5,6.3,2.4,11.4,8.8c1.1,1.9,1.9,3.9,2.7,5.9C261.1,217,257.1,218,253,218.6z M122.9,216.3
	c-2.9,0.3-5.7-1-7.3-3.3c-5-7.4,2.5-13.3,6.6-12.5c2.2,0.4,5.6,2.1,10.1,7.8c1,1.7,1.7,3.4,2.3,5.2
	C130.8,214.9,127,215.9,122.9,216.3z M136.7,45.8c17.8-2.2,28,4.9,30.2,5.9c22.7,15.5,10.2,56.1,0.8,65.1
	c-26.1,25-62.1,40.7-96.4,43.6C73.6,118.3,68.3,48.6,136.7,45.8z M437.1,193.4c5.8,5.3-2,17.1-7.9,20.8c-6.6,4.2-20.2,9.3-20.2,9.3
	C408.5,206,426.1,183.5,437.1,193.4z M566.9,280.5c-3.8,0-7.5-0.5-11-1.5c-8.8-2.5-15.6-8.2-18.8-15.8c-2.7-6.4-2.4-13.2,0.6-18.8
	c3.3-6,30.6-20.8,64.6,16.8C595.7,271,580.4,280.5,566.9,280.5z"/>
<path class="st1"
      fill="#27bcca" 
      stroke="black"
      fill-opacity="0"
      stroke-width="2"		
      stroke-dasharray="3800"
      d="M638.1,275c-14.7-6.9-25.5-14.2-29-18c2.1-3.1,3.3-5.7,4.1-8.8c2.5-9.3,2.8-17.3,0.3-24.3l-6.4-10.6
	c0,0,0,0,0,0c-5.3-5.8-13.2-10.9-24.2-15.7c-11.9-5.2-19.7-12.1-21.9-19.4c-1.3-4.5-0.6-9,2.2-13.3c2.3-3.5,6.3-6.2,11.1-7.6
	c5.6-1.2,8.2-1.1,11.2-0.9c4.1,0.5,8.1,1.8,11.5,3.9c6.1,3.8,8.9,8.8,7.6,13.3c-1.4,4.9-7.2,8.2-14.4,8.2c-3.9,0-8.1-0.9-12.5-2.7
	c-0.4-0.2-0.8-0.3-1.3-0.3c-1.6,0-3.1,1.3-3.4,3c-0.3,1.4,0.5,2.7,1.8,3.3c4.7,2.2,9.5,3.3,14.4,3.3c13.7,0,23.3-8.5,25.7-16.9
	c2.1-7.1-0.8-13.8-7.8-18.2c-5.4-3.4-12.5-5.3-20-5.4c-3.1,0-6.2-0.4-12.5,1.4c-9.3,2.3-17,7.3-21.4,14.2
	c-5.3,8.1-6.9,16.5-4.6,24.3c2.5,9,10.1,16.7,21.8,22.2c16.8,7.8,35.3,18.5,31.2,38.5c0,0,0,0,0,0c-16.7-16.6-36.4-26.1-54.6-26.1
	c-12.1,0-21.7,4.4-26.9,12c0.6-5.2,0.2-9.9-1.3-14.2c-2.2-6.4-5.9-9.8-5.9-9.8c0,0,0,0,0,0c-4.9-5.4-12.2-10.1-22.2-14.4
	c-11-4.8-18.1-11.1-20.1-17.8c-1.2-4.1-0.5-8.2,2-12.2c2.1-3.3,5.8-5.7,10.2-7c5.1-1.1,7.6-1,10.3-0.9c3.8,0.4,7.4,1.6,10.6,3.6
	c5.6,3.5,8.2,8,7,12.2c-1.3,4.5-6.6,7.5-13.2,7.5c-3.6,0-7.5-0.8-11.5-2.5c-0.4-0.2-0.8-0.3-1.2-0.3c-1.5,0-2.9,1.2-3.2,2.7
	c-0.2,1.3,0.4,2.5,1.7,3c4.3,2,8.8,3,13.2,3c12.6,0,21.4-7.8,23.7-15.5c1.9-6.5-0.7-12.6-7.2-16.7c-5-3.1-11.5-4.9-18.4-5
	c-2.8,0-5.7-0.4-11.5,1.3c-8.5,2.1-15.6,6.8-19.7,13.1c-4.8,7.4-6.3,15.2-4.3,22.3c2.3,8.3,9.3,15.3,20,20.4
	c12.7,5.9,26.5,13.6,28.8,26.4c-6.1,36.4-58.7,30-72.8,27.9c-15-2.3-24.2-15-27.7-26.9c28.2-8.3,61-36.7,39-62.4
	c-9.4-11-24.5-9.2-35.1-1.7c-16.1,11.3-22.7,29.7-24.3,49.2c0,0.2,0,0.4,0,0.6l1.9,17.5c0.2,0.6,0.4,1.1,0.6,1.7c0,0,0,0,0,0
	c-7.1,17.9-46.5,26.6-46.5,26.6c-17.8,2.2-28-4.9-30.2-5.9c-22.4-15.3-19.6-51.3-3.4-64.6c4.2-2.4,8.4-4.8,12.6-7.1
	c25.7-14.4,45.2-6.7,45.2-6.7c11.6,2.8,16-9,13.1-10.4c-32.3-15.8-74.2,14-74.2,14c-11.8,8.1-18.2,13.1-33.5,19.5
	c-3.1-9.4-8.3-14.7-15.7-19.5c-10.8-7-30.5-2.3-33.5,11.5c-3.9,17.6,9.5,24.6,25.7,24.1c5-0.1,10.1-1.3,15.2-2.8
	c0.8,14.6-8.2,30.2-19.4,38.7c-8.6,6.5-20.6,9.6-29.7,1.8c-1.3-1.1-2.4-2.6-3.4-4.2c-1.7-2.9-2.4-6.3-2.4-9.7
	c0-17.1,7.6-17.2,9.3-26.4c0.9-4.6-4-9.4-8.4-6.4c-11.4,7.8-14.3,21.4-12.2,34.3c-3.1,6.2-7.1,11.6-12.6,15
	c-9.7,5.9-25.3-2.8-18.9-18.5c7.6-14.3,19.8-33.9,25.6-43.3c6.7-11,5-31.2-21.5-13.6c-10.5,7-16.1,11.6-29.6,17.2c0,0,0,0,0,0
	c-2.8-8.3-7.3-13-13.9-17.3c-9.5-6.2-26.9-2-29.6,10.1c-3.4,15.5,8.4,21.7,22.7,21.3c4.4-0.1,8.9-1.1,13.4-2.5
	c-0.4,46.7-54.3,37.1-71.1,14.5c2-10.3,3.1-20.9,3.6-31.8c0.4-9.1,0.8-20.4,1.1-29.6c0,0,90.3-7.1,117-67.4
	c8.4-18.9,6.5-40.4-3.6-56.4c-0.2-0.3-1.5-2.1-4.2-4.9c-17.5-17.9-44.1-23.4-67.3-14.3c-14.5,5.7-27.9,15.4-37.7,26.6
	c-12.1-2.5-20.8-5.7-36-20.4c-9-8.7-10.8-17.3-17.3-26.2C11-4.4,2.3,1.6,1.3,4.7C-4,22.4,7.6,37.9,20.6,47.4
	c17.7,12.8,24,16.6,40.5,19.1c-6,11.5-8.9,23.7-10.4,36.3l-1.3,17.6c-1.1,28.1-1,103.5-12.8,129.3c-3.9,8.5,4.2,17.8,13.1,13.1
	c0,0,6.2-2,10.3-21.5c20.1,25.9,87.4,27.1,82.7-30c0,0,0,0,0,0c8.7-3.9,15.9-7.6,24.8-10.1c5.7-1.6,6.2,3.7,4.5,7.9
	c-1.7,4.2-10.6,27.1-13.8,33.5c-0.9,1.9-1.6,3.9-2,5.9h0c-4.2,12.5,16.2,36.6,41.3,18.4c2.1-1.5,3.6-3.7,5.2-5.8
	c7.6,13.8,24.1,15.6,38.2,10.5c22-7.8,35.7-35.3,33.6-57.8c6.1-2.7,12-5.6,17.8-8.6c-7.5,18.9-6,39.6,4,55.4
	c0.2,0.3,1.5,2.1,4.2,4.9c17.5,17.9,43.8,22.6,67.3,14.3c4.1-1.4,20.1-10.3,31.4-23.3c0.1-0.1,0.2-0.3,0.3-0.4
	c12.5,13.2,32.7,19.4,52.9,20.3c7,0.3,19.7,1.6,33-4.1c11.3-3.8,20.8-11.3,26.5-18.4l2.8-3.2c0.4-0.5,0.7-1.1,1-1.6
	c0.1,3.4,0.8,6.9,2.2,10.2c4.4,10.1,14.5,18.1,27.7,21.9c4.8,1.4,9.8,2.1,14.9,2.1c19.3,0,36.7-11.8,45.5-22.9
	c5.8,6.1,15.6,13.7,28.2,20.7c0,0,5.2,2.2,7.3-0.3C643.8,278.1,640.4,276.1,638.1,275z M250,211.6c-4.8,0.6-9.8-2.1-11.1-6.8
	c-2-6.8,5-11.7,9-10.9c2.5,0.5,6.3,2.4,11.4,8.8c1.1,1.9,1.9,3.9,2.7,5.9C258.1,210,254.1,211,250,211.6z M119.9,209.3
	c-2.9,0.3-5.7-1-7.3-3.3c-5-7.4,2.5-13.3,6.6-12.5c2.2,0.4,5.6,2.1,10.1,7.8c1,1.7,1.7,3.4,2.3,5.2
	C127.8,207.9,124,208.9,119.9,209.3z M133.7,38.8c17.8-2.2,28,4.9,30.2,5.9c22.7,15.5,10.2,56.1,0.8,65.1
	c-26.1,25-62.1,40.7-96.4,43.6C70.6,111.3,65.3,41.6,133.7,38.8z M434.1,186.4c5.8,5.3-2,17.1-7.9,20.8c-6.6,4.2-20.2,9.3-20.2,9.3
	C405.5,199,423.1,176.5,434.1,186.4z M563.9,273.5c-3.8,0-7.5-0.5-11-1.5c-8.8-2.5-15.6-8.2-18.8-15.8c-2.7-6.4-2.4-13.2,0.6-18.8
         c3.3-6,30.6-20.8,64.6,16.8C592.7,264,577.4,273.5,563.9,273.5z">
            <animate 
                   attributeName="fill-opacity" 
                   from="0" 
                   to="1" 
                   dur="2s" 
                   begin="4s"
                   fill="freeze" />
             <animate 
                   attributeName="stroke" 
                   from="black" 
                   to="#27bcca" 
                   dur="2s" 
                   begin="1s"
                   fill="freeze" />
                <animate 
                   attributeName="stroke-dashoffset"
                   from="3800" 
                   to="0" 
                   dur="4s" 
                   fill="freeze"/>
    </path>
<g>
	<path class="st2" d="M49.3,211.9c4.7-11.7,5.8-25,6.6-37.4c0.4-6.3,0.3-12.7,0.2-19c-0.1-6.2,0.4-13.2-1.4-19.2
		c-0.2-0.5-1-0.6-1.1,0c-1.1,5.4-0.1,11.3,0,16.8c0.2,6.4,0.1,12.7,0,19.1c-0.3,13.5-2.8,26.3-5.1,39.5
		C48.4,212.2,49.1,212.4,49.3,211.9L49.3,211.9z"/>
	<path class="st2" d="M102.1,157.4c6.5-0.6,13.5-3.3,18.6-7.3c0.3-0.2,0-0.6-0.3-0.5c-6.1,2.7-12,5.3-18.4,7.4
		C101.8,157.1,101.9,157.4,102.1,157.4L102.1,157.4z"/>
	<path class="st2" d="M182.1,95.7c5.8-12.7,4.7-30.4-0.6-43c-0.1-0.3-0.6-0.1-0.5,0.2c1.9,7,3.4,13.9,3.6,21.2
		c0.2,7.3-1.6,14.2-2.8,21.4C181.8,95.7,182,95.9,182.1,95.7L182.1,95.7z"/>
	<path class="st2" d="M60.7,83.9c3.1-7.4,6.4-14.5,10.9-21.3c4.8-7.3,11-13.1,17.1-19.2c0.3-0.3-0.1-0.8-0.4-0.5
		c-13.4,9.1-23.9,25.3-27.8,40.9C60.4,84,60.6,84.1,60.7,83.9L60.7,83.9z"/>
	<path class="st2" d="M39.8,256.8c3.2,3.9,9.6,0.5,11.7-3c0.2-0.4-0.2-0.8-0.6-0.6c-1.5,0.7-2.6,1.9-4,2.8c-2.1,1.3-4.6,1.4-6.7,0.3
		C39.8,256.3,39.6,256.6,39.8,256.8L39.8,256.8z"/>
	<path class="st2" d="M36.9,48.9c-6.5-4.1-13.2-6.9-18.8-12.5c-4.6-4.7-13-15.5-9.3-22.7c0.6-1.1-1.1-1.8-1.8-1
		c-4.9,6,2.5,16.4,6,21.4c5.4,7.4,14.5,13.8,23.5,15.5C37,49.7,37.2,49.1,36.9,48.9L36.9,48.9z"/>
</g>
<path class="st2" d="M438.5,200.8c0.7-1.7,1.2-3.4,1.6-5.3c0.2-0.8-1-1.1-1.3-0.3c-0.5,1.6-1.2,3.2-1.8,4.7
	C436.6,201,438.1,201.8,438.5,200.8L438.5,200.8z"/>
<path class="st2" d="M417.5,221.2c6.5-3.3,12.4-7.5,16.9-13.3c0.7-0.9-0.6-2.1-1.2-1.2c-4.4,5.7-10.1,9.9-16.5,13.1
	C415.7,220.3,416.5,221.7,417.5,221.2L417.5,221.2z"/>
<path class="st2" d="M441.6,172.4c-18.7-12.8-42.3,8.4-47,26.3c-0.2,0.6,0.7,1,1.1,0.4c4.6-7.7,8.7-15,15.6-21
	c9.1-7.9,19-8.3,30.1-5.1C441.8,173.1,441.9,172.6,441.6,172.4L441.6,172.4z"/>
<path class="st2" d="M213.1,215.2c-2-1.7-4.9,1.2-6.3,2.6c-2,2-4,5.4-3.7,8.3c0,0.3,0.5,0.6,0.7,0.2c0.8-1.9,1.3-3.9,2.5-5.7
	c1.2-1.8,4.2-5.3,6.6-5C213.1,215.7,213.3,215.4,213.1,215.2L213.1,215.2z"/>
<path class="st2" d="M255.7,187.1c-7.4-4.8-21.6-3.3-26.2,4.8c-0.3,0.5,0.3,1.1,0.8,0.8c3.8-2.3,6.6-4.9,11.2-5.8
	c4.8-1,9.3,0.3,14.1,0.5C255.7,187.4,255.8,187.2,255.7,187.1L255.7,187.1z"/>
<path class="st2" d="M227.8,195.5c-3.1,1.6-3.3,8.6-1,10.9c0.3,0.3,0.8,0.1,0.7-0.3c-0.1-1.7-0.7-3.3-0.6-5c0-1.9,1.1-3.6,1.2-5.4
	C228.1,195.5,227.9,195.5,227.8,195.5L227.8,195.5z"/>
<path class="st2" d="M228.7,210.8c0.1,0.8,0.5,1.5,1.1,2.1c0.5,0.6,1.3,1.1,2.1,1.1c0.6,0,0.8-0.6,0.4-1.1c-0.4-0.5-1-0.7-1.4-1.1
	c-0.4-0.4-0.7-1-1.1-1.4C229.4,209.9,228.6,210.3,228.7,210.8L228.7,210.8z"/>
<path class="st2" d="M256.7,212.7c9.9-1.8,21.7-4.9,30.1-10.8c0.3-0.2,0.1-0.8-0.3-0.6c-5,1.8-9.7,4.5-14.6,6.4
	c-5,1.9-10.1,3.4-15.2,4.9C256.5,212.6,256.6,212.7,256.7,212.7L256.7,212.7z"/>
<path class="st2" d="M293.4,197.9c1.5-0.3,2.8-1.3,4-2.1c1.1-0.7,2.6-1.3,3.3-2.5c0.2-0.3,0-0.7-0.4-0.7c-1.4,0.2-2.5,1.2-3.6,2
	c-1.3,0.8-2.8,1.6-3.6,2.9C293,197.8,293.2,198,293.4,197.9L293.4,197.9z"/>
<path class="st2" d="M332,174.6c0.7-0.1,1.3-0.4,2-0.5c0.6-0.2,1.4,0.1,2-0.4c0.1-0.1,0.1-0.3,0-0.4c-0.5-0.6-1.5-0.4-2.1-0.3
	c-0.8,0.1-1.7,0.6-2.1,1.3C331.7,174.5,331.9,174.6,332,174.6L332,174.6z"/>
<path class="st2" d="M339.7,173.1c5.9-0.2,11.7-1,17.7-0.9c6.1,0.1,12.2,1.5,18.3,1.6c0.8,0,0.9-1.2,0.1-1.4
	c-5.8-1.7-12.4-1.6-18.5-1.7c-5.8-0.1-12.1,0.2-17.7,1.9C339.4,172.8,339.5,173.1,339.7,173.1L339.7,173.1z"/>
<path class="st2" d="M261.4,246.4c-3.1,6.1-7.3,11.2-12.9,15.2c-5.8,4.2-12.1,5.2-18.9,6.7c-0.3,0.1-0.2,0.5,0.1,0.5
	c13.6,0.7,26.9-10.4,32-22.3C261.8,246.3,261.5,246.2,261.4,246.4L261.4,246.4z"/>
<path class="st2" d="M200.1,255.1c-1.8,2.4-3.5,4.9-5.4,7.2c-2,2.4-4.5,3.8-7,5.6c-0.2,0.2-0.1,0.6,0.2,0.5
	C193.8,266.9,197.7,260,200.1,255.1C200.2,255,200.1,255,200.1,255.1L200.1,255.1z"/>
<g>
	<g>
		<path class="st2" d="M486.3,181.9c6.7,2.9,16.7,5.3,23,0.2c0.2-0.1,0-0.4-0.2-0.4c-3.8,1.6-7,2.7-11.2,2.6
			c-3.9-0.1-7.8-1.3-11.5-2.6C486.3,181.7,486.2,181.9,486.3,181.9L486.3,181.9z"/>
		<path class="st2" d="M489.6,210.4c0.4,0.3,0.9,0.5,1.3,0.8c0.5,0.4,1.1-0.4,0.7-0.9c-0.3-0.4-0.7-0.7-1.1-1c-0.3-0.2-0.7-0.3-1,0
			C489.2,209.6,489.3,210.1,489.6,210.4L489.6,210.4z"/>
		<path class="st2" d="M468.1,195.6c4.3,5.1,10,8,15.7,11.3c0.8,0.5,1.6-0.8,0.8-1.3c-5.6-3.2-11.3-6-15.5-10.9
			C468.5,194,467.5,194.9,468.1,195.6L468.1,195.6z"/>
		<path class="st2" d="M480.8,155c-6.3,1.9-11.6,6-15.3,11.4c-4.6,6.7-5.1,14.7-2.5,22.3c0.3,0.8,1.6,0.5,1.3-0.4
			c-4.9-14.1,3.3-27.6,16.6-32.9C481.1,155.3,481.1,154.9,480.8,155L480.8,155z"/>
	</g>
	<path class="st2" d="M124.6,187.5c-4.8-2.4-11.2-2.1-15.9,0.2c-4,1.9-8.4,7.3-7.4,11.9c0.1,0.5,0.8,0.6,1,0.1
		c2.3-4.1,3-7.6,7.4-10.3c4.2-2.6,10-1.4,14.8-1.6C124.7,187.8,124.8,187.6,124.6,187.5L124.6,187.5z"/>
	<path class="st2" d="M101.4,202.4c-0.6,1.7,0.2,3.8,0.9,5.4c0.7,1.6,2.2,4.2,4.1,4.5c0.4,0.1,0.7-0.3,0.5-0.7
		c-0.3-0.6-0.7-0.9-1.2-1.4c-0.8-0.7-1.4-1.7-2-2.6c-1-1.7-1-3.6-1.8-5.3C101.8,202.1,101.4,202.2,101.4,202.4L101.4,202.4z"/>
	<path class="st2" d="M190.3,186.2c-1-2.8-5-2.6-7.5-2.5c-3.8,0.2-7.9,1.7-10.6,4.3c-0.7,0.7,0.2,2,1.1,1.4
		c4.4-2.7,11.5-6.4,16.5-2.9C190.1,186.7,190.4,186.4,190.3,186.2L190.3,186.2z"/>
	<path class="st2" d="M168.7,191.3c-3.4,1.7-6.6,3.8-9.9,5.8c-4.6,2.7-9.5,4.9-14.1,7.6c-0.5,0.3-0.2,1.2,0.4,1
		c8.4-2.9,17-8.3,24-13.8C169.5,191.6,169.1,191.1,168.7,191.3L168.7,191.3z"/>
	<path class="st2" d="M142.1,205.9c-1.8,0.6-3.7,1.2-5.5,1.8c-1.8,0.6-4,0.9-5.6,2c-0.3,0.2-0.2,0.7,0.2,0.7
		c1.9,0.1,3.9-0.9,5.7-1.6c1.9-0.7,3.6-1.6,5.4-2.6C142.4,206.1,142.3,205.8,142.1,205.9L142.1,205.9z"/>
	<path class="st2" d="M174.5,208.6c-2.3,4.5-4.1,9.3-6,14c-2.1,5.1-5,10.5-6,15.9c-0.1,0.4,0.4,0.6,0.7,0.3
		c2.7-4.2,4.1-9.4,5.9-14.1c2.1-5.2,4.3-10.5,5.9-15.9C175,208.5,174.6,208.4,174.5,208.6L174.5,208.6z"/>
	<path class="st2" d="M160.3,242.4c-0.4,0.2-0.6,0.6-0.8,1c-0.2,0.5-0.4,0.9-0.4,1.4c0,0.3,0.4,0.4,0.6,0.2c0.4-0.3,0.6-0.7,0.8-1.1
		c0.2-0.5,0.4-0.8,0.3-1.4C160.8,242.4,160.5,242.3,160.3,242.4L160.3,242.4z"/>
	<path class="st2" d="M513.5,231.8c-0.1,6.8-0.4,12.7-4.1,18.7c-3.2,5.3-8.1,8.1-13.3,11.1c-0.4,0.2-0.1,0.9,0.3,0.8
		c12-2.8,21.3-18.9,17.6-30.7C513.9,231.5,513.5,231.5,513.5,231.8L513.5,231.8z"/>
	<path class="st2" d="M492.1,264.1c-2.1,0.6-4,1.6-6.1,2.2c-2.4,0.7-4.9,1-7.3,1.6c-0.4,0.1-0.3,0.7,0.1,0.7c4.3,0,9.9-1.6,13.5-4.1
		C492.5,264.4,492.4,264,492.1,264.1L492.1,264.1z"/>
	<path class="st2" d="M475.1,268.6c-0.5-0.1-1.1-0.1-1.6-0.2c-0.4-0.1-0.8-0.3-1.3-0.1c-0.1,0.1-0.2,0.2-0.1,0.3
		c0.1,0.5,0.8,0.7,1.3,0.7c0.6,0.1,1.2-0.1,1.8-0.2C475.5,268.9,475.4,268.6,475.1,268.6L475.1,268.6z"/>
	<g>
		<path class="st2" d="M575.1,182.9c6.7,2.9,16.7,5.3,23,0.2c0.2-0.1,0-0.4-0.2-0.4c-3.8,1.6-7,2.7-11.2,2.6
			c-3.9-0.1-7.8-1.3-11.5-2.6C575.1,182.7,575,182.9,575.1,182.9L575.1,182.9z"/>
		<path class="st2" d="M578.4,211.4c0.4,0.3,0.9,0.5,1.3,0.8c0.5,0.4,1.1-0.4,0.7-0.9c-0.3-0.4-0.7-0.7-1.1-1c-0.3-0.2-0.7-0.3-1,0
			C577.9,210.6,578,211.1,578.4,211.4L578.4,211.4z"/>
		<path class="st2" d="M556.9,196.6c4.3,5.1,10,8,15.7,11.3c0.8,0.5,1.6-0.8,0.8-1.3c-5.6-3.2-11.3-6-15.5-10.9
			C557.3,195,556.3,195.9,556.9,196.6L556.9,196.6z"/>
		<path class="st2" d="M569.6,156c-6.3,1.9-11.6,6-15.3,11.4c-4.6,6.7-5.1,14.7-2.5,22.3c0.3,0.8,1.6,0.5,1.3-0.4
			c-4.9-14.1,3.3-27.6,16.6-32.9C569.9,156.3,569.8,155.9,569.6,156L569.6,156z"/>
	</g>
	<path class="st2" d="M599.5,213.9c4.9,4.8,8.8,9.2,10.5,16c1.5,6,0.2,11.5-1.3,17.3c-0.1,0.5,0.5,0.7,0.8,0.3
		c6.4-10.6,1.3-28.4-9.7-34C599.6,213.4,599.3,213.7,599.5,213.9L599.5,213.9z"/>
	<path class="st2" d="M590,270.5c-2,0.9-3.8,2.1-5.7,3.1c-2.3,1.1-4.7,1.7-7,2.6c-0.4,0.2-0.2,0.8,0.2,0.7c4.3-0.6,9.6-2.9,12.8-5.9
		C590.4,270.7,590.3,270.3,590,270.5L590,270.5z"/>
	<path class="st2" d="M573.8,277.3c-0.6,0-1.1,0-1.7,0.1c-0.5,0-0.9-0.2-1.3,0c-0.1,0.1-0.1,0.2-0.1,0.4c0.2,0.5,0.9,0.5,1.4,0.5
		c0.7,0,1.2-0.2,1.8-0.5C574.2,277.6,574.1,277.3,573.8,277.3L573.8,277.3z"/>
</g>
<path class="st3" d="M60.8,66.2c0,0,5.8-10,10.2-14.7l-5.1-1.2c0,0-5.6,4.8-9.7,15.1L60.8,66.2z"/>
<path class="st3" d="M133.6,215.2l9.1-4l0.2,3.4c0,0-4.2,1.6-9.4,4.1L133.6,215.2z"/>
<path class="st3" d="M131.7,206.5l9.2-3L140,201c0,0-4.3,1.8-9.2,3.2L131.7,206.5z"/>
<path class="st3" d="M198,246.6c0,0,0.9,7,4.7,14.6l-1.3,1.7c0,0-4.1-8.4-4.7-13.8L198,246.6z"/>
<path class="st3" d="M264.2,218.4c0,0,5-2.1,10.3-4.5l0.2,3.8c0,0-5.5,2.7-10.5,4.1V218.4z"/>
<path class="st3" d="M262,208.5l10.4-3.4l-0.8-2.1c0,0-4.9,1.7-10.5,3.5L262,208.5z"/>
<path class="st3" d="M292.2,205.3c0,0,8.1-4.3,17.2-9.4c0,0-6.4,7.2-7.5,9.4c0,0-6.8,2.2-11.6,5.8L292.2,205.3z"/>
<path class="st3" d="M399.5,256.2c0,0-8.8-9.1-9.9-16.4c0,0-1.5,3.6-3.8,6c0,0,3.5,8.7,9.9,14.6L399.5,256.2z"/>
<path class="st3" d="M515.7,249.2c0,0,0.4-10.1,4.4-14.7c0,0,0.3-1.8,0.3-4c0,0-6.1,5.9-6.4,21L515.7,249.2z"/>
<path class="st3" d="M601.5,248.6c0,0,2.3,4,7.6,8.5l0.9-1.4l-8.2-8.6L601.5,248.6z"/>
<path class="st3" d="M599.4,254.1c0,0,3,4.3,6.6,6.4l-1.6,1.9l-6.3-6.5L599.4,254.1z"/>
</svg>
