<svg version="1.1" id="Layer_1" xmlns="http://www.w3.org/2000/svg" xmlns:xlink="http://www.w3.org/1999/xlink" x="0px" y="0px"
	 width="580px" 	height="320px" viewBox="0 0 689.7 387.6" style="enable-background:new 0 0 689.7 387.6;" xml:space="preserve">
<style type="text/css">
    .st2{
        fill:#96D4E4;
        fill-opacity:0;
        -moz-animation:s2 2s ease-in-out 4s forwards;
        -webkit-animation:s2 2s ease-in-out 4s forwards;
        animation:s2 2s ease-in-out 4s forwards;
    }
    .st0{
        fill:#e7e7e7;
        fill-opacity:0;
        -moz-animation:s2 2s ease-in-out 4s forwards;
        -webkit-animation:s2 2s ease-in-out 4s forwards;
        animation:s2 2s ease-in-out 4s forwards;
    }
        
    .st01{
        fill:#e7e7e7;
        fill-opacity:0;
        -moz-animation:s2 2s ease-in-out 4s forwards;
        -webkit-animation:s2 2s ease-in-out 4s forwards;
        animation:s2 2s ease-in-out 4s forwards;
    }
    .st3{
        fill:#1cafb6;
        fill-opacity:0;
        -moz-animation:s2 2s ease-in-out 5s forwards;
        -webkit-animation:s2 2s ease-in-out 5s forwards;
        animation:s2 2s ease-in-out 5s forwards;
    }
        
    .st33{
        fill:#1cafb6;
        fill-opacity:0;
        -moz-animation:s2 2s ease-in-out 6s forwards;
        -webkit-animation:s2 2s ease-in-out 6s forwards;
        animation:s2 2s ease-in-out 6s forwards;
    }
    
    @-webkit-keyframes s2{
        0%  {fill-opacity:0;}
        100%{fill-opacity:1;}
    }
    
    @-moz-keyframes s2{
        0%  {fill-opacity:0;}
        100%{fill-opacity:1;}
    }
</style>
<path class="st0" d="M687.7,279c-7.1-14.7-21.7-17-33.7-14.2c-8.9,2.1-32.6,16.2-45.9,24.3c7.5-20.4,11.5-41.8,11.7-64
	c0.1-10.4-2.1-26-12.3-32.1c-11.2-6.7-23.5,2.7-29,11.6c-24.4,38.9-28.7,102.5-15.1,135.9c-6.3,7-16.8,13.7-24,14.7l-11.5,2.2
	c-7.1-0.2-15.7-4.1-16.3-10c-0.6-7.4,21-45.8,29-60.5c6.2-11.4,3.5-31.5-22.2-12.5c-10.1,7.5-15.5,12.4-28.7,18.7c0,0,0,0,0,0
	c-3.2-8.2-7.9-12.6-14.7-16.5c-9.8-5.7-27-0.7-29,11.6c-2.6,15.7,9.5,21.3,23.7,20.2c4.4-0.3,8.9-1.5,13.3-3.1
	c2.1,46.3-38.9,32.5-45,32.4c3.3-9.2,4.6-19.1,3.3-28.1c-0.4-4.2-2.4-8.7-2.4-8.7c-3.6-9.3-9-14.3-16.7-18.7
	c-11.1-6.5-30.5-0.8-32.9,13.1c0,0-2.4,38.5,34.6,47.1c0,0,0.6,2.8-10.2,11.8c-8.3,6.9-20.1,10.6-29.6,3.3c-1.4-1.1-2.6-2.5-3.6-4.1
	c-1.8-2.8-2.7-6.2-2.9-9.5c-0.8-17,6.7-17.5,8-26.8c0.6-4.6-4.5-9.2-8.7-6c-11,8.3-13.2,22.1-10.5,34.9c-2.8,6.4-6.5,12-11.9,15.7
	c-7.5,5.2-14.4-0.7-19.3-7.5c3.9-12.4,7.3-30.4,10.3-55.7c0,0-1.9-30,24.1-72.1c9.2-14.9-43.1,4.8-45.8,58.1
	c-2.6,49.5-8,90.5-24.8,81.8c-12.1-6.2-12.2-79.2-3.5-141.3c0.5-4.2-3.4-14.8-9.9-16.9c-6.4-2.4-11.5,0.3-11.7,5
	c-4,99.9-13.4,158-33.1,152.5c-12-3.3-19.2-35.5-17.6-80.5c1.1-13,1.9-26.1,3.3-39c1.7-13.2,4.1-27,7.3-41.1c0-0.2,0.1-0.4,0.1-0.6
	c2.8-10.2,6.6-20.1,11.7-29.6c6.6-12.3-4.6-26.8-18.2-20.6c-45.7,21.1-176,21.2-193.4-56.5c-0.4-2.6-0.6-5.3-0.7-8.1
	C31.8,62.6,46.1,48,65.9,48.2c9.4,0.1,16.4,3.9,21.6,9.4c3.7,3.9,9.5,5.4,14.5,3.3c3.8-1.6,4.5-3.9,4.5-6.5
	C106.7,34.1,95,15.7,76.1,8.3C48.8-2.2,24,6.8,9.8,28.5C-9,56.9-9.2,192.3,209,190.3c-6,18.8-9.2,38.2-11.4,58.5
	c-1.1,10.6,0,21.3,1.1,32c1,38.6,5.5,103.5,45.5,99c17-1.9,23.2-19.7,29.4-38.1c1.1-3.3,5.9-2.9,6.4,0.5c3,19,9.7,32.1,24.6,36.2
	c10.6,2.9,19.3,1.4,26.4-13c7.6,6.7,20.7,13.2,36.1,0.9c2-1.6,3.4-3.9,4.9-6c8.3,13.4,24.8,14.4,38.7,8.6
	c9.8-4.1,17.8-12.1,23.2-21.8l0,0c6.1-0.8,66.4,16.2,58.1-46.2c0,0,0,0,0,0c8.5-4.3,15.5-8.4,24.3-11.3c5.6-1.9,6.4,3.4,4.9,7.7
	c-1.5,4.3-9.3,27.6-12.1,34.2c-2.6,6.1-5.4,13.7-3.4,20.4c3.9,13.1,21.7,17.3,38.8,13.1l0,0c8.8-1.6,17.2-6.2,22.8-11.9l8.4-8.3
	c7.4-9.5,14.1-17,18.3-24.5c2.8-4.9,5.3-9.9,7.7-15c4.7,7.7,6.6,13.2,10,21.6c8.2,20.3,17.7,39.4,33.9,52.1c9.6,7.5,23.3,12.6,35,5
	c2-1.3,4.6-8.9-3.9-12c-7.8-2.8-14.4-2.4-22.6-7c-16.2-9.2-25.7-22.7-31.1-33.4c-4.3-8.5-8.6-17.2-13.5-25.8
	c15.1,6.3,33.6,13.2,45.4,12.9C673.9,318.1,696.6,297.2,687.7,279z M469.1,299.9c-2.8,0.5-5.7-0.7-7.5-3c-5.4-7.1,1.8-13.4,6-12.8
	c2.3,0.3,5.7,1.9,10.4,7.3c1,1.6,1.9,3.3,2.6,5.1C476.9,298.2,473.1,299.3,469.1,299.9z M429.5,333.2c-25.7-7.5-27.1-31.1-27.1-31.1
	c-2.3-6.7,7.4-12.1,11.5-11.5c2.6,0.4,6.5,2.1,11.8,8.3C426.9,300.8,434.7,315.7,429.5,333.2z M589.2,307c-7.2,15.2-19,27-19,27
	c-11.7-29.7,8.2-117.3,30.2-128.5c13.6-6.9,5.5,41.3,4.5,47.1C602.2,270.3,596.8,291,589.2,307z M627.8,302.2
	c-2.3-0.9-6.8-3.6-12.4-5.5c0.6-0.2,11.9-7.8,12.4-8.1c11.6-5.5,17.1-10.3,29.5-13.1c7.5-1.7,19.1,3.4,20.3,8
	c1.7,6.9-10.1,20.3-14.9,21.4C648.7,308.1,642,307.4,627.8,302.2z"/>
<path class="st1"
      fill="#27bcca" 
                stroke="black"
                fill-opacity="0"
                stroke-width="2"		
                stroke-dasharray="3800"
      d="M685.5,275.1c-7.1-14.7-21.7-17-33.7-14.2c-8.9,2.1-32.6,16.2-45.9,24.3c7.5-20.4,11.5-41.8,11.7-64
	c0.1-10.4-2.1-26-12.3-32.1c-11.2-6.7-23.5,2.7-29,11.6c-24.4,38.9-28.7,102.5-15.1,135.9c-6.3,7-16.8,13.7-24,14.7l-11.5,2.2
	c-7.1-0.2-15.7-4.1-16.3-10c-0.6-7.4,21-45.8,29-60.5c6.2-11.4,3.5-31.5-22.2-12.5c-10.1,7.5-15.5,12.4-28.7,18.7c0,0,0,0,0,0
	c-3.2-8.2-7.9-12.6-14.7-16.5c-9.8-5.7-27-0.7-29,11.6c-2.6,15.7,9.5,21.3,23.7,20.2c4.4-0.3,8.9-1.5,13.3-3.1
	c2.1,46.3-38.9,32.5-45,32.4c3.3-9.2,4.6-19.1,3.3-28.1c-0.4-4.2-2.4-8.7-2.4-8.7c-3.6-9.3-9-14.3-16.7-18.7
	c-11.1-6.5-30.5-0.8-32.9,13.1c0,0-2.4,38.5,34.6,47.1c0,0,0.6,2.8-10.2,11.8c-8.3,6.9-20.1,10.6-29.6,3.3c-1.4-1.1-2.6-2.5-3.6-4.1
	c-1.8-2.8-2.7-6.2-2.9-9.5c-0.8-17,6.7-17.5,8-26.8c0.6-4.6-4.5-9.2-8.7-6c-11,8.3-13.2,22.1-10.5,34.9c-2.8,6.4-6.5,12-11.9,15.7
	c-7.5,5.2-14.4-0.7-19.3-7.5c3.9-12.4,7.3-30.4,10.3-55.7c0,0-1.9-30,24.1-72.1c9.2-14.9-43.1,4.8-45.8,58.1
	c-2.6,49.5-8,90.5-24.8,81.8c-12.1-6.2-12.2-79.2-3.5-141.3c0.5-4.2-3.4-14.8-9.9-16.9c-6.4-2.4-11.5,0.3-11.7,5
	c-4,99.9-13.4,158-33.1,152.5c-12-3.3-19.2-35.5-17.6-80.5c1.1-13,1.9-26.1,3.3-39c1.7-13.2,4.1-27,7.3-41.1c0-0.2,0.1-0.4,0.1-0.6
	c2.8-10.2,6.6-20.1,11.7-29.6c6.6-12.3-4.6-26.8-18.2-20.6c-45.7,21.1-176,21.2-193.4-56.5c-0.4-2.6-0.6-5.3-0.7-8.1
	c-1.5-26.8,12.8-41.4,32.6-41.2c9.4,0.1,16.4,3.9,21.6,9.4C89,57.6,94.8,59,99.8,57c3.8-1.6,4.5-3.9,4.5-6.5
	c0.2-20.3-11.5-38.8-30.4-46.1C46.6-6.1,21.8,2.9,7.6,24.6c-18.7,28.4-19,163.8,199.2,161.8c-6,18.8-9.2,38.2-11.4,58.5
	c-1.1,10.6,0,21.3,1.1,32c1,38.6,5.5,103.5,45.5,99c17-1.9,23.2-19.7,29.4-38.1c1.1-3.3,5.9-2.9,6.4,0.5c3,19,9.7,32.1,24.6,36.2
	c10.6,2.9,19.3,1.4,26.4-13c7.6,6.7,20.7,13.2,36.1,0.9c2-1.6,3.4-3.9,4.9-6c8.3,13.4,24.8,14.4,38.7,8.6
	c9.8-4.1,17.8-12.1,23.2-21.8l0,0c6.1-0.8,66.4,16.2,58.1-46.2c0,0,0,0,0,0c8.5-4.3,15.5-8.4,24.3-11.3c5.6-1.9,6.4,3.4,4.9,7.7
	c-1.5,4.3-9.3,27.6-12.1,34.2c-2.6,6.1-5.4,13.7-3.4,20.4c3.9,13.1,21.7,17.3,38.8,13.1l0,0c8.8-1.6,17.2-6.2,22.8-11.9l8.4-8.3
	c7.4-9.5,14.1-17,18.3-24.5c2.8-4.9,5.3-9.9,7.7-15c4.7,7.7,6.6,13.2,10,21.6c8.2,20.3,17.7,39.4,33.9,52.1c9.6,7.5,23.3,12.6,35,5
	c2-1.3,4.6-8.9-3.9-12c-7.8-2.8-14.4-2.4-22.6-7c-16.2-9.2-25.7-22.7-31.1-33.4c-4.3-8.5-8.6-17.2-13.5-25.8
	c15.1,6.3,33.6,13.2,45.4,12.9C671.7,314.2,694.4,293.3,685.5,275.1z M466.9,296c-2.8,0.5-5.7-0.7-7.5-3c-5.4-7.1,1.8-13.4,6-12.8
	c2.3,0.3,5.7,1.9,10.4,7.3c1,1.6,1.9,3.3,2.6,5.1C474.7,294.3,470.9,295.4,466.9,296z M427.3,329.3c-25.7-7.5-27.1-31.1-27.1-31.1
	c-2.3-6.7,7.4-12.1,11.5-11.5c2.6,0.4,6.5,2.1,11.8,8.3C424.7,296.9,432.5,311.8,427.3,329.3z M587,303.1c-7.2,15.2-19,27-19,27
	c-11.7-29.7,8.2-117.3,30.2-128.5c13.6-6.9,5.5,41.3,4.5,47.1C600,266.4,594.6,287.1,587,303.1z M625.6,298.3
	c-2.3-0.8-6.8-3.6-12.4-5.5c0.6-0.2,11.9-7.8,12.4-8.1c11.6-5.5,17.1-10.3,29.5-13.1c7.5-1.7,19.1,3.4,20.3,8
         c1.7,6.9-10.1,20.3-14.9,21.4C646.5,304.2,639.8,303.5,625.6,298.3z">
        <animate 
                   attributeName="fill-opacity" 
                   from="0" 
                   to="1" 
                   dur="2s" 
                   begin="4s"
                   fill="freeze" />
                
             <animate 
                   attributeName="stroke" 
                   from="black" 
                   to="#27bcca" 
                   dur="2s" 
                   begin="1s"
                   fill="freeze" />
                <animate 
                   attributeName="stroke-dashoffset"
                   from="3800" 
                   to="0" 
                   dur="5s" 
                   fill="freeze"/>
    </path>
<g>
	<path class="st2" d="M81.1,17.4C68.9,4,45.4,5.8,31.4,15.3c-0.9,0.6-0.2,1.8,0.8,1.6c8.3-1.9,16.1-4.6,24.6-5
		c8.5-0.4,16.2,2.5,23.5,6.5C81.1,18.8,81.6,17.9,81.1,17.4L81.1,17.4z"/>
	<path class="st2" d="M20.1,22.8C14,27.4,9,35.8,9.9,43.6c0.1,0.7,1,0.7,1.2,0.1c1.2-3.3,2-6.7,3.5-9.9c1.6-3.6,4-6.7,6.5-9.7
		C21.7,23.4,20.9,22.3,20.1,22.8L20.1,22.8z"/>
	<path class="st2" d="M10.1,56.5c-0.2,1.4-0.4,3.9,0.9,5c0.3,0.2,0.7,0.1,0.8-0.3c0.2-0.7,0.1-1.3-0.1-1.9c-0.2-0.9-0.2-1.8-0.3-2.7
		C11.3,55.9,10.2,55.8,10.1,56.5L10.1,56.5z"/>
</g>
<g>
	<path class="st2" d="M329.6,342.4c2.1-9.7,3.4-19.6,5.1-29.4c1.7-9.6,5-20,4.5-29.8c0-0.6-0.9-0.9-1.2-0.3
		c-4.1,8.9-4.7,19.7-6.3,29.3c-1.6,9.9-3.4,19.9-4.2,29.9C327.5,343.2,329.4,343.5,329.6,342.4L329.6,342.4z"/>
	<path class="st2" d="M344,259.6c4.8-9.9,10.7-21,13.3-31.7c0.2-0.9-1-1.2-1.4-0.5c-5.9,9.2-9.7,21.1-13.4,31.4
		C342,259.8,343.5,260.6,344,259.6L344,259.6z"/>
	<path class="st2" d="M306.6,372c6.8,1.6,16.9-5.6,16.5-12.8c0-0.5-0.6-0.6-0.9-0.2c-2.1,3.1-3.3,6.2-6.4,8.6
		c-2.7,2.2-6,2.8-9.3,3.8C306.2,371.5,306.3,371.9,306.6,372L306.6,372z"/>
	<path class="st2" d="M272.8,319.7c1.1-11.1,1-22.3,1.6-33.4c0.7-12.9,3.8-26.7,2.4-39.6c-0.1-0.8-1.2-0.9-1.4-0.1
		c-3.3,10.2-2.9,22.6-3.6,33.2c-0.9,13.1-2,26.6-1.3,39.7C270.5,320.7,272.6,321,272.8,319.7L272.8,319.7z"/>
	<path class="st2" d="M276.5,239.8c0.9-4.6,1.6-9.2,2.1-13.8c0.5-4.1,1.9-8.4,1-12.5c-0.1-0.6-1-0.5-1.2-0.1c-2.2,3.4-2,8-2.4,12
		c-0.5,4.8-0.4,9.5-0.1,14.4C275.9,240.1,276.4,240.1,276.5,239.8L276.5,239.8z"/>
	<path class="st2" d="M255,362c-5.5,5-21,11.4-27,4.4c-1.2-1.3-3.4,0.6-2.4,2c5.6,7.8,28.2,3.3,30.1-6
		C255.9,362,255.3,361.7,255,362L255,362z"/>
	<path class="st2" d="M208.2,322.6c-1.1-12.2-3.2-24.2-4.3-36.4c-1.2-12.8,0.5-27.3-2.7-39.7c-0.1-0.5-0.9-0.7-1.1-0.1
		c-2.6,10.5-0.4,23,0.5,33.7c1.1,14.2,2.6,28.9,6.3,42.7C207.1,323.8,208.3,323.5,208.2,322.6L208.2,322.6z"/>
	<path class="st2" d="M207.1,208.2c-0.5-4.6,0.8-9.2,1.9-13.7c1.4-5.6,3.1-12.3,6.8-16.7c0.3-0.4,1.2-0.3,1,0.4
		c-0.9,4.4-3.1,8.5-4.5,12.8c-1.9,5.7-2.2,11.8-4.3,17.3C208,208.7,207.2,208.8,207.1,208.2L207.1,208.2z"/>
	<path class="st2" d="M220.2,170.7c0.8-1.4,2.4-2.5,3.6-3.7c1.1-1.1,2.3-2.8,3.9-2.7c0.4,0,0.7,0.4,0.7,0.7
		c-0.1,1.5-1.6,2.3-2.7,3.3c-1.4,1.2-2.8,2.8-4.5,3.6C220.5,172.2,219.8,171.4,220.2,170.7L220.2,170.7z"/>
</g>
<path class="st2" d="M469.8,274.3c-4.8-2.2-11.2-1.6-15.7,0.9c-3.8,2.1-8,7.7-6.7,12.2c0.1,0.5,0.8,0.5,1,0.1
	c2.1-4.2,2.6-7.7,6.8-10.5c4.1-2.8,9.9-1.9,14.5-2.3C469.9,274.6,470,274.4,469.8,274.3L469.8,274.3z"/>
<path class="st2" d="M447.6,291.1c-0.5,1.7,0.4,3.8,1.2,5.3c0.8,1.5,2.4,4,4.2,4.3c0.4,0.1,0.7-0.3,0.5-0.7
	c-0.3-0.6-0.7-0.9-1.3-1.3c-0.8-0.7-1.5-1.6-2.1-2.5c-1.1-1.6-1.2-3.5-2-5.2C448,290.8,447.7,290.9,447.6,291.1L447.6,291.1z"/>
<path class="st2" d="M536.7,268.7c-1.1-2.8-5.1-2.3-7.5-2.1c-3.7,0.3-7.7,2.1-10.3,4.8c-0.7,0.8,0.3,2,1.2,1.4
	c4.2-2.8,11.1-6.9,16.2-3.7C536.5,269.2,536.8,269,536.7,268.7L536.7,268.7z"/>
<path class="st2" d="M515.6,274.8c-3.3,1.8-6.3,4.1-9.5,6.2c-4.4,2.9-9.2,5.3-13.6,8.2c-0.5,0.3-0.1,1.2,0.5,1
	c8.2-3.2,16.4-9.1,23.1-14.8C516.4,275.1,515.9,274.6,515.6,274.8L515.6,274.8z"/>
<path class="st2" d="M489.9,290.5c-1.8,0.7-3.6,1.3-5.4,2c-1.8,0.6-3.9,1.1-5.4,2.3c-0.3,0.2-0.2,0.7,0.2,0.7c1.9,0,3.9-1.1,5.6-1.8
	c1.8-0.8,3.5-1.8,5.2-2.8C490.3,290.8,490.1,290.4,489.9,290.5L489.9,290.5z"/>
<path class="st2" d="M522.2,292.7c-2,4.6-3.6,9.4-5.3,14.2c-1.8,5.1-4.4,10.6-5.2,16c-0.1,0.4,0.5,0.6,0.7,0.2
	c2.5-4.3,3.6-9.5,5.2-14.2c1.8-5.3,3.7-10.6,5.1-16C522.8,292.6,522.3,292.4,522.2,292.7L522.2,292.7z"/>
<path class="st2" d="M509.9,326.8c-0.4,0.3-0.5,0.6-0.7,1c-0.2,0.5-0.3,0.9-0.3,1.4c0,0.3,0.4,0.4,0.6,0.2c0.3-0.3,0.6-0.7,0.7-1.1
	c0.2-0.5,0.4-0.9,0.2-1.4C510.4,326.8,510.1,326.7,509.9,326.8L509.9,326.8z"/>
<path class="st2" d="M512.6,352c-3,1-5.9-1.2-7.1-3.9c-1.4-3.1-1.3-7.6,0.9-10.4c0.3-0.3,0.7-0.1,0.8,0.2c0.9,2-0.9,4.5-0.8,6.7
	c0.1,3.2,2.7,6.6,6,6.6C512.9,351.2,513,351.9,512.6,352L512.6,352z"/>
<g>
	<path class="st2" d="M600.6,191.1c-6.9-2.2-16.7,3.3-19,10.2c-0.2,0.5,0.5,0.7,0.8,0.4c4.8-5,10.3-10.9,18-10
		C600.9,191.8,601,191.2,600.6,191.1L600.6,191.1z"/>
	<path class="st2" d="M579.2,206c-6,7.2-9.1,17.1-12,25.9c-3.3,10-6.1,20.7-6.7,31.2c0,0.6,0.9,0.7,1.1,0.1
		c2.6-9.7,4.2-19.6,7.1-29.2c2.9-9.6,7.5-18.3,11.1-27.6C579.8,206,579.4,205.7,579.2,206L579.2,206z"/>
	<path class="st2" d="M559.4,270.4c-0.9,7-1.7,14.3-1.6,21.4c0,0.3,0.5,0.4,0.6,0.1c1.2-7,1.5-14.3,1.7-21.4
		C560.1,270.1,559.5,270,559.4,270.4L559.4,270.4z"/>
	<path class="st2" d="M610.5,220.5c0.3,19.4-5.3,38.3-9.8,57c-0.1,0.3,0.4,0.5,0.6,0.2c3.8-9.4,5.5-19.9,7.1-29.8
		c1.5-9,2.7-18.3,2.2-27.4C610.7,220.3,610.5,220.3,610.5,220.5L610.5,220.5z"/>
	<path class="st2" d="M596.2,289.3c-8.1,19.9-17.8,40-36.4,51.9c-0.3,0.2-0.1,0.8,0.3,0.7c8.2-3.6,14.4-10.6,19.5-17.7
		c7.6-10.4,13.1-22.5,17-34.8C596.7,289.2,596.3,289.1,596.2,289.3L596.2,289.3z"/>
	<path class="st2" d="M380,309.1c-2-1.6-4.8,1.4-6.1,2.8c-1.9,2.1-3.7,5.4-3.3,8.3c0,0.3,0.6,0.5,0.7,0.2c0.8-1.9,1.2-3.9,2.2-5.7
		c1.1-1.8,3.9-5.4,6.3-5.1C380,309.5,380.2,309.2,380,309.1L380,309.1z"/>
	<path class="st2" d="M418.9,279.9c-7.4-4.4-21.4-2.5-25.7,5.7c-0.3,0.5,0.3,1.1,0.8,0.7c3.7-2.5,6.3-5.1,10.8-6.2
		c4.7-1.2,9.2-0.1,13.9,0C419,280.2,419,280,418.9,279.9L418.9,279.9z"/>
	<path class="st2" d="M391.7,289.2c-3,1.7-2.9,8.6-0.6,10.8c0.3,0.3,0.7,0,0.7-0.3c-0.1-1.7-0.8-3.2-0.8-4.9c-0.1-1.9,1-3.6,1-5.4
		C392,289.2,391.9,289.1,391.7,289.2L391.7,289.2z"/>
	<path class="st2" d="M393.2,304.2c0.1,0.8,0.6,1.5,1.1,2c0.5,0.5,1.3,1.1,2.1,1c0.6-0.1,0.7-0.7,0.4-1.1c-0.4-0.4-1-0.7-1.4-1.1
		c-0.4-0.4-0.8-0.9-1.1-1.3C393.9,303.4,393.1,303.7,393.2,304.2L393.2,304.2z"/>
	<path class="st2" d="M427.9,341c-2.9,6.1-6.8,11.3-12.1,15.5c-5.6,4.4-11.7,5.5-18.3,7.3c-0.3,0.1-0.2,0.5,0.1,0.5
		c13.5,0.2,26.1-11.2,30.7-23.2C428.3,341,428,340.8,427.9,341L427.9,341z"/>
	<path class="st2" d="M366.8,350.9c-1.7,2.5-3.3,5-5.1,7.3c-1.9,2.4-4.3,3.9-6.7,5.8c-0.2,0.2-0.1,0.6,0.2,0.5
		C361,362.8,364.6,355.9,366.8,350.9C366.9,350.9,366.8,350.8,366.8,350.9L366.8,350.9z"/>
</g>
<path class="st2" d="M680.8,293.4c5.6-4.5,5.5-14.7,1.3-20.2c-0.3-0.4-0.9,0-0.8,0.4c1.5,6.4,4,13.4-0.9,19.3
	C680.1,293.3,680.4,293.7,680.8,293.4L680.8,293.4z"/>
<path class="st2" d="M662.1,261.2c-7.8,0.6-15.7,3.9-22.8,7.1c-7.2,3.2-14.6,7.1-20.5,12.4c-0.4,0.4,0,1,0.5,0.7
	c6.9-3.9,13.4-8.2,20.5-11.6c7.2-3.4,15-5.1,22.3-8.1C662.5,261.6,662.4,261.2,662.1,261.2L662.1,261.2z"/>
<path class="st2" d="M649.8,311.1c-13.3-2.1-25.3-7.3-38.2-10.9c-0.4-0.1-0.6,0.4-0.2,0.6c11.9,5.4,25.4,9,38.4,10.5
	C649.8,311.2,649.9,311.1,649.8,311.1L649.8,311.1z"/>
<path class="st2" d="M612.8,322.2c0.2,0.6,0.3,1.3,0.5,2c0.2,0.6,0.8,1.2,0.6,1.9c0,0.1-0.2,0.3-0.3,0.2c-0.8-0.1-1.1-1.1-1.3-1.7
	c-0.3-0.8-0.3-1.7,0.1-2.5C612.5,322,612.8,322.1,612.8,322.2L612.8,322.2z"/>
<path class="st2" d="M616.6,330.4c2.6,5.2,4.7,10.6,7.6,15.7c3,5.3,7.1,9.8,10.1,15c0.4,0.7-0.6,1.3-1.1,0.8
	c-4.3-4.2-7.3-10-10.2-15.1c-2.8-5-5.6-10.5-6.7-16.2C616.2,330.3,616.5,330.2,616.6,330.4L616.6,330.4z"/>
<path class="st2" d="M638.3,364.8c4.9,3.6,8.9,7.7,14.7,10.1c4.8,2,15.2,5,19.4,0.2c0.6-0.7,1.6,0.3,1.2,1c-3,5.4-12.8,3-17.5,1.8
	c-7-1.8-14.4-6.6-18.3-12.7C637.7,364.9,638.1,364.6,638.3,364.8L638.3,364.8z"/>
<path class="st3" d="M208,156c0,0-6.7,11.7-6.5,30.4l5.3,0c0,0,2.8-16.2,12.4-33.8c0,0-1.1,0.9-9,2.9"/>
<path class="st3" d="M333.2,350.1c0,0-3.1,8.8-4.5,11.4c0,0,3.2,2.7,5.2,3.8c2,1.1,4.9-9,4.9-9L333.2,350.1z"/>
<path class="st3" d="M421.8,338.4c0,0,4.9,2.2,9.8,4.7l-1.8,3l-9.5-4.2L421.8,338.4z"/>
<polygon class="st3" points="427.3,329.3 435.9,333.7 436.5,331.8 427.9,327.5 "/>
<polygon class="st3" points="480.8,301.3 489.7,296.9 489.9,300.8 481,305.5 "/>
<polygon class="st3" points="478.5,292.6 487.5,289.2 485.7,285.3 477,289.5 "/>
<polygon class="st3" points="561.2,336.5 568,330.1 567,327.2 559.9,333.1 "/>
<path class="st3" d="M605.9,285.2"/>
<path class="st3" d="M605.9,285.2c0,0-3,8.6-6.7,16.1l1.5,2.5c0,0,6.9-9.8,9-20.9L605.9,285.2z"/>
</svg>
